<?xml version="1.0" encoding="utf-8"?>
<!-- Generator: Adobe Illustrator 16.0.0, SVG Export Plug-In . SVG Version: 6.00 Build 0)  -->
<!DOCTYPE svg PUBLIC "-//W3C//DTD SVG 1.1//EN" "http://www.w3.org/Graphics/SVG/1.1/DTD/svg11.dtd">
<svg version="1.1" id="Layer_1" xmlns="http://www.w3.org/2000/svg" xmlns:xlink="http://www.w3.org/1999/xlink" x="0px" y="0px"
	 width="1280px" height="800px" viewBox="0 0 1280 800" enable-background="new 0 0 1280 800" xml:space="preserve">
<path d="M448.297,703.625c0,0-3.672,2.75-5.422,3.625s-3.75,0.125-5.5,1s-1.625,3-3.25,6.125s-2.25,3.797-7.125,4.148
	s-3.625,0.352-4.75,0.977s1.125,1-3.25,1.125s-7.125-1.625-8.875,0S407.5,723.125,408,727s0.25,5.375,4.125,7.875
	s4.863,3.25,6.244,2.875c0.518-0.141,0.4-0.668,0.144-1.352c-0.428-1.139-1.241-2.711-0.144-3.648c1.756-1.5,2.506-1.875,4.631-1.75
	s3.657,1,5.079-0.875s1.921-3.5,4.421-4c0.625-0.125,1.266-0.32,1.91-0.562c1.934-0.727,3.902-1.875,5.59-2.812
	c2.25-1.25,2.625-3.625,4.5-3.25s1.5,0.842,0.625,1.233s-1.875,0.517-2.875,1.267s-7.657,3.188-10.625,5.25s-2.968,3-3.546,4
	s-3.329-1-6.329,0.875s-2.02,0.293-2.5,2.625s-1.625,3.25,0,5.875s4.782,3.75,8.829,3.375s4.671-0.75,5.421-1.875s-0.625-3,0.625-4
	s2.375-2.25,3.875-3s3.5-3.125,5.5-3.625s4-3,5.625-3.5s2.625-1.625,1,0.5s-1.75,1.375-4.125,2.75s-5,1.75-5.25,3.125
	s0.625,1.625-1.375,3S436.25,737.125,436,740s-1.75,4.25,1.25,5.875s7.5,1.875,10.125,0s1.5-2.125,1.5-3.875s0.375-3.5,1.5-5.75
	s0.125-4.25,2.5-5.125s4.25-2.25,5.25-2.625s1.242-2.875,1.934-2s-0.809,2.125-3.184,3.875s-3.75,0.625-4.25,3.75
	s-0.375,4.125-1.125,5.5s-2,1.125-1.125,3.75s3.375,4,6.625,2.875s4.29-0.75,4.958-3.125s0.083-2.5,0-4s1.042-2.5,1.167-4.875
	s0.125-4.875,1.375-5.875s1.875-1.75,2.625-1.75s0.375,0.375,0,1.125s-1,0.25-1.5,2s-0.875,2.5-0.75,3.75s0.875,0.625-0.25,3.25
	s-1.75,1.5-1.125,3.625s-0.625,2.125,1.25,3.25s5.5,0.625,8.5-0.75s3.729-3.125,4.427-4.75s-0.677-2.75,0.573-3.625s1.25,0.25,2,1
	s1.625,0.125,4.125-0.375s4.753-0.75,6.939-3.375s4.811-6.625,9.436-12.25s8.375-7.625,11.125-9.125s6.75-6.125,9.25-9.75
	s6.25-6,9.875-10.125s6.125-4.25,10.875-8.75s6-5.5,9.125-9.25s3.5-2.875,5.125-7.125s1.25-5.064,1.375-9.595s0.5-5.78-3.25-10.405
	S548.75,638,544,634s-7.25-5.875-8.5-5.75s-4.75,7.125-5,13.25s-3.125,5.225-4.125,12.3s-1.875,8.825-1.625,18.575
	s-0.5,8.074-5.375,13.787S499.628,708,491.314,714.625s-7.709,4.125-13.637,4.875s-15.927-0.5-20.177-1.625
	s-7.973-1.479-8.355-6.908S448.094,707.375,448.297,703.625z"/>
<g>
	<path fill="#FF00FF" d="M482.75,643c0,0-4.875-21.625-10.375-30.5s-11.004-20.9-14.032-24.567s-23.328-31.568-31.351-40.536
		s-30.993-34.315-41.698-46.435s-32.759-37.504-40.668-46.869s-24.67-35.237-24.67-35.237s-1.831,1.395-5.331,1.52
		s-7.456-1.52-7.456-1.52s6.08,8.418,8.546,11.521s16.127,20.315,20.777,26.281s10.191,13.45,16.413,20.653
		s15.968,17.459,28.732,32.41s30.777,34.925,41.3,46.778s21.438,25.75,29.312,37.25s11.561,19.396,14.894,26.991
		s6.69,18.426,6.69,18.426L482.75,643z"/>
	<path fill="#FF00FF" d="M488.042,646.004l5.438,1.267c0,0,0.523-5.271-2.166-12.146S484.125,616,482,612.5
		s-5.18-6.932-8.652-10.716S462.097,591.552,458.875,588s8.361,15.713,11.593,21.307s11.032,18.818,12.282,23.318
		S485.46,639.133,488.042,646.004z"/>
	<path fill="#FF00FF" d="M313,408.25c0,0,1.25-6,4.75-7s7.25-0.25,7.75,0s-1.75-2-6.25-15.75S304.248,328,301.999,314
		s-15.499-69.75-17.749-75.5s-16.879-48.129-20.25-54.25s-4.834-7.084-4.667-8.75s-7.167,18.667-7.5,26.833
		S245.5,242.167,258,287.667s27.167,77.333,31.667,81.499S307.333,392.502,313,408.25z"/>
	<path fill="#FF00FF" d="M255.337,405.499c0,0-0.032-0.328-0.094-0.88c-0.252-2.258-1-8.273-2.072-10.953
		c-1.333-3.334-3.135-36.333-3.067-44.667s-20.433-44.167-23.599-48.5s-48.5-70.5-57.167-81s-28.5-31-33.333-32.333
		s2.833,5.667,10.667,25.167s13.333,40.833,14.5,49s21.333,54.667,31.667,65.667s26.834,33.833,31.667,40.166
		s11.333,23.5,11.333,23.5s2.667-0.333,9,4.5S252.838,400.333,255.337,405.499z"/>
	<path fill="#FF00FF" d="M470,650.334c0,0,1.875-6.459,0.75-10.209s-0.75-2.021-0.75-2.021s7.625,3.021,10.75,4.646
		s7.875,4.25,14.875,4.75s13.75,0.625,13.75,0.625s1.625,10,1.125,13.125s0.096,1.375,0.096,1.375s-17.096,0-24.596-4.375
		S475.5,652.668,470,650.334z"/>
	<path fill="#FF00FF" d="M449,704.375c0,0,2.75-0.125,3.5-3.25s2.25-8.625,4.25-14.25s4.125-10.375,6-15s4.125-10.625,5-14.375
		s2.25-7.166,2.25-7.166l5.619,2.431c0,0-3.119,12.86-4.494,16.61s-2.375,7.5-3.5,11.25S465,693,463.625,696
		s-1.25,8.375-3.875,10.875s-4.625,8-5.625,8.25s-3.75,2.5-5.125-4.875S448.625,707.875,449,704.375z"/>
	<path fill="#FF00FF" d="M477.878,653.8c0,0-0.547,7.919-2.291,12.169s-3.978,10.266-4.228,14.891s-0.487,12.133-1.427,15.383
		s-0.936,10.004-1.936,12.004s-4.748,9.189-6.748,9.814S460.375,719,460.375,719H468c0,0,1.13,0.125,1.94-2.125
		s2.81-8.875,2.935-11.375s-0.25-9.562,0.25-13.438s0.625-7.156,1.25-11.156s1.75-8.516,2.25-10.766s3.375-8.133,3.75-9.758
		s0.502-5.007,0.502-5.007L477.878,653.8z"/>
	<path fill="#FF00FF" d="M481.33,655.78c0,0-0.049,4.876-1.174,8.626s-2.203,9.359-2.203,12.734s-1.477,9.117-0.977,13.617
		s0.512,1.746,0.512,6.371s1.006,3.123,0.006,8.998s0.128,4.562-2.747,8.562S470.468,720,470.468,720H478c0,0,3.25-2.75,4-5.375
		s1.125-4.125,1.375-9.375s0.875-10.938,0-14.188s-0.875-6.281-0.875-11.906s0.651-8.641,1.326-13.266s1.061-8.277,1.061-8.277
		L481.33,655.78z"/>
	<path fill="#FF00FF" d="M491.314,660.349c0,0,0.811,9.526,0.936,16.526s0.75,10.75,0.875,17S492.22,712.5,492.22,712.5
		s11.655-9.125,13.905-11.625s0.375-2.375-1.25-5.375s-4.148-8.125-5.637-13.625s-3.062-14.308-2.988-17.375
		s0.074-3.067,0.074-3.067L491.314,660.349z"/>
	<path fill="#FF00FF" d="M313.597,409.5c0,0,4.153,4.125,8.278,1.25s3.625-9.5,3.625-9.5s14.039,14.513,23.199,22.604
		s19.979,15.512,25.077,21.898s13.224,23.934,22.099,31.653s18.361,20.771,30.909,35.817s31.492,38.428,42.968,52.6
		s31.998,48.803,39.873,60.678s13.875,15.725,13.5,27.3s-6.125,22.325-8.75,26.575s-1.5,13.125-1.5,13.125s-2.926,5.25-5.713,5.375
		s-0.463-10.9,0-15.888s3.434-15.362,3.434-17.862S510.25,651,509.5,646.875s-1.25-8.75-7.5-16.75s-12.25-14.25-16.375-18
		S477.436,605,470.468,599.5s-13.718-13-15.968-16.375s-17.75-24.125-22-29.375s-29-32.375-36.375-40.625s-30.875-34.625-36.75-42
		s-19.5-21.75-26-30.75S321.069,419.375,313.597,409.5z"/>
	<path fill="#FF00FF" d="M74.836,91.332c0,0,6.167,31.167,9.5,45.333s9.667,41.667,15.333,54.833s22.833,48.333,29.5,60.666
		s26.5,48.667,36,58.833s23.834,31.333,34.167,39.167s25,32.833,27.167,40.333s-2,5.833,3.667,13.333s14.208,13.166,17.771,15.333
		s7.563,1.001,12.063,4.834s18.667,16,20,17.5s13.666,11.5,18.5,14.166s13.667,12.666,15,14.333s-11.833-23.167-14.667-28
		s-7.833-3.666-15-8.833s-16.167-15.167-19.167-17.667s-7.559-3.932-9.332-8.5s-6.367-10.39-10.101-11.528s-9.399-4.804-9.399-4.804
		s-4.555-11.699-7.151-16.424s-18.829-27.568-28.005-38.178s-23.706-37.837-30.775-51.119s-8.886-27.693-12.193-39.171
		s-12.108-38.714-22.326-55.996s-17.884-12.448-24.384-18.615s-21.422-38.859-24.667-48.167S74.836,91.332,74.836,91.332z"/>
</g>
<g>
	<path fill="#00FF00" d="M310.401,352.402c0,0,43.599,15.098,83.599,50.098s41.5,54,52,76.5s25,58.5,46.5,87s43,63,43,63
		s-4,3.5-4.25,8.5S506.75,615,503,608s-34.75-43-40.5-51.75s-33-38.25-40.75-49.75s-30.75-31.25-38.5-46.25s-6.75-11.75-18.25-22
		s-33.5-29-39.5-37S309.803,368.805,310.401,352.402z"/>
	<path fill="#00FF00" d="M285,426c0,0,13.25,0.75,19-6.25s1.5-3.25,1.5-3.25l6.75,9.523c0,0,24.5,30.727,32.25,40.977
		s27.25,31.75,33,38s37.625,44.75,45.438,51.5s24.562,30.75,29.312,37.25s16.25,28.584,18.583,35.584s3,9.833,3,9.833l-2.5-1.063
		c0,0,1.334-5.104-15.333-26.437s-29-33.832-31.833-36.666s-30.833-27.168-41.5-34.334s-49.667-40.833-58.5-53.333
		S290.333,444.165,285,426z"/>
	<path fill="#00FF00" d="M280.999,421.334l21-6.333c0,0-20-39.334-24-57s-13.667-51.333-17.667-68.667s-9.667-42.333-9.333-61.667
		s4.334-34,12-56.667s15.666-49.333,8-75.333s-15.334-38.001-31-49.667s-30.884-14.334-44.608-20.667s-31.726-11.335-34.725-10.667
		s-9.614-2.235-9.614-2.235S148,11.25,148.75,16s7,3.5,11.25,10.5S167,43,171.75,55s6.5,14.75,8.25,25s7.5,20,3.25,35
		s-14.034,37.776-31,32.75s-19.092-5.928-23.421-12.589S115.75,119.25,109.75,112.5s-16-16.945-22.25-21.848s-15.286-7.154-15-4.402
		s-2.264,1-0.007,6.5S75.25,97,80.5,107.5s2.5,11.5,4.25,17.75s1.25,7,8.75,20s6.25,24,24,34.5s23,10.75,36.5,26
		s27.25,37.25,43.5,60.5s35,51.5,44.75,70.25s11.75,31.75,19,42.25S276.998,414.168,280.999,421.334z"/>
</g>
<path fill="#0000FF" d="M187.667,166.668c0,0-1.333,7.333-24.667-2.333s-24-19-33.667-28.667s-40.667-44-47-46s-10.333,4-12.333-7
	s1-23.334,5-28.667s12-17.666,22.333-23.333s22-15.334,35.667-17.667s23.667-0.333,24.667,2.333s5.667,9.667,10,20
	s10,31.667,14,38.333s2,15.667,3.667,25s0.333,17,2.333,28.333s6,8.333,7.333,19S194.333,160.002,187.667,166.668z"/>
</svg>
