<?xml version="1.0" encoding="utf-8"?>
<!-- Generator: Adobe Illustrator 16.0.0, SVG Export Plug-In . SVG Version: 6.00 Build 0)  -->
<!DOCTYPE svg PUBLIC "-//W3C//DTD SVG 1.1//EN" "http://www.w3.org/Graphics/SVG/1.1/DTD/svg11.dtd">
<svg version="1.1" id="Layer_1" xmlns="http://www.w3.org/2000/svg" xmlns:xlink="http://www.w3.org/1999/xlink" x="0px" y="0px"
	 width="1280px" height="800px" viewBox="0 0 1280 800" enable-background="new 0 0 1280 800" xml:space="preserve">
<path fill="none" d="M270.808,446.078"/>
<g>
	<path fill="#0000FF" d="M270.808,446.078c0,0,2.888,34.498,4.747,41.624s4.958,29.124,4.958,33.152
		c0,4.027,5.887,13.942,6.506,17.351s-5.831,6.506-8.104,5.887c-2.275-0.62-4.599-7.591-5.838-11.929s-1.859-9.14-2.943-15.337
		c-1.084-6.196-12.239-23.547-13.788-32.532c-1.549-8.985-2.324-18.28-5.112-24.632s-8.985-30.828-10.07-36.406
		c-1.084-5.576-3.25-10.096-3.25-10.096s9.99,12.451,10.67,13.361s6.146,6.746,8.121,8.475c1.975,1.727,7.368,6.207,9.784,7.993
		C268.905,444.775,270.808,446.078,270.808,446.078z"/>
	<path fill="#0000FF" d="M302.2,545.176c0,0-1.704-4.183,1.084-11.464c2.789-7.281,4.493-8.984,5.112-14.562
		c0.62-5.577,4.647-25.097,7.281-34.392s5.959-28.631,6.816-30.981c0.857-2.35,0.857-2.35,0.857-2.35s9.019-6.553,10.641-7.834
		c1.622-1.277,7.47-6.453,8.54-7.59c1.067-1.133,7.116-8.797,7.692-9.712c0.581-0.91,1.138-1.825,1.138-1.825
		s-0.983,20.633-4.081,28.225c-3.098,7.59-11.619,22.772-13.633,27.109c-2.014,4.338-9.76,25.562-11.928,30.364
		c-2.169,4.803-4.958,9.76-5.577,15.491c-0.62,5.732,0.62,13.014-1.704,16.887c-2.324,3.872-1.395,4.183-5.732,4.337
		C304.369,547.035,302.2,545.176,302.2,545.176z"/>
	<path fill="#0000FF" d="M270.808,446.078c0,0,5.55,2.178,6.882,2.623c1.331,0.441,6.371,2.067,6.371,2.067s4.967,1.55,5.567,1.733
		c0.596,0.184,4.328,0.877,6.463,1c2.14,0.123,11.014,0.271,11.837,0.259c0.828-0.015,6.463-0.194,7.75-0.29
		c1.288-0.098,4.105-0.378,4.691-0.533c0.586-0.15,2.634-1.259,2.982-1.51c0.346-0.252-1.089,3.142-1.181,3.521
		c-0.09,0.38-0.983,4.577-1.239,5.851c-0.257,1.271-1.496,7.448-1.704,8.457c-0.208,1.012-1.612,7.635-1.859,8.715
		c-0.249,1.079-2.663,10.33-3.231,12.708c-0.569,2.377-2.515,11.04-2.854,12.676c-0.342,1.637-2.009,10.14-2.237,11.513
		c-0.232,1.372-1.043,7.324-1.622,8.891c-0.579,1.566-1.995,4.808-2.232,5.35s-1.06,2.227-1.06,2.227s1.079-3.309,1.06-5.001
		c-0.022-1.691-0.124-2.225-0.867-5.117c-0.741-2.893-1.939-8.82-2.37-11.444c-0.431-2.624-1.114-7.864-1.133-11.168
		c-0.02-3.305,0.007-7.388-0.152-9.663c-0.16-2.275-0.678-7.252-1.307-9.82c-0.629-2.568-0.915-7.853-0.881-10.164
		s0.133-3.767,0.063-5.417c-0.068-1.651-0.731-3.68-2.696-3.723c-1.966-0.044-2.779,2.33-2.75,3.466
		c0.024,1.135,0.022,5.926-0.191,7.473c-0.213,1.546-1.096,5.957-1.365,7.91c-0.269,1.953-0.896,6.23-1.588,8.024
		c-0.692,1.793-2.433,6.141-2.75,7.522c-0.317,1.38-2.147,8.705-2.847,10.876s-2.445,6.016-2.471,9.37
		c-0.024,3.353,0,7.891,0.474,10.479c0.47,2.588,0.257,2.762,0.257,2.762s-1.612-3.945-1.823-4.972s-0.564-5.81-0.792-7.707
		s-1.796-13.091-1.965-14.136c-0.165-1.046-2.436-14.354-3.132-16.475c-0.697-2.123-2.138-17.331-2.377-19.745
		c-0.239-2.413-1.108-11.554-1.331-14.085C270.977,448.053,270.808,446.078,270.808,446.078z"/>
	<path fill="#0000FF" d="M316.414,523.846c0,0,8.559-1.752,11.502-0.668c2.943,1.085,19.938,1.09,23.446,0.157
		c3.51-0.932-1.447-17.973-2.997-27.887c-1.549-9.915-1.395-24.013-0.93-30.209c0.465-6.197,1.438-18.302,1.438-18.302
		s-3.483,12.397-7.649,18.292c-4.168,5.896-10.288,21.204-12.297,26.472c-2.009,5.27-4.938,13.265-6.453,16.687
		c-1.515,3.423-2.989,6.41-3.764,8.322C317.936,518.622,316.581,522.819,316.414,523.846z"/>
	<path fill="#0000FF" d="M351.311,523.646c0,0,14.068,0.862,20.471-0.585c6.405-1.447,13.558-3.061,16.862-3.061s1.549,0,1.549,0
		s-5.166-1.95-8.47-7.11c-3.304-5.166-11.154-12.282-13.942-16.726c-2.789-4.439-7.642-10.583-11.774-17.399
		s-8.251-17.691-8.097-19.64c0.15-1.951-0.685,9.183-0.731,11.654c-0.048,2.474-0.002,13.946,0.448,18.289
		s2.186,13.774,3.057,18.168s1.82,9.345,1.859,11.332C352.577,520.556,352.192,523.13,351.311,523.646z"/>
	<path fill="#0000FF" d="M389.984,519.925c0,0,13.635-1.575,21.175-6.636c7.538-5.062,17.554-8.289,22.928-8.289
		c5.369,0,3.2,0,3.2,0s-10.433-2.506-20.861-9.941c-10.433-7.436-26.234-18.446-34.082-21.648
		c-7.85-3.202-12.911-4.475-21.069-9.843c-8.16-5.371-10.328-10.241-10.948-14.063c-0.62-3.822-0.651-7.229-0.651-7.229
		s-0.944,6.403-1.092,8.26c-0.147,1.854-1.009,6.631-0.675,8.567c0.332,1.934,3.861,12.344,6.613,16.999
		c2.752,4.654,10.871,16.326,12.064,18.146s4.589,5.973,8.782,10.741c4.192,4.773,5.482,7.209,7.525,9.31
		C384.938,516.4,389.19,520.036,389.984,519.925z"/>
	<path fill="#0000FF" d="M244.571,523.333c7.334-0.93,23.659-1.755,26.237-0.62c2.578,1.138,0.346,0.185,0.346,0.185
		s-0.69-4.212-0.888-5.302c-0.199-1.089-0.966-3.863-2.196-6.478c-1.229-2.616-5.408-10.926-6.652-13.56s-4.55-9.604-5.715-17.239
		c-1.164-7.632-2.2-13.444-2.617-15.003c0,0-1.222-5.101-2.159-6.386c-0.934-1.282-0.445-1.186-0.445-1.186s1.835,4.473,1.37,7.804
		s-1.859,10.534-3.795,14.795c-1.937,4.26-8.288,22.617-12.083,28.194s-8.598,12.703-8.521,14.098S237.239,524.263,244.571,523.333z
		"/>
	<path fill="#0000FF" d="M205.222,518.607c0,0,6.739,3.641,10.612,3.719c3.873,0.077,8.521,1.084,10.069,0.697
		c1.549-0.388,1.549-0.388,1.549-0.388s3.011-5.844,4.144-7.566c1.133-1.722,4.27-5.824,5.792-8.951
		c1.522-3.128,4.526-10.169,4.936-11.198c0.409-1.028,4.589-11.81,4.589-11.81s-5.441,10.865-9.002,14.119
		c-1.861,1.472-11.544,8.288-14.875,10.225s-11.619,6.273-13.633,7.358C207.391,515.896,204.331,518.147,205.222,518.607z"/>
	<path fill="#0000FF" d="M160.219,503.111c0,0,14.252-0.692,20.836,3.258s19.752,9.992,22.695,11.077
		c2.943,1.084,1.312,0.619,1.312,0.619s7.852-5.592,10.551-6.553c2.699-0.961,9.21-5.129,11.244-6.501
		c2.033-1.373,10.268-6.979,11.055-7.782c0.787-0.804,4.137-5.204,5.976-8.523c1.84-3.318,4.069-7.68,4.851-10.04
		s2.36-8.537,2.699-10.565c0.339-2.029,0.724-4.883,0-7.306c-0.724-2.426-1.644-4.986-2.064-6.33
		c-0.421-1.344-0.804-2.607-0.804-2.607s1.786,3.518-3.016,8.785c-4.802,5.267-18.023,13.322-21.688,15.801
		c-3.669,2.479-18.953,11.051-28.04,13.529c-9.091,2.479-20.865,6.509-25.822,8.781
		C165.045,501.024,160.243,502.201,160.219,503.111z"/>
</g>
<path fill="#00FF00" d="M296.851,210.604c0,0,21.466,1.241,29.313,4.545c7.85,3.304,15.286,7.435,23.547,14.458
	c8.264,7.023,9.092,8.264,11.982,12.807s7.848,12.807,10.326,19.83c2.479,7.022,3.307,16.112,2.893,25.199s0.826,15.7-1.653,24.787
	c-2.479,9.087-0.823,7.024-0.412,9.915c0.412,2.89,7.437-1.653,9.501,2.89c2.065,4.546,1.653,4.958,1.653,11.154
	s-2.479,12.393-4.546,16.939c-2.065,4.546-5.78,8.264-5.369,11.982c0.411,3.718,1.239,8.259-0.414,11.565
	c-1.653,3.307-7.848,5.783-9.501,6.608c-1.653,0.828-2.064,15.7-4.957,22.725c-2.893,7.02-3.718,12.393-9.503,21.068
	c-5.783,8.676-12.393,14.045-17.351,17.762c-4.958,3.719-8.675,6.609-11.154,7.848c-2.479,1.24-25.612,1.653-30.983,0
	c-5.369-1.65-17.351-5.369-19.416-6.607c-2.065-1.24-17.765-12.805-22.722-20.241c-4.957-7.437-13.632-15.7-13.219-17.351
	c0.414-1.656-5.783-22.725-5.371-23.964c0.414-1.239-9.912-0.412-11.565-1.651s-0.828-10.326-5.785-14.872
	c-4.958-4.546-11.154-22.719-11.154-24.787c0-2.067-2.064-12.394,0-16.939c2.067-4.541,9.089-5.781,11.568-4.13
	c2.479,1.651,1.026-0.203,1.026-0.203s-2.893-33.462-0.206-47.714c2.685-14.251,2.065-15.281,5.783-22.304
	c3.718-7.023,14.667-21.069,28.091-27.885c13.427-6.816,30.364-12.407,40.073-13.433S296.851,210.604,296.851,210.604z"/>
</svg>
