<?xml version="1.0" encoding="utf-8"?>
<!-- Generator: Adobe Illustrator 16.0.0, SVG Export Plug-In . SVG Version: 6.00 Build 0)  -->
<!DOCTYPE svg PUBLIC "-//W3C//DTD SVG 1.1//EN" "http://www.w3.org/Graphics/SVG/1.1/DTD/svg11.dtd">
<svg version="1.1" id="Layer_1" xmlns="http://www.w3.org/2000/svg" xmlns:xlink="http://www.w3.org/1999/xlink" x="0px" y="0px"
	 width="1280px" height="800px" viewBox="0 0 1280 800" enable-background="new 0 0 1280 800" xml:space="preserve">
<!-- full body arm bent -->
<g>
	<path fill="none" d="M305.835,113.332"/>
	<g>
		<path fill="#0000FF" d="M305.835,113.332c0,0,1.165,13.918,1.915,16.793s2,11.75,2,13.375s2.375,5.625,2.625,7
			s-2.353,2.625-3.27,2.375c-0.918-0.25-1.855-3.062-2.355-4.812s-0.75-3.688-1.188-6.188s-4.938-9.5-5.562-13.125
			s-0.938-7.375-2.062-9.938s-3.625-12.438-4.062-14.688s-1.312-4.073-1.312-4.073s4.03,5.023,4.305,5.391s2.479,2.722,3.276,3.418
			s2.973,2.504,3.947,3.225C305.067,112.806,305.835,113.332,305.835,113.332z"/>
		<path fill="#0000FF" d="M318.5,153.312c0,0-0.688-1.688,0.438-4.625s1.812-3.625,2.062-5.875s1.875-10.125,2.938-13.875
			s2.404-11.551,2.75-12.499s0.346-0.948,0.346-0.948s3.639-2.644,4.293-3.16s3.014-2.604,3.445-3.062
			c0.431-0.458,2.871-3.55,3.104-3.918c0.234-0.368,0.459-0.737,0.459-0.737s-0.396,8.324-1.646,11.387s-4.688,9.188-5.5,10.938
			s-3.938,10.312-4.812,12.25s-2,3.938-2.25,6.25s0.25,5.25-0.688,6.812s-0.562,1.688-2.312,1.75S318.5,153.312,318.5,153.312z"/>
		<path fill="#0000FF" d="M305.835,113.332c0,0,2.239,0.879,2.776,1.058s2.57,0.834,2.57,0.834s2.004,0.626,2.246,0.7
			c0.24,0.074,1.746,0.354,2.607,0.403c0.863,0.049,4.443,0.109,4.775,0.104c0.334-0.005,2.607-0.078,3.127-0.117
			s1.656-0.153,1.893-0.214s1.062-0.508,1.203-0.61c0.14-0.102-0.439,1.268-0.477,1.421c-0.036,0.153-0.396,1.847-0.5,2.36
			s-0.604,3.005-0.688,3.413s-0.65,3.079-0.75,3.515c-0.101,0.436-1.074,4.168-1.304,5.127s-1.015,4.454-1.151,5.114
			c-0.138,0.66-0.811,4.09-0.902,4.645c-0.094,0.554-0.421,2.955-0.654,3.587s-0.805,1.94-0.9,2.158s-0.428,0.898-0.428,0.898
			s0.436-1.335,0.428-2.018c-0.009-0.683-0.05-0.897-0.35-2.064c-0.299-1.167-0.782-3.559-0.956-4.618s-0.449-3.172-0.457-4.505
			s0.003-2.981-0.062-3.899s-0.273-2.926-0.527-3.961s-0.369-3.168-0.355-4.101s0.054-1.519,0.025-2.185
			c-0.027-0.666-0.295-1.484-1.088-1.502s-1.121,0.94-1.109,1.398c0.01,0.458,0.009,2.391-0.077,3.015s-0.442,2.404-0.551,3.191
			s-0.361,2.514-0.641,3.237s-0.981,2.478-1.109,3.035s-0.866,3.512-1.148,4.388s-0.986,2.427-0.997,3.78
			c-0.01,1.353,0,3.185,0.191,4.228c0.189,1.043,0.104,1.114,0.104,1.114s-0.65-1.591-0.735-2.005s-0.228-2.344-0.319-3.109
			s-0.725-5.281-0.793-5.703c-0.066-0.422-0.982-5.791-1.264-6.647s-0.862-6.992-0.959-7.965s-0.447-4.662-0.537-5.682
			C305.903,114.128,305.835,113.332,305.835,113.332z"/>
		<path fill="#0000FF" d="M324.234,144.708c0,0,3.453-0.708,4.641-0.27s8.044,0.439,9.459,0.063
			c1.416-0.376-0.584-7.251-1.209-11.251s-0.562-9.688-0.375-12.188s0.58-7.384,0.58-7.384s-1.405,5.002-3.086,7.38
			c-1.682,2.378-4.15,8.554-4.961,10.68s-1.992,5.352-2.604,6.732s-1.206,2.585-1.519,3.357S324.302,144.293,324.234,144.708z"/>
		<path fill="#0000FF" d="M338.313,144.626c0,0,5.676,0.27,8.259-0.313c2.584-0.583,5.47-1.312,6.803-1.312s0.625,0,0.625,0
			s-2.084-0.708-3.417-2.792s-4.5-4.916-5.625-6.708s-3.083-4.25-4.75-7s-3.329-7.128-3.267-7.915
			c0.061-0.787-0.276,3.71-0.295,4.708c-0.02,0.998-0.001,5.629,0.181,7.381s0.882,5.558,1.233,7.331s0.734,3.77,0.75,4.572
			C338.824,143.379,338.669,144.418,338.313,144.626z"/>
		<path fill="#0000FF" d="M353.916,143.125c0,0,5.501-0.687,8.543-2.729c3.041-2.042,7.082-3.396,9.25-3.396
			c2.166,0,1.291,0,1.291,0s-4.209-0.959-8.416-3.959c-4.209-3-10.584-7.416-13.75-8.708c-3.167-1.292-5.209-1.792-8.5-3.958
			c-3.292-2.167-4.167-4.125-4.417-5.667s-0.263-2.913-0.263-2.913s-0.381,2.584-0.44,3.333s-0.407,2.676-0.272,3.457
			c0.134,0.781,1.558,4.981,2.668,6.859s4.386,6.586,4.867,7.321s1.852,2.41,3.543,4.334s2.212,2.908,3.036,3.755
			S353.596,143.17,353.916,143.125z"/>
		<path fill="#0000FF" d="M295.25,144.5c2.959-0.375,9.545-0.708,10.585-0.25s0.14,0.074,0.14,0.074s-0.278-1.7-0.358-2.139
			s-0.39-1.559-0.886-2.614s-2.182-4.408-2.684-5.47s-1.836-3.875-2.306-6.955s-0.888-5.424-1.056-6.054
			c0,0-0.493-2.057-0.871-2.575c-0.377-0.518-0.18-0.479-0.18-0.479s0.74,1.805,0.553,3.148s-0.75,4.25-1.531,5.969
			s-3.344,9.125-4.875,11.375s-3.469,5.125-3.438,5.688S292.292,144.875,295.25,144.5z"/>
		<path fill="#0000FF" d="M279.375,142.594c0,0,2.719,1.469,4.281,1.5s3.438,0.438,4.062,0.281s0.625-0.156,0.625-0.156
			s1.215-2.357,1.672-3.052s1.723-2.351,2.337-3.612s1.826-4.102,1.991-4.517s1.852-4.765,1.852-4.765s-2.195,4.384-3.632,5.696
			c-0.751,0.594-4.657,3.344-6.001,4.125s-4.688,2.531-5.5,2.969S279.016,142.409,279.375,142.594z"/>
		<path fill="#0000FF" d="M261.219,136.342c0,0,5.75-0.279,8.406,1.314s7.969,4.031,9.156,4.469s0.529,0.25,0.529,0.25
			s3.168-2.256,4.257-2.644s3.716-2.069,4.536-2.623s4.143-2.815,4.46-3.14s1.669-2.099,2.411-3.438s1.642-3.099,1.957-4.051
			s0.952-3.444,1.089-4.263s0.292-1.97,0-2.948s-0.663-2.011-0.833-2.553s-0.324-1.052-0.324-1.052s0.721,1.419-1.217,3.544
			s-7.271,5.375-8.75,6.375c-1.48,1-7.646,4.458-11.312,5.458c-3.668,1-8.418,2.625-10.418,3.542S261.229,135.975,261.219,136.342z"
			/>
	</g>
	<g>
		<path fill="#00FFFF" d="M374,195.333c0,0-1,8.167,0,13.833s2,18.5-1.5,22.667s-9.167,9.333-17,8.333
			c-7.834-1-16.5-3.667-22.5-8.833s-6.667-3.666-8-6.833c-1.334-3.167-1.5-9.167,0-16s5.5-11,10.666-13.167s15.166-3,19.5-2
			s6.5,1.5,10.666,2.167C370,196.167,372.5,195.833,374,195.333z"/>
		<path fill="#00FFFF" d="M252.666,191.834c0,0,7,3.666,13,2.833s17.167-2.333,25,2s14.838,7.834,15.169,17.167
			s1.664,11-5.503,16.167c-7.166,5.167-11.833,10-19.833,12s-9.499,0.917-14.833-1.708s-7.334-5.292-9.167-9.792
			s-1.666-10.5-0.333-14.833s1.5-4.833,1.166-10.667c-0.333-5.833-1.666-9.167-3.166-11.167S252.666,191.834,252.666,191.834z"/>
	</g>
	<g>
		<path fill="#FF00FF" d="M234.166,207.5c0,0-6.332-5.832-5.832-15.666s3.999-15.834,5.832-28
			c1.834-12.167,5.834-13.876,9.668-16.105c3.832-2.229,11.332-6.395,11.332-6.395s-1.333,0.5,1.5,0
			c2.834-0.5,10-1.082,13.334,1.792s4,4.164,6.334,4.603c2.332,0.438,0.964,0,0.964,0s-11.464,13.438-17.464,17.771
			s-18.001,17.667-20.668,22.833C236.5,193.5,234.166,207.5,234.166,207.5z"/>
		<path fill="#FF00FF" d="M244.584,187.083c0,0,15.582-14.167,28.416-17.5c12.833-3.333,31.333-16.677,31.333-16.677
			s-4.251-3.323-12.417-3.24s-14.618-1.939-14.618-1.939s-11.878,13.184-14.671,15.478s-12.467,11.06-15.701,14.886
			s-6.649,8.398-6.649,8.398S243.334,186.418,244.584,187.083z"/>
		<path fill="#FF00FF" d="M272.582,243.914c0,0,8.5,1.667,11.834,0c3.333-1.667,18.666-10.917,22.583-16.333
			s3.999-4.333,4.166-8.833s0.001-19,0-21.583s-0.752-23.75-0.669-25.167c0.084-1.417,2.166-10.333-1.75-15.333
			s-4.413-3.758-4.413-3.758s-15.847,10.202-19.942,12.13s-15.012,5.56-17.553,6.813c-2.54,1.254-11.561,6.584-15.313,9.548
			s-6.94,5.685-6.94,5.685s5.625,2.708,6.854,3.729s1.229,1.021,1.229,1.021s5.432,2.433,8.132,2.692s7.087-0.046,12.582-0.692
			s8.917,0.115,10.769,0.547c1.854,0.432,4.663,1.159,8.504,3.383c3.84,2.225,8.248,4.799,10.642,8.143s2.585,7.897,2.719,11.528
			s0.106,5.429-0.179,6.276s-1.547,3.136-2.999,4.324s-13.056,9.79-13.056,9.79s-5.139,2.969-7.209,3.573
			c-2.071,0.604-7.563,2.005-9.508,1.638s-3.504-0.899-3.504-0.899L272.582,243.914z"/>
		<path fill="#FF00FF" d="M353.084,147.583c0,0,3.666,3.542,6.499,8.792c2.834,5.25,12.459,14.396,17.876,17.729
			c5.416,3.333,12.104,6.698,17.354,10.198s7.188,7.114,7.188,7.114V172c0,0-1.713-8.962-3.648-11.189s-6.185-15.558-20.518-17.685
			c-14.334-2.126-7.084,0.457-15.667,3.29S354.417,147.333,353.084,147.583z"/>
		<path fill="#FF00FF" d="M382.084,178.25c0,0-15.25-7-18.5-9.833s-14.418-8.25-17.584-9.333s-13.834-4.333-16.584-4.667
			s-5.5-0.413-5.5-0.413s1.277-3.17,3.139-3.837s2.695-1.75,5.029-1.75c2.332,0,5.333-0.167,9,0c3.666,0.167,12-0.834,12-0.834
			s3.131,3.543,3.89,4.639s4.017,6.412,4.755,7.333c0.736,0.92,5.118,5.762,6.5,7.056c1.381,1.293,6.895,6.142,10.021,7.974
			s5.897,3.374,8.674,4.966s4.029,2.332,4.029,2.332L382.084,178.25z"/>
		<path fill="#FF00FF" d="M374,195.333c0,0,5.059-14.443,7.416-15.417c2.356-0.974,1.627-1.273,1.627-1.273
			s-8.227-3.859-9.359-4.431c-1.131-0.571-6.186-3.216-7.364-3.942s-3.903-2.837-5.372-3.722c-1.467-0.885-7.424-4.092-8.533-4.628
			c-1.11-0.536-7.275-3.158-9.902-3.96s-8.426-2.477-9.445-2.736c-1.018-0.259-5.465-1.026-6.97-1.11s-2.181-0.11-2.181-0.11
			s-3.084,2.912-3.5,5.245c-0.417,2.333-1.584,5.333-1.584,9s-0.497,5.067-0.54,9.575s-0.04,6.925,0,9.758s-0.02,9.499-0.031,11.999
			s0.179,8.25,0,10.833s-0.155,7.917-0.001,9.167c0.156,1.25,2.53,5.167,5.676,7.5c3.146,2.333,8.312,6.166,11.896,7.666
			c3.582,1.5,6.833,3.75,10.25,4.75c3.416,1,11.332,1.833,12.916,1.667s6.847-3.363,6.847-3.363s-4.079,2.208-6.338,2.347
			s-6.11,0.02-10.067-1.078s-9.343-2.937-11.815-4.502s-5.925-4.423-7.306-5.387s-3.495-1.861-4.217-2.871
			c-0.723-1.01-2.52-4.019-2.166-8.896s0.896-10.035,2.227-12.632s3.801-6.481,6.652-7.965s6.32-3.154,11.585-3.526
			s8.569-0.449,11.787,0.277s7.331,1.645,9.646,1.932c2.316,0.287,4.981,0.45,6.076,0.275C373.002,195.601,374,195.333,374,195.333z
			"/>
	</g>
	<path fill="none" d="M257.449,232.609"/>
	<g>
		<path fill="#662D91" d="M404.669,251c0,0-9.666-5.501-17.499-19.334c-7.834-13.833-7.795-14.416-8.92-20.666
			s-2.375-10.423-2.25-18.086s2.294-8.417,3.045-9.765s1.787-2.771,2.898-3.463c1.113-0.692,1.1-1.043,1.1-1.043
			s4.65,1.905,5.402,2.213s4.902,2.185,7.227,4.042s5.516,4.935,6.328,6.519s3.938,10.521,4.438,15.896s0.375,7.509,0.375,7.509
			s-3.75,5.054-4.312,11.741s0,11.147,0.5,13.73S404.65,249.875,404.669,251z"/>
		<path fill="#662D91" d="M402,184.75c0,0,5.312,9.564,5.938,12.845s1.562,11.343,1.312,12.843s-2.438,4.384-2.438,4.384
			s-0.133-7.458-0.829-10.48s-2.192-8.21-2.672-9.552s-1.374-3.664-1.374-3.664L402,184.75z"/>
		<path fill="#662D91" d="M421.834,178.643c0,0-3.666,18.191-7.166,25.191s-10.334,16-11,29c-0.667,13,1.946,22.667,1.946,22.667
			s4.72-1.917,6.302-1.333C413.5,254.75,415.75,256,415.75,256s3.5-4.334,4.833-9.667s2.917-19.25,3.167-23.917
			s1.416-19.166,1.416-23s-0.25-20.383-0.333-20.775S421.834,178.643,421.834,178.643z"/>
		<path fill="#662D91" d="M432.875,260.875c0,0,3.75-2.375,5.5-7.75s2.5-16.75,2.125-20.75s-2.467-31.554-2.875-34.78
			c-0.25,1.405-2.125-13.329-3.25-15.712s-3.5-7.383-6-8.883s0.5,3.148,1.25,4.824s1.125,3.926,0.75,6.926s-1.375,3.125-1.75,3.625
			S428,195,428.125,195.5s0,17.75,0.125,20s1,12.25,1,14.375s0,10.5-0.5,13.75S427.875,257.5,432.875,260.875z"/>
		<path fill="#662D91" d="M426.875,176.312c0,0-0.625,1.5-4.5,0s-5.316-3.983-6.553-5.063s-3.738-3.313-4.752-4.369
			c-1.015-1.056-2.262-2.348-2.48-3.139s-0.38-2.554-0.38-2.554s8.54,4.375,10.915,6.188s5.562,4.125,5.562,4.625
			S426,175.625,426.875,176.312z"/>
		<path fill="#662D91" d="M257.449,233.667c0,0-1.949,7.333-1.783,12.333c0.168,5,0.834,8.167-1.5,14.667
			c-2.332,6.5-6.999,10.167-9.582,12.5c-2.584,2.333-10.25-2.333-11.75-4.833s-3-7-3-10.667s0.5-18.5,1.666-26.167
			s1.6-18.381,2.666-24s1.283-6.8,1.758-8.787s0.711-3.891,1.852-6.879s2.501-5.344,2.501-5.344s3.593,0.17,6.212,1.534
			c2.617,1.364,4.722,2.64,5.824,3.517c1.104,0.876,2.904,3.873,3.257,4.764s1.455,4.341,1.642,7.108
			c0.186,2.768,0.57,6.572,0.238,7.754s-1.272,4.198-1.56,5.494s-0.899,5.415-0.714,7.422c0.187,2.008,1.278,6.515,1.933,7.822
			S257.449,233.667,257.449,233.667z"/>
		<path fill="#662D91" d="M230.949,203.148c0,0,1.98,3.061,2.599,3.706s0.618,0.646,0.618,0.646s-0.992,7.84-1.225,10.449
			c-0.234,2.609-1.031,12.305-1.674,15.24s-1.38,20.932-1.404,22.37c-0.025,1.438-0.571,9.69-0.029,13.753
			c0.541,4.062,1.416,18.188,1.416,24s-2.125,17.562-3.125,21.938s-2.625,10.75-5,16.375s-4.375,14-4.625,20.75
			s-1.125,22.125-1.125,22.125s-1-2.875-2.125-7.875s-3-20.375-3.125-25S211.5,326,211.25,319.25s-4.375-16.75,3.5-38.75
			s8.25-9.75,10.375-27.75s1.75-20.5,2-27.25s3.375-20,3.375-20S231.391,203.987,230.949,203.148z"/>
		<path fill="#662D91" d="M255.878,250.998c0,0,1.878,13.877,0,19.252s-4.378,13.648-4.378,18.574s-2.25,19.176-10,33.301
			s-14.125,24.5-16.375,29.125s-7.68,22.004-7.715,22.627s0.905-20.782,1.224-23.637s1.278-8.673,2.025-11.264
			s3.885-10.657,4.864-13.969c0.979-3.312,3.391-12.762,4.203-18.115c0.814-5.354,1.751-10.293,1.462-16.902
			s-0.107-2.868-0.107-2.868s6.169-9.936,12.169-13.32s7.003-6.205,7.509-6.897s3.476-5.3,4.188-8.668
			S255.978,253.571,255.878,250.998z"/>
		<path fill="#662D91" d="M210.271,298.991c0,0-5.602,23.674-5.602,31.507s0.499,8-0.834,21.5s-4.333,20.5-4.833,26.333
			s-4.918,26.696-5.625,27.848c-0.709,1.152,2.23,0.939,2.23,0.939s4.58-18.558,4.705-19.683s-2.891,20.088-3.072,20.055
			s1.873,0.25,1.873,0.25S203.375,389.25,203.5,388s-1.6,19.558-1.731,19.742s2.731,0.283,2.731,0.283s2.625-26.775,2.375-27.9
			s2.062,5.938,2.062,8.812s0.262,18.611,0.262,18.611l2.402-0.919c0,0-0.664-22.505-1.102-23.567s5.506,6.188,6.909,9.688
			s3.29,8.847,3.29,8.847l2.002-0.144c0,0-0.051-0.262-0.141-0.689c-0.287-1.357-0.973-4.383-1.686-5.951
			c-0.938-2.062-5-9.25-6.25-10.875s-3.478-6.062-4.676-7.312c-1.199-1.25-2.106-12.125-1.965-13.938
			c0.141-1.812,3.016,11,4.641,12.688s5.25,7.75,6,9.75s2.062,4.125,2.625,6.438s1.699,9.872,1.699,9.872s1.931-0.411,2.053-1.392
			c0.123-0.98-1.189-11.855-2.002-14.543s-5.625-11-5.625-11s-3.183-11.33-3.498-16.196c-0.314-4.866-1.717-15.744-1.777-17.555
			c-0.062-1.811-0.628-15.875-0.628-15.875s-0.514-8.531-0.818-10.923S209.791,307.545,210.271,298.991z"/>
		<path fill="#662D91" d="M439.178,215.986c0,0-0.072-37.986,0-42.236s0.738-6-0.032-8s-16.592-23.828-17.181-24.539
			c-0.59-0.711-3.049,1.497-3.049,1.497s13.326,16.792,15.08,19.917s2.379,7.25,2.629,9.5s-2.125-4.5-5-8
			s-15.712-17.718-15.712-17.718l-2.02,2.9c0,0,16.981,16.693,18.106,18.818s3.375,5.75,3.5,7.125s-1.504-0.75-1.504-0.75
			s-8.251-9.375-9.936-11.25c-1.686-1.875-9.629-8.628-11.186-9.246s-1.411-0.85-1.411-0.85l-1.359,2.164
			c0,0,12.599,9.941,13.956,11.562c1.356,1.62-8.972-6.253-12.311-7.13s-3.339-0.876-3.339-0.876l-0.201,2.313
			c0,0,10.234,5.662,12.183,7.149c1.949,1.487,2.52,2.48,4.188,3.447s1.841,0.629,2.817,0.923s6.099,5.859,6.977,9.177
			s2.152,10.475,2.348,11.622s1.286,8.079,1.492,10.575S439.178,215.986,439.178,215.986z"/>
	</g>
	<g>
		<path fill="#009245" d="M318.135,233.333c0,0,9.365,2.167,14.531,5.667s8,6.333,8,6.333s1.166,4.834,0,7.667s-1.604,4.25-1.604,5
			s-10.062-5.5-12.5-6.062s-9.062-2.125-9.062-2.125S316.708,248.291,318.135,233.333z"/>
		<path fill="#009245" d="M313.312,234c0,0-8.062,1.188-12.938,5.125s-9,6.5-10.062,8.875s-0.562,5.625,0,7.625
			s1.312,3.938,1.5,5.438s8.25-5.625,11-7.5s8.188-3,9.625-3.625s0.875-0.875,0.875-0.875S314.25,255.812,313.312,234z"/>
		<path fill="#009245" d="M317.281,252.312c0,0,6.219,2.125,8.469,2.875s5.75,1.75,7.375,2.875s4.562,2.812,5.375,4.438
			s1.562,7.438,1.125,11s-0.75,6.75-1.875,8.062s-1.5,1.75-3.375,1.75s-5.25-1.875-7.188-2.125s-6.188-2.125-7.688-3.812
			s-1.375-2.5-1.438-2.875S317.25,253.312,317.281,252.312z"/>
		<path fill="#009245" d="M313.729,253.938c0,0-1.104-1.062-3.354,0s-5.375,3.125-7.312,4.688s-6.312,4-7.75,4.625
			s-2.75,1.188-3.562,2.875s-0.812,6.625-0.812,8.125s0.125,4.375,1.312,6.438s1.438,4.375,3.125,4.438s4.25-1.438,5.75-2.312
			s4.375-1.438,5.938-2.438s4.375-2.375,5.5-3.125s1.562-1.188,1.75-2.25S314.083,256,313.729,253.938z"/>
		<path fill="#009245" d="M319.875,281.688c0,0,4.562,0.812,6.75,2.125s4.312,1.875,6.062,1.938s3.688-0.25,4.938,1.312
			s1.125,2.688,1.375,4.062s0.758,11.375,0.754,13.188s0.184,4.312-0.566,4.812s-4.062,0.375-6.312,0s-5.062-1.5-6.688-1.25
			s-4.125,0.5-5.688-0.5s-1.875-2.375-2.562-4.062s0-20.312,0-20.312S317.875,282.125,319.875,281.688z"/>
		<path fill="#009245" d="M310.375,283c0,0-4.062,0.688-6.125,2.75s-4.25,1.688-5.375,2.188s-3.562,2.375-4.688,5
			s-1.25,7.688-0.562,11.125s2.438,6.312,3.25,6.812s2.812,0.312,4.438,0s6.75-2.812,8.375-3.625s2.438-0.75,3.125-1.312
			s0.562-2,0.562-2.75s1.218-16.688,0.984-17.5c-0.234-0.812-1.297-2.438-2.484-2.688S310.375,283,310.375,283z"/>
		<path fill="#009245" d="M322.188,312.438c0,0,5.125-1.375,7.5-0.562s6.188,2.688,7.312,2.75s1.5,1.312,1.938,2.312
			s1.125,7.375,1.75,8.938s0.75,11.75,0.5,17s-2.062,11.312-2.562,13.875s-1.062,7.688-2.562,12.812s-3.875,11.562-4.875,12.375
			s-8.5,3-9.562,2.312s-1.625-14.938-1.688-16.625s-0.875-18.812-1-21.312s-0.312-25.375,0-27.938s0.5-2.5,1.25-3.188
			S321.188,313.625,322.188,312.438z"/>
		<path fill="#009245" d="M311.438,314.125c0,0-0.312-1.625-1.688-1.875s-3.75,1.125-5.062,1.875s-5,1.5-6.188,1.688
			s-1.25,1.312-2.688,2.938s-1.688,1.5-1.625,3.188s0,8.062,0.375,10.875s1.125,10.312,1.25,14.312s3.625,16,4.688,18
			s4.25,8.25,5.438,11.25s1.188,5.062,2.062,5.938s6.496,2.812,8.342,2.688s1.346-0.5,1.408-1.812s0-15.938-0.312-20.188
			s-0.941-27.562-1.096-30.75s-0.404-13.375-0.717-14.812s-2.125-2.188-2.75-2.5S311.125,314.062,311.438,314.125z"/>
		<path fill="#009245" d="M316.791,307.958c0,0-3.25,0.417-3.041,2.542c0.208,2.125,1.125,3.083,1.958,3.375s2.534-0.167,3.059-1
			s0.608-1.125,0.566-2.375s-0.626-1.583-1.208-1.958C317.541,308.167,317.666,308.125,316.791,307.958z"/>
		<path fill="#009245" d="M375.991,190.036c0,0,0.036,8.18,0.427,10.774c0.39,2.595,0.522,3.35,0.522,3.35s-0.56,23.589,0,29.672
			s-2.522,31.166-3.606,36.833s-5.25,17.584-4.917,21.584s2.833,12.91,5.999,17.205c3.167,4.295,4.168,10.462,4.25,14.712
			c0.084,4.25,0.001,8.582-3.249,12.666s-7.917,10.333-9.833,12.5c-1.917,2.167-4.75,4.25-7.5,3.667s-4.168-2.084-6.584-7.167
			s-4.584-16.75-4.916-21.333c-0.334-4.583,0.332-21.25,0-23.417c-0.333-2.167,0.417-20.416,0.417-22.749s0.083-17.208,0.083-20.271
			s-0.083-5.812,1-7.562c1.084-1.75,2.291-3.063,3.479-3.813s5.759-4.954,7.436-5.523s3.764-1.585,4.779-2.164
			s4.21-2.548,5.523-3.813c1.312-1.265,3.043-2.755,3.681-4.035s1.972-5.339,1.961-8.652s-0.544-11.364-1.181-15.057
			s-0.285-10.846,0.008-12.051S375.991,190.036,375.991,190.036z"/>
		<path fill="#009245" d="M279.408,249.67c0,0,4.262,4.167,4.928,10.167c0.667,6,0.667,8.429,0.667,13.964s1.833,14.369,2,18.536
			s0.333,13.748,1,18.624s0.167,16.543,0,23.209s-0.667,12-2.001,15.167s-5,8.832-7.334,7.999c-2.332-0.833-7.332-6.114-9.832-8.724
			s-9.834-12.442-9.5-19.109c0.332-6.667,4.833-15,6.166-23s2.333-13.333,1.166-20c-1.166-6.667-7.02-17.5-7.344-21.667
			c-0.322-4.167-1.156-19.969-0.99-23.651c0.168-3.682,0.475-6.288,0.475-6.288s2.881,3.338,5.42,4.64
			c2.541,1.301,6.006,2.996,6.858,3.497S278.547,248.703,279.408,249.67z"/>
	</g>
	<g>
		<path fill="#FF7BAC" d="M267.625,353.099c0,0,1.375-0.349,2.375,2.901s-0.125,6,1.25,9.875s12.25,31.875,13.5,35.625
			s7.625,25.25,9.5,31.625s6.75,28.5,7.5,37.625s0.25,39.5,0,44.25c-0.158,3.007-0.566,10.32-0.94,16.425
			c-0.116,1.894,0.052,4.933-3.753,5.298s-3.104-0.743-3.463-5.818c-0.109-1.559-0.122-3.302-0.008-5.239
			c0.917-15.499,0.964-43.664,0.773-47.664c-0.189-4-3.109-24.187-5.859-33.906s-9-26.47-12.25-37.595s-7.375-28-7.875-33.75
			s-0.812-6.812-1-10.125s-1.5-5.062-1.625-6.438S265.75,353.447,267.625,353.099z"/>
		<path fill="#FF7BAC" d="M315,408.501c0,0-0.5,19.336-0.334,22.586c0.167,3.25,0.584,19.918-0.832,27.418
			c-1.418,7.5-5.834,25-6.75,28.584c-0.918,3.584-3.001,7.667-3.418,10.167c-0.416,2.5-1.649,6.919-1.649,6.919
			s0.117-10.918,0.122-12.252s-0.096-14.929-0.149-16.425s-2.131-17.381-2.55-19.514s-1.021-5.097-1.021-5.097
			s-3.283-14.689-3.905-16.835s-3.089-10.479-3.089-10.479S295.625,412,297,409.375s5.549-8.875,6.212-9.875
			s1.163-1.625,1.163-1.625l2.592-2.848c0,0,2.943,3.68,3.508,4.49s1.939,2.912,2.69,4.405s1.835,3.408,1.835,3.408V408.501z"/>
		<path fill="#FF7BAC" d="M306.967,395.027c0,0-2.488,2.689-2.835,3.165s-1.751,2.561-2.085,3.068s-1.746,2.673-2.137,3.289
			c-0.393,0.616-2.297,3.663-2.696,4.431s-1.64,3.623-2.213,5.096s-1.349,3.489-1.749,4.558s-1.828,4.939-1.828,4.939l-3.265-10.939
			c0,0-2.188-7.247-2.563-8.457s-3.299-9.311-3.913-10.925s-4.419-11.558-5.738-15.004s-4.257-10.823-4.694-12.373
			s-0.742-3.559-0.765-5.125s0.077-2.437,0.765-3.062s1.34,0.125,2.076,0.625s2.424,2.188,3.736,3.625s7.25,7.688,9.062,9.625
			s4.74,6.427,5.655,7.584s5.033,5.037,6.712,6.736c1.678,1.7,4.1,4.209,5.142,5.359S306.967,395.027,306.967,395.027z"/>
		<path fill="#FF7BAC" d="M259.166,339c0,0,3.084,4.917,3.918,9c0.833,4.083,0.916,15.5,1,16.75c0.083,1.25,0.75,3.758,2.416,4.75
			s1.896,3.63,2.002,4.39s0.503,5.193,0,9.193c-0.502,4-2.918,13.583-5.001,17.917s-5.75,12.833-7.25,17.833
			s-3.833,12.084-4.5,15.667s-2.333,12.251-2.417,13.334c-0.083,1.083-0.083,1.083-0.083,1.083s-0.666-12.917-0.583-15.5
			s0.25-14.999,0.583-18.333s3.083-19.584,4-23.167s5.333-21.667,6.167-25.917c0.833-4.25,0.332-16.751,0.082-19.501
			S259.166,339,259.166,339z"/>
		<path fill="#FF7BAC" d="M265.715,543.335c0,0,2.785-4,4.785-3.833s5.5,0,6.666,1c1.168,1,0.668,0.914,0.668,0.914
			s-2.667-12.914-2.5-18.414c0.166-5.5,0.166-20.667,0.666-24.5s6.168-28.001,8-36.334c1.834-8.333,4.078-19.523,4.078-19.523
			s-6.463-19.604-6.699-20.301s-5.754-17.976-6.284-19.907s-2.546-9.457-3.487-13.464c-0.941-4.006-2.855-13.411-2.855-13.411
			s0.043,7.213-0.926,11.287s-2.642,10.502-4.325,14.151s-5.032,11.602-5.239,12.138s-0.437,1.14-0.437,1.14
			s-2.074,20.64-2.157,26.973c-0.084,6.333-0.084,21.166,0.416,27.166s1.328,23.915,2.622,30.749s4.294,13.916,5.544,20.916
			s1.833,15,1.833,18S265.715,543.335,265.715,543.335z"/>
		<path fill="#FF7BAC" d="M288.078,442.645c0,0-3.418,16.528-3.886,18.647s-3.602,15.922-3.602,15.922s-1.613,7.099-2.196,9.734
			s-1.832,8.263-2.113,9.908s-0.58,5.644-0.65,8.891c-0.069,3.247-0.134,7.254-0.166,9.629s-0.116,5.933-0.123,7.342
			s0.361,6.258,0.721,8.6s1.745,9.972,1.745,9.972s1.911,2.242,2.442,2.43s7.719-6.812,8.938-8.25s4.061-4.649,4.127-5.62
			c0.068-0.971,0.65-12.537,0.65-12.537s0.256-9.248,0.276-10.248s0.171-11.814,0.179-12.97s0.033-15.025-0.07-16.281
			c-0.104-1.256-0.84-7.242-1.031-8.563c-0.193-1.321-1.262-8.097-1.447-9.16c-0.184-1.063-1.794-9.506-2.082-10.778
			S288.72,444.82,288.078,442.645z"/>
		<path fill="#FF7BAC" d="M257.825,414.277c0,0-3.362,10.37-3.663,11.359s-1.739,5.671-2.115,7.484
			c-0.377,1.813-0.689,3.461-1.178,6.065c-0.486,2.604-0.951,5.079-1.162,6.306s-0.455,2.842-0.456,3.425
			s-1.167,13.833-1.167,18.583s0.916,18.583,2.249,27.249s2.837,16.666,5.293,21.916s5.038,10.916,6.706,14.832
			c1.666,3.916,3.383,8.583,3.383,8.583l0.274,0.674c0,0,0.097-1.379,0.092-2.316s-0.185-5.534-0.366-7.219
			c-0.181-1.685-0.661-6.154-0.984-8.189c-0.322-2.035-0.998-5.72-1.611-7.911c-0.615-2.191-2.537-8.49-2.98-10.091
			s-1.658-6.905-1.881-8.782c-0.225-1.877-0.764-7.406-0.94-9.779s-0.444-6.212-0.68-9.871s-0.677-9.128-0.771-12.001
			s-0.25-6.75-0.241-9.625s-0.022-6.031,0-9s0.038-6.024,0.21-8.589s0.589-7.975,0.778-10.128s0.456-5.132,0.634-7.002
			s0.45-4.689,0.45-4.689L257.825,414.277z"/>
		<path fill="#FF7BAC" d="M370.834,348.613c0,0-0.584,3.762-1.334,5.637s-1.75,9.375-2.5,12.125s-5.5,20.375-7.5,25
			S354,411,351.75,417s-6.75,20-8.375,24.5s-5.625,17-7,22S333,476.25,332,482.125s-2,15.875-2.375,19.625s-1.25,9.125-1.375,17.125
			s0,11,0,11s3.25-5.875,4-3.125s-0.25-2.75-0.375-6.625S333,506,333.5,501s1.625-12.875,2.75-18.125s6-16,8.25-22
			s7.625-18.262,9.375-21.631s7.5-19.619,9.25-25.494s5.625-19.25,6.375-26.5s2.625-23.25,3.125-26.625s0.75-7.5,0.75-9.375
			s0.688-4.938-1.188-4.938S370.834,348.613,370.834,348.613z"/>
		<path fill="#FF7BAC" d="M326.887,407.977c0,0-1.469,19.862-1.635,23.945c-0.167,4.083,0.303,24.582,0.817,32.749
			s1.265,16.583,1.765,23.333s1.52,16.171,1.52,16.171s1.297-12.516,1.785-16.103c0.49-3.587,1.932-11.675,2.901-15.559
			s4.135-15.145,5.126-18.261s5.855-17.548,7.504-22.471s6.137-17.927,6.137-17.927s-2.556-1.852-4.723-6.768
			s-3.417-8.249-3.584-9.916c-0.166-1.667-2.082-8.084-2.499-9.584s-0.692-2.043-0.692-2.043s-3.619,4.186-4.54,5.294
			s-2.403,2.855-3.438,4.188c-1.034,1.333-2.166,3.058-2.768,4.3s-1.469,3.133-2.058,4.597S326.957,407.021,326.887,407.977z"/>
		<path fill="#FF7BAC" d="M370.834,348.613c0,0-3.334,4.368-5.75,8.837s-4,6.72-7.084,10.553c-3.082,3.833-7.582,8.871-9.666,11.144
			s-6.48,5.983-6.666,6.398c-0.188,0.415-0.359,0-0.359,0s2.146,7.056,2.538,8.644s0.991,4.757,1.431,5.975s2.062,5.38,2.807,6.925
			s2.746,4.938,3.734,5.853s0.988,0.915,0.988,0.915s1.87-6.419,2.441-8.482s1.669-6.693,2.961-10.346
			c1.291-3.652,3.168-8.891,4.134-12.163s3.008-10.441,3.833-13.465c0.824-3.024,1.527-6.423,2.025-9.14s1.025-4.738,1.543-6.704
			C370.264,351.59,370.896,349.134,370.834,348.613z"/>
		<path fill="#FF7BAC" d="M373.35,352.499c0,0-0.127,2.757-0.274,4.247s-0.618,5.022-0.864,7c-0.245,1.978-0.584,4.736-0.889,7.333
			s-0.716,6.115-0.996,8.618c-0.281,2.503-0.599,6.183-0.912,8.304s-1.858,9.656-2.531,12.252
			c-0.674,2.596-2.643,9.975-3.758,13.498s-3.447,10.49-4.846,14.301c-1.399,3.811-4.553,11.314-6.037,14.599
			c-1.485,3.284-2.658,6.434-2.658,7.684s-0.918,10.168-0.834,14.584s-0.261,9.834-0.006,15.25
			c0.256,5.416,0.839,12.249,0.922,14.916c0.084,2.667-0.166,4.001-0.083,7.667s0,7.916-0.5,9.416s-1.5,2.834-1.917,5.084
			c-0.416,2.25-0.749,2.833-0.666,4.583s0,2.834,0.333,4.417s0.581,2.829,0.581,2.829s7.25-1.5,9.417,1.417s0.417-6.083,0.417-6.083
			s0-3.5,0.583-5.667s1.499-4.75,1.667-7c0.166-2.25,0.166-4.667,1-6.25c0.833-1.583,2.416-6.749,3.416-9.583
			s6.583-15.332,7.666-19.916c1.084-4.584,3.668-16.498,4.168-21.832s3.083-16.333,3.333-22s1.751-20.249,1.833-25.083
			c0.084-4.834,0-5.668,0-5.668s-1.377-5.166-2.23-8.833s-2.52-9.916-2.854-14.083c-0.332-4.167-1.166-7-1.25-11.25
			C374.498,362.998,373.35,352.499,373.35,352.499z"/>
		<path fill="#FF7BAC" d="M350.846,445.944c0,0-4.705,10.661-5.736,13.348s-2.906,7.302-4.107,10.273s-2.144,5.021-3.191,8.183
			c-1.047,3.162-1.705,5.346-2.323,9.066s-1.22,7.361-1.604,10.773s-0.851,7.688-1.144,10.576s-0.686,6.859-0.77,8.598
			c-0.086,1.738-0.039,4.479-0.039,4.479s2.73,3.09,3.98,4.09s4.524,3.834,5.471,5.167s1.113,1.75,2.029,2.333
			c0.917,0.583,1.167-0.673,1.917-1.753s2.085-1.999,2.085-1.999s-1.012-4.414-0.927-6.665s0.405-4.321,0.771-5.58
			s1.58-3.511,1.825-4.668s0.446-2.423,0.485-4.338s0.037-5.76,0.062-9.418s-0.167-6.842-0.405-10.416
			c-0.239-3.574-0.547-6.167-0.556-10.165s0.081-5.495,0.088-10.164s0.093-7.522,0.356-10.919c0.263-3.396,0.281-4.655,0.459-6.085
			C349.751,449.231,350.846,445.944,350.846,445.944z"/>
		<path fill="#FF7BAC" d="M380.914,401.414c0,0,3.082,7.832,3.582,11.666s1,7.001,1.416,11.834s0.417,7.5,0.834,12.75
			c0.416,5.25,0.582,6.916,0.582,9.583s-0.499,7.917-0.999,12.25s-0.583,11.334-1.083,14.25s-3.834,17.834-5.334,22.417
			s-3,7.666-4.834,10.416c-1.832,2.75-5.833,10.082-7.583,13.665s-4.333,6.583-5.583,9.083s-2.917,4.417-2.917,4.417
			s-1.106-2.646-1.333-2.667s0.283-1.088,0.241-1.75s-0.16-1.921-0.3-2.805c-0.139-0.884-0.539-3.09-0.186-5.314
			s1.053-4.352,1.469-6.183s0.561-3.935,0.773-5.733s0.234-2.709,1.308-4.854s1.493-4.214,1.966-5.626
			c0.471-1.412,2.232-6.038,3.127-8.196c0.896-2.158,2.394-5.674,3.416-8.417s1.83-4.833,2.654-8.595s1.451-6.604,1.995-9.471
			s1.298-7.297,1.604-9.802c0.308-2.505,0.941-6.396,1.363-8.745c0.424-2.349,1.268-6.377,1.611-9.604
			c0.343-3.228,0.646-8.148,0.839-10.482s0.521-6.152,0.733-8.787c0.212-2.635,0.543-5.998,0.601-8.502s0.083-4.839,0.069-5.588
			C380.935,401.874,380.914,401.414,380.914,401.414z"/>
		<path fill="#FF7BAC" d="M379.812,334.625c0,0-0.875,2.688-2.125,4.75s-2,3.5-2.938,4.688s-1.721,2.589-1.721,2.589
			s0.188,4.6,0.32,5.847s0.541,5.221,0.69,6.924s0.421,5.991,0.549,8.138s1.12,8.711,1.391,12.326s2.046,9.972,2.704,12.695
			s2.002,7.852,3.284,11.658s2.792,7.469,3.553,16.744s1.223,16.637,1.387,18.701s0.452,6.248,0.421,7.562
			c-0.03,1.314-0.869,9.854-1.131,13.55s-0.514,8.21-0.55,8.767s-0.135,1.87-0.135,1.87s2.05-9.684,2.425-11.996
			s1.312-7.625,2-11.25s1.625-9.312,2-13.188s1.75-14.5,1.812-20.875S393.438,395.5,393,390s-2.25-20.312-4.188-26.5
			s-5.5-16.125-6.375-19.875S380.188,335.375,379.812,334.625z"/>
		<path fill="#FF7BAC" d="M369.693,515.979c0,0-1.568,9.396-1.943,13.896s-1.25,8.125-2.25,12.5s-2.25,9-3.5,13.5
			s-4.125,11.125-5.875,15.25S350.75,586.75,349,592.75s-3.5,14.25-4.875,22.625s-4.25,18.375-4.75,23.125s-5.875,26.25-8,33.5
			s-5.75,19.625-6.75,23.5s-4,14.625-5.375,18s-2.066,7.75-2.908,11.75s-1.93,10.694-2.092,12.125s-0.162,1.431-0.162,1.431
			s1.975,0.944,2.787,0.757s-0.062-1.312,0-3.5s0.5-6.938,0.812-9.688s1.562-7.438,2.188-9.438s2.625-6.812,3.5-8.938
			s3.562-9.312,4.562-12.062s3.438-11.438,4.188-13.75s4.875-13.438,6.312-17.062s4.875-12.438,6.375-15.438
			S353,627.166,355.167,620s5.167-18.166,6.333-25.166c1.167-7,3-21.334,3-27.667s2.166-17.333,3.5-22.666s4.104-14.5,4.303-18
			c0.197-3.5,1.864-11.834,3.197-15.667c1.334-3.833,2.926-10.612,2.926-10.612s-1.953,4.108-3.348,6.358
			c-1.393,2.25-3.625,6.147-4.284,7.362S369.693,515.979,369.693,515.979z"/>
		<path fill="#FF7BAC" d="M366,556v1c0,0,0.414,12.421,0.497,17.337s0.583,12.5,0,18.25s-2.833,16.832-4.417,21.249
			c-1.583,4.417-4.916,15.667-7,20.917c-2.083,5.25-4.332,11.999-5.5,16.416c-1.166,4.417-4,15.082-5.75,21.082
			s-4.75,13.251-6,18.917s-2.333,9.582-2.083,14.416s2.25,9.584,3.417,12.167c1.166,2.583,2.166,5.416,3.666,8.416
			s2.938,6.334,3.428,7.334c0.488,1,1.247,2.332,1.247,2.332s-2.146,2.049-2.618,1.441s-2.307-4.773-2.307-4.773
			s-5.334-12.833-5.334-13.25s1.251,7,1.918,9.333c0.666,2.333,4,8.803,4,8.803s-2.508,1.474-3.379,0.752s-2.039-7.055-2.039-7.055
			s-1-2.751-1.5-5.667s-1.582-6.666-1.916-8.083s-0.916-3.667-0.916-3.667s-0.918-0.916-1.084,0.084s0.146,6.166,0.365,8.333
			s0.719,7.001,1.219,9.167s1.166,6,1.332,6.5c0.168,0.5,0.266,0.906,0.266,0.906s-1.746,0.978-2.816,0.316
			s-0.883-4.286-0.945-5.349s-0.625-7.188-0.812-8.75s-0.438-5.688-0.438-6.188s-0.406-3.875-0.594-4.312S329,713.5,329,714.188
			s0,5.812,0,5.812s0.438,5.375,0.438,7.062s0.25,5.562,0.312,6.938s0.365,4.275,0.438,4.75s0.072,0.475,0.072,0.475
			s-3.242,0.574-4.095,0.362s0.04-4.962,0-5.587s0.022-8.75,0.022-11.062s1.688-12.625,2.125-16.125s1.812-5.438,2.75-9.688
			s4-15.25,4.938-19.5s3.035-14.011,3.035-14.011s2.621-6.713,3.86-9.596s4.716-11.46,6.303-16.056s4.325-12.578,5.439-16.252
			s3.608-12.447,4.339-15.404c0.731-2.957,2.182-9.021,2.785-13.098s1.539-10.834,1.912-14.579c0.375-3.745,0.58-9.761,0.88-13.314
			S365.688,557,366,556z"/>
		<path fill="#FF7BAC" d="M320.125,739.793c0,0,0.25-7.752,0.562-12.127s0.906-7.778,1.531-10.384s1.328-6.194,2.328-9.319
			s1.619-7.244,2.032-8.355c0,0,1.006-2.49,1.663-4.561s1.626-5.277,2.2-7.229s3.272-10.147,4.387-13.145s4.206-11.058,4.206-11.058
			s-0.948,4.404-1.295,6.008s-1.121,5.406-1.74,8.002s-1.171,4.791-1.742,6.973c-0.57,2.182-1.504,5.683-2.123,8.139
			c-0.617,2.456-1.516,7.262-2.7,9.7s-2.407,7.188-3.64,11.626s-2.107,9.688-2.17,12.438s-0.438,5.062-0.375,6.812
			s-0.25,5.062-0.25,5.438s0,1.25,0,1.25S321.312,740.461,320.125,739.793z"/>
		<path fill="#FF7BAC" d="M368.485,543.147c0,0-0.921,7.009-0.094,10.759s1.905,7.922,3.28,15.172s1.723,10.898,1.85,17.898
			s1.611,12.262-0.012,19.762s-3.269,13.506-5.574,18.756c-2.305,5.25-6.183,14.003-8.933,20.003s-4.751,11.731-7.501,18.116
			s-5.126,13.511-6.876,18.636s-2.063,6.626-2.938,10.751S341,697.125,341,697.125V698c0,0,1.117-5.417-1.25-5.125
			s-2.776,2.119-2.783,2.146c-0.006,0.026,0.703-3.698,1.484-6.319c0.782-2.621,2.293-6.953,3.662-11.123s1.506-4.453,2.709-8.808
			c1.205-4.354,2.107-7.619,3.434-12.61c1.324-4.991,2.078-7.973,3.33-11.673s3.23-8.548,4.973-13.8
			c1.741-5.252,4.836-13.269,6.332-19.468c1.498-6.199,2.873-10.693,3.358-16.578s0.831-10.56,0.526-16.059
			c-0.303-5.499-1.149-10.332-0.941-15.333c0.207-5.001-0.233-6.927-0.061-7.927S368.485,543.147,368.485,543.147z"/>
		<path fill="#FF7BAC" d="M336.167,570.999c0,0,2.767,16.666,0.8,29.5s-1.633,23.834-2.8,30.167s-1.833,14.666-2.5,22.833
			s-5.744,24.166-5.872,26.5s-0.92,5.001-0.92,5.001s0.25-9.5,0-16s1.625-14.25,2-18.375s1-7.125,0.375-11.25
			s-1.16-15.625-1.455-17.625S326,607.375,327,600s2.75-11.25,3.5-14.75s3.5-8.125,4.125-10.75S336.167,570.999,336.167,570.999z"/>
		<path fill="#FF7BAC" d="M297.167,559.165c0,0,1.999,8.834,7.167,14.167c5.166,5.333,10,17.999,11,27.333s0.5,20.503,0,27.335
			s0.516,13.165,1.008,20.665s1.492,16.167,2.325,21.667s2.499,12.669,2.667,14.668c0.166,1.999,0,3.665,0,3.665
			s-4.484-10.5-4.992-13.333s-2.842-9.499-4.508-18.333c-1.667-8.834-4.334-20.166-6.167-27.5s-3.999-13.666-5.167-23
			c-1.166-9.334-2.5-16.834-3.333-23.834s-1.167-12-1-16S297.167,559.165,297.167,559.165z"/>
		<path fill="#FF7BAC" d="M266.081,566.33c0,0,7.919,9.334,11.087,15.167c3.166,5.833,6.154,11.5,10.91,22.333
			s6.506,19.334,8.047,23.167c1.543,3.833,4.876,12.999,6.876,19.166s4.531,14.333,5.766,19s5.401,14.666,6.901,18
			s3.333,11.667,3.333,11.667s-1.985,3.833-2.659,4s-1.508-6.412-1.758-7.829s-5.084-11.916-7.084-16.333
			s-4.666-11.833-6.583-15.083s-8.916-19.417-11.583-24.417c-2.666-5-9.082-18.75-10.749-24.25s-3.499-11.833-5.583-19.083
			s-2-9.501-4-13.834S266.081,566.33,266.081,566.33z"/>
		<path fill="#FF7BAC" d="M266.889,570.999c0,0-0.895,8.164-0.808,12.831s3.087,18.334,4.92,22.834s6.333,18.666,9.333,23.333
			s9.914,18.833,12.207,23.833s6.709,18.045,7.584,20.67s3.25,8.75,3.375,12.25s0.625,5.25,0,7.5s-3,5.395-4.5,7.635
			s-5.629,7.49-7.252,9.24s-3.373,3.75-3.873,4.75s-1.266,1.938-1.266,1.938s0.695,0.636,0.92,1.004
			c0.223,0.368,2.221-1.565,2.471-2.065s0.998-2.333,2.541-3.833c0.452-0.439,0.771-0.75,0.998-0.97
			c0.545-0.53,0.545-0.53,0.545-0.53s0,0.249-0.75,1.583s-0.422,0.833-1.586,2.5s-1.582,2.225-2.164,3.362
			c-0.584,1.138-1.201,2.187-1.201,2.187s0.453,2.614,1.16,2.491s2.036-1.956,2.205-2.623s3.168-5.916,3.836-7.083
			c0.543-0.951,3.525-5.671,4.924-8.104c0.316-0.551,0.552-0.984,0.659-1.23c0.097-0.222,0.211-0.443,0.333-0.657
			c0.607-1.068,1.417-1.959,1.417-1.959s0.667-0.218,0.333,0.366c-0.333,0.584-2.334,3.916-3.416,5.75
			c-1.084,1.834-2.084,4.001-3.709,6.584s-2.541,4.499-3.208,5.916s-1.042,2.194-1.169,3.044s0.828,1.47,1.332,0.963
			s1.42-2.59,2.17-4.09s1.834-3.583,2.834-6s3.25-7.001,3.833-7.667s2-3.334,2.75-4.5s1.417-3.586,2.083-4.251
			c0.667-0.665,0.584-2.081,1.167-1.665s0.866,0.914,0.85,1.665s-0.433,3.352-0.433,3.885s-0.5,1.2-1.584,2.7
			c-1.083,1.5-4.166,6.166-4.833,7.583s-1.583,2.999-2.333,4.583s-1.834,3.75-2.334,5.25s-1.844,1.77-1.125,2.084
			c0.721,0.314,1.715,0.879,2.295,0.272s1.164-2.439,1.747-3.689s1.667-3.583,2.75-5.25s2.5-4.499,3.5-6.083
			s1.366-3.334,2.351-3.917c0.982-0.583,2.027-2.417,2.027-2.417s0.455-6.166,0.539-9.333c0.083-3.167-0.207-7.033-0.539-9.75
			c-0.331-2.717-1.229-4.704-1.229-4.704s-3.251-7.339-4.741-10.942s-6.379-13.609-8.324-17.854
			c-1.943-4.244-6.538-13.816-8.491-17.836s-6.67-13.536-8.351-18.608s-3.621-11.602-5.139-16.87s-2.715-10.93-3.807-14.298
			s-2.025-5.193-2.584-7.068C267.568,573.862,266.889,570.999,266.889,570.999z"/>
		<path fill="#FF7BAC" d="M302.945,724.69c0,0,2.275,0.678,2.59,0.837s0.882-1.107,1.382-2.274s2.25-4.083,2.917-6.75
			c0.666-2.667,2.666-8.75,3.666-10.167s1.167-4.666,1.334-6.583c0.166-1.917,0.035-7.85-0.25-8.752s-2.796-6.849-3.408-8.215
			c-0.613-1.366-1.029-1.944-1.029-1.944s1.268,5.4,1.201,7.161s0.205,6.098,0,7.916s-0.291,4.85-0.422,5.966
			s-0.009,3.284-1.092,6.784c-1.084,3.5-1.834,6.789-2.584,8.562s-2.167,4.522-2.75,5.272S302.391,724.045,302.945,724.69z"/>
	</g>
	<g>
		<path fill="#00FF00" d="M316.342,18.332c0,0,8.66,0.5,11.826,1.833c3.167,1.333,6.167,3,9.5,5.833
			c3.334,2.833,3.668,3.334,4.834,5.167s3.166,5.167,4.166,8s1.334,6.5,1.167,10.167s0.333,6.333-0.667,10s-0.332,2.833-0.166,4
			s3-0.667,3.833,1.167s0.667,2,0.667,4.5s-1,5-1.834,6.833c-0.833,1.833-2.332,3.333-2.166,4.833s0.5,3.333-0.167,4.667
			s-3.166,2.333-3.833,2.667s-0.833,6.334-2,9.167s-1.5,5-3.834,8.5c-2.333,3.5-5,5.667-7,7.167s-3.5,2.667-4.5,3.167
			s-10.333,0.667-12.5,0c-2.166-0.667-7-2.167-7.833-2.667s-7.167-5.167-9.167-8.167s-5.5-6.333-5.333-7s-2.333-9.167-2.167-9.667
			c0.167-0.5-3.999-0.167-4.666-0.667s-0.334-4.167-2.334-6s-4.5-9.167-4.5-10s-0.833-5,0-6.833
			c0.834-1.833,3.667-2.333,4.667-1.667s0.414-0.082,0.414-0.082s-1.167-13.5-0.083-19.25c1.083-5.75,0.833-6.166,2.333-8.999
			s5.917-8.5,11.333-11.25c5.417-2.75,12.25-5.005,16.167-5.419S316.342,18.332,316.342,18.332z"/>
		<path fill="#00FF00" d="M423.25,140.999c0,0-3.416,0.333-4.334,1.708c-0.916,1.375-2.957,3.5-3.875,4.833
			c-0.916,1.333-5.166,8.166-6,9.458c-0.833,1.292-1.25,5.333-0.25,7.208s7,7.042,7.625,7.542s4.791,3.542,4.791,3.542
			s1.959,1.625,0.668,2.292c-1.293,0.667-2.5-0.125-4.375-1.375s-9.459-7.666-10.418-9.208c0,0-2.166-1.333-2.582-2
			c-0.418-0.667-1.459-1.708-1.75-2.125c-0.293-0.417-3.168-0.583-3.668-1.333s-2.166-1.674-2.416-2.129s-7.125-2.163-9.125-3.58
			s-3.208-1.583-4.416-2.583c-1.209-1-2.792-2.583-2.75-3.333c0.041-0.75,0.832-1.167,1.457-1.042s3.293,0.667,4.293,1.167
			s2.791,0.875,3.707,1.125c0.918,0.25,2.792,0.25,3.625,0.833c0.834,0.583,1.834,0.625,2.709,0.875s2.916,1.209,3.458,1.417
			s1.458,0.458,2.188,0.958s0.771,0.667,1.354,0.667s0.625,0.208,0.5-0.375s-0.25-1-1.042-1.125s-3.833-1-4.667-1.5
			c-0.833-0.5-1.916-0.833-2.666-1s-3.084-0.542-4.167-0.792s-4.208-0.958-4.833-1.292s-3.25-1.083-4.084-1.208
			c-0.833-0.125-1.5,0.042-2.5-0.25s-2.041-1-2.5-2.75c-0.458-1.75,0.209-1.625,0.5-1.667c0.292-0.042,1.293-0.25,1.959-0.208
			s1.209,0.125,2.5,0.583s2.041,0.417,3.666,0.708s3.209,0.375,4.667,0.542s2.459,0.458,3.417,0.708s1.958,0.333,3.958,0.792
			s2.25,0.125,4.208,1.042c1.959,0.917,2.917,1.417,3.542,1.583s1.626,0.625,1.917,0.333s-0.375-0.459-0.75-0.792
			s-2.709-0.916-3.584-1.208s-4.832-1.292-5.666-1.625s-2.541-0.667-3.5-0.708s-4.417-0.542-6.209-0.833
			c-1.791-0.292-3.666-0.417-5-0.792c-1.333-0.375-3.582-0.917-4.041-1.167s-1.541-1.292-1.5-2.25s0.25-1.75,1.458-1.708
			s3.208,0.167,5.625,0.417s5.751,0.333,7.042,0.375s2.917-0.083,4.5,0.375c1.488,0.431,3.271-0.133,4.589,0.25
			c0.083,0.024,0.165,0.052,0.244,0.084c1.333,0.542,3.959,1.337,6.792,2.668s3.208,1.498,3.583,1.582s1.958,0.292,2.083-0.208
			s-0.041-0.583-0.708-0.917s-2.417-1.083-3.292-1.083s-3.208-0.666-4.375-1.083c-1.166-0.417-3.25-1.042-3.25-1.042
			s-0.999-0.333-2.041-0.333s-3.959-0.542-4.917-0.542s-5.083-0.167-6.5-0.292s-2.583-0.25-3.583-0.708s-1.042-1.75-0.792-2.458
			s2.667-0.917,5.25-1.417s7.417-2.001,9.501-1.792c2.083,0.208,4.916,0,7.291,0.5s2.208,0,3.125,0.375s2.209,1.958,4.667,3
			s3.124,1.584,4.333,1.792s2.542-0.958,3.917-0.208s1.5,0.958,1.792,1.583c0.291,0.625,0.666,0.958,0.25,1.042
			C423.458,140.999,423.25,140.999,423.25,140.999z"/>
		<path fill="#00FF00" d="M227.812,396.312c0,0,0.688,4.5,0.5,6.5S227.314,407,228.345,410s1.343,1.75,1.468,2.625
			s0,5.438,0.312,7.062s0.812,2.5,0.562,4.062s-0.938,2.312-2.062,2.562s-3.188-0.875-3.938-1.625s-3.375-4.125-3.625-6.375
			s1.125-5.562,0.625-7.375s-1.875-5.188-2.438-5.312s-0.375,0.25-0.375,0.25s1,2.062-1.188,4S215,411.75,215,411.75
			s-0.125,3.188-0.75,4.438s-0.062,1.75,0,3.812s1.188,6.625,1,7.875s2.688,3.312,3.188,4.812s4.312,3.938,4.625,5.75
			s0.562,3.062,0.25,4.25s-0.412,1.062-0.956,1.375s-3.606-1.75-4.481-2.938s-6.188-4.938-6.812-6.25
			c-0.099-0.208-0.249-0.44-0.434-0.691c-0.982-1.335-2.928-3.19-3.191-4.559c-0.312-1.625,0.25-3.375,0-4.812
			s-1.5-6.812-2.812-9.188s-2-2.25-1.938-3s1.562,2.812,2.188,5.062s1.75,4.312,1.75,6.5s0.062,3.5,0.375,5.125
			s1.062,2.188,1.938,3.375s-2.438-0.438-4-1.375s-3.938-2.5-4.125-4c-0.18-1.434-1.1-5.605-1.563-8.319
			c-0.021-0.126-0.042-0.249-0.062-0.368c-0.438-2.688-0.562-2.75-1.625-4.375s-1.312-1.875-1.688-2.438s1.062,1.875,1.812,3.375
			s0.875,2.375,0.938,3s0.375,0.812,0.5,2.5s0.562,2.25,0.625,2.875s-2.312-2.031-2.562-3.359s-2.75-4.891-3.688-6.641
			s-1.25-1.75-2.125-3.125S189.688,408,189.75,406s-0.319-2.875-0.004-3.438c0.316-0.562,0.504-1.188,0.879-0.375s0.312,2.25,2,3.5
			s3.875,1.875,7.312,2.125s6.875,0.438,9.688-0.375s4.625-2.75,7.562-4.25s2.5-1.562,4.688-1.688s2.25,0,3.625-2.25
			S227,396.5,227.812,396.312z"/>
		<path fill="#00FF00" d="M285.626,717.25c0,0,1.854,0.584,2.521,2.916c0.667,2.334,0.636,3.959,3.969,4.292
			c3.334,0.333,9.568-1.021,13.734,1.229c4.168,2.25,5.076,0.406,5.076,4.323s-0.421,5.744-1.588,7.244
			c-1.166,1.5-3.668,1.748-4.502,2.165c-0.832,0.417-0.834,0.581-0.834,0.581H304c0,0,0.168-1.668-0.248,1.249
			c-0.418,2.917,0.166,3.334-2.084,5.084s-4.833,2.417-6.916,2c-2.084-0.417-5-1.334-6-3.084c-0.242-0.423-0.411-0.842-0.513-1.247
			c-0.138-0.551-0.151-1.078-0.056-1.56c0.124-0.629,0.436-1.181,0.9-1.609c0.211-0.194,0.399-0.345,0.57-0.461
			c0.711-0.48,1.127-0.373,1.598-0.373c0.582,0,1.832-3.082,3.832-3.916s1-4.25,1.75-4.917s-0.115-0.979-0.396-0.791
			s-0.344,0.344-0.312,0.75s0.062,0.375,0.094,1.281s0.125,1.156-0.094,1.844s-0.562,1.188-1,1.5s-3.34,2.914-3.438,3.469
			s-0.672,0.178-1,0.5s-1.906,0.688-2.312,1.719s0.125,3.219,0.031,3.781s-0.562,0.875-1.781,1.031s-4.125,0.188-4.812-0.5
			s-1.75-2.344-1.656-3.375s0.438-1.969,0.844-2.406s1.531-1.156,3.188-2.281s2.875-2.844,3.5-3.594s1.688-2.094,2.438-2.406
			s1.75-1.625,1.938-2.031s-0.188-1.75-0.719-1.031s-0.219,0.594-0.438,1.312s-0.25,0.969-0.562,1.281s-1.689,1.396-1.75,1.633
			s-2.344,2.836-3.125,3.523s-2.594,1.906-2.969,2.188s-2.123,1.527-2.062,1.906s0.02,0.406-0.287,0.688s-2.994,0.156-3.15-1.5
			s-0.469-1.969-0.156-2.625s1.25-1.875,1.875-2.156s1.906-1.594,2.25-1.875s1.531-0.938,2.125-1.688s1.375-1.625,2.094-2.312
			s1.25-0.969,1.5-1.406s0.781-1.375,0.094-1.406s-0.594,0.438-0.688,0.75s-0.562,0.375-1.156,1.219s-1.375,1.906-1.781,2.344
			s-1.25,1.25-1.781,1.719s-1.594,1.625-2.062,1.969s-1.375,0.906-1.688,1.25s-0.719,1.594-1.156,1.875s-2.281-1.25-1.875-4.094
			s0.938-2.75,1.062-2.875c0.029-0.029,0.125-0.111,0.261-0.225c0.442-0.37,1.304-1.067,1.614-1.307
			c0.218-0.167,0.588-0.576,0.975-1.002c0.337-0.37,0.688-0.752,0.963-0.998c0.185-0.165,0.414-0.393,0.65-0.629
			c0.527-0.527,1.093-1.1,1.287-1.121c0.281-0.031,1.125-0.406,1.188-0.75s-0.188-0.75-0.406-0.469s-0.678,0.431-0.906,0.938
			s-0.844,0.719-1,0.875s-2.438,2.625-2.781,2.906s-2.469,1.812-2.5,2.031s-0.375,1-0.719,1.031s-2.406-1.562-1.469-4.938
			c0,0,1.375-1.625,1.594-1.625s1.156-1.406,1.562-1.75s1.312-1.25,2.406-1.75s2.281-0.688,2.562-1.344s1.25-2.688,2.031-2.812
			S284.877,717.188,285.626,717.25z"/>
		<path fill="#00FF00" d="M312.188,735.625c0,0-1.898,3.312-1.262,7.688s2.012,5.75,2.449,6.562s0.312,5.688,0.438,6.75
			s2.625,4.562,4.25,5.25s7.438,0.812,8.375,0s0.812-2.625,0.875-4.438c0.047-1.359-0.328-2.543-0.809-3.472
			c-0.16-0.31-0.332-0.591-0.504-0.841c-0.688-1-2-1.938-2.188-2.812s-0.062-3.188,0.688-3.75s2.188-1.562,2.438-0.562
			s0.57,1.438,0.379,2.688s-0.566,2.062-0.566,2.875s-0.062,1.25,0.062,1.875s0.812,3.438,0.812,4.812s0,2.438,0.812,3.312
			s3.375,1.5,5.062,1.375s2.875-0.875,3.312-1.562c0.354-0.558,0.422-1.319,0.435-2.188c0.003-0.203,0.003-0.412,0.003-0.625
			c0-1.125-0.938-2.188-1.25-3.125s-1.312-1.875-1.438-3.125c-0.019-0.184-0.039-0.369-0.062-0.555
			c-0.132-1.083-0.321-2.171-0.375-2.758c-0.062-0.688-1.5-1.625-1.438-3.062s-0.062-2.5,0.438-2.375s0.875,1.188,0.875,2
			s0.25,1.29,0,2s0.813,3.985,1,5.188s2.062,4.875,2.625,6.188s1.312,1.062,2,1s1.75-0.812,2.188-1.562s0.938-1.688,1-2.75
			s0.188-1.875,0-2.688s-0.562-1.438-1.188-2.75c-0.291-0.609-0.621-0.936-0.905-1.199c-0.326-0.303-0.59-0.52-0.657-0.988
			c-0.125-0.875-0.562-1.875-0.5-2.688s-0.062-2.062,0.375-1.938s0.938,0.625,0.938,1.188s0.062,1-0.125,1.875
			s0.062,0.938,0.188,1.625s1.625,5.75,2.375,7.125s3.375,0.812,3.625,0.375s1.312-1.5,1.312-2.812s0.562-3.938,0-5.188
			s-1.75-2.812-1.875-3.938s0-2.438,0.375-2.812s1.125,0.25,1.25,0.938s-0.375,2.312-0.312,2.938s0.688,3.125,1.125,4.188
			s0.875,2.125,1.938,2.25s2.188-0.922,2.5-1.836s1.562-5.539,1.312-8.602s-1.5-2.688-1.875-3.438s-0.375-2.188-0.625-3.625
			s-0.75-3-1.188-3.562s-1.562-0.5-2,0.625s-0.312,3.312-1,4.625s-2.75,2.125-5.562,2.5S333,739,328.625,739.375
			s-10.379,0.938-12.283,0.625s-3.529-2.375-3.842-3.375S312.188,735.625,312.188,735.625z"/>
		<path fill="#00FF00" d="M291.914,379.589c0,0,16.834,15.167,21.25,24.333c4.417,9.167,6.666,7.334,7.584,6.917
			c0.916-0.417,0.916-0.417,0.916-0.417s0.336,0.614,1.211,0.846s2.438-0.394,3.312-1.769s3.562-10,6.562-13.75
			s9.125-11.125,11-12.75s2.938-2.634,3.625-3.411s-16.562,8.536-25.625,8.411s-26.125-7.538-28.375-8.457
			S291.914,379.589,291.914,379.589z"/>
	</g>
</g>
<!-- symetrical arms -->
<g>
	<path fill="none" d="M668.835,108.332"/>
	<g>
		<path fill="#0000FF" d="M668.835,108.332c0,0,1.165,13.918,1.915,16.793s2,11.75,2,13.375s2.375,5.625,2.625,7
			s-2.353,2.625-3.27,2.375c-0.918-0.25-1.855-3.062-2.355-4.812s-0.75-3.688-1.188-6.188s-4.938-9.5-5.562-13.125
			s-0.938-7.375-2.062-9.938s-3.625-12.438-4.062-14.688s-1.312-4.073-1.312-4.073s4.03,5.023,4.305,5.391s2.479,2.722,3.276,3.418
			s2.973,2.504,3.947,3.225C668.067,107.806,668.835,108.332,668.835,108.332z"/>
		<path fill="#0000FF" d="M681.5,148.312c0,0-0.688-1.688,0.438-4.625s1.812-3.625,2.062-5.875s1.875-10.125,2.938-13.875
			s2.404-11.551,2.75-12.499s0.346-0.948,0.346-0.948s3.639-2.644,4.293-3.16s3.014-2.604,3.445-3.062
			c0.431-0.458,2.871-3.55,3.104-3.918c0.234-0.368,0.459-0.737,0.459-0.737s-0.396,8.324-1.646,11.387s-4.688,9.188-5.5,10.938
			s-3.938,10.312-4.812,12.25s-2,3.938-2.25,6.25s0.25,5.25-0.688,6.812s-0.562,1.688-2.312,1.75S681.5,148.312,681.5,148.312z"/>
		<path fill="#0000FF" d="M668.835,108.332c0,0,2.239,0.879,2.776,1.058s2.57,0.834,2.57,0.834s2.004,0.626,2.246,0.7
			c0.24,0.074,1.746,0.354,2.607,0.403c0.863,0.049,4.443,0.109,4.775,0.104c0.334-0.005,2.607-0.078,3.127-0.117
			s1.656-0.153,1.893-0.214s1.062-0.508,1.203-0.61c0.14-0.102-0.439,1.268-0.477,1.421c-0.036,0.153-0.396,1.847-0.5,2.36
			s-0.604,3.005-0.688,3.413s-0.65,3.079-0.75,3.515c-0.101,0.436-1.074,4.168-1.304,5.127s-1.015,4.454-1.151,5.114
			c-0.138,0.66-0.811,4.09-0.902,4.645c-0.094,0.554-0.421,2.955-0.654,3.587s-0.805,1.94-0.9,2.158s-0.428,0.898-0.428,0.898
			s0.436-1.335,0.428-2.018c-0.009-0.683-0.05-0.897-0.35-2.064c-0.299-1.167-0.782-3.559-0.956-4.618s-0.449-3.172-0.457-4.505
			s0.003-2.981-0.062-3.899s-0.273-2.926-0.527-3.961s-0.369-3.168-0.355-4.101s0.054-1.519,0.025-2.185
			c-0.027-0.666-0.295-1.484-1.088-1.502s-1.121,0.94-1.109,1.398c0.01,0.458,0.009,2.391-0.077,3.015s-0.442,2.404-0.551,3.191
			s-0.361,2.514-0.641,3.237s-0.981,2.478-1.109,3.035s-0.866,3.512-1.148,4.388s-0.986,2.427-0.997,3.78
			c-0.01,1.353,0,3.185,0.191,4.228c0.189,1.043,0.104,1.114,0.104,1.114s-0.65-1.591-0.735-2.005s-0.228-2.344-0.319-3.109
			s-0.725-5.281-0.793-5.703c-0.066-0.422-0.982-5.791-1.264-6.647s-0.862-6.992-0.959-7.965s-0.447-4.662-0.537-5.682
			C668.903,109.128,668.835,108.332,668.835,108.332z"/>
		<path fill="#0000FF" d="M687.234,139.708c0,0,3.453-0.708,4.641-0.27s8.044,0.439,9.459,0.063
			c1.416-0.376-0.584-7.251-1.209-11.251s-0.562-9.688-0.375-12.188s0.58-7.384,0.58-7.384s-1.405,5.002-3.086,7.38
			c-1.682,2.378-4.15,8.554-4.961,10.68s-1.992,5.352-2.604,6.732s-1.206,2.585-1.519,3.357S687.302,139.293,687.234,139.708z"/>
		<path fill="#0000FF" d="M701.313,139.626c0,0,5.676,0.27,8.259-0.313c2.584-0.583,5.47-1.312,6.803-1.312s0.625,0,0.625,0
			s-2.084-0.708-3.417-2.792s-4.5-4.916-5.625-6.708s-3.083-4.25-4.75-7s-3.329-7.128-3.267-7.915
			c0.061-0.787-0.276,3.71-0.295,4.708c-0.02,0.998-0.001,5.629,0.181,7.381s0.882,5.558,1.233,7.331s0.734,3.77,0.75,4.572
			C701.824,138.379,701.669,139.418,701.313,139.626z"/>
		<path fill="#0000FF" d="M716.916,138.125c0,0,5.501-0.687,8.543-2.729c3.041-2.042,7.082-3.396,9.25-3.396
			c2.166,0,1.291,0,1.291,0s-4.209-0.959-8.416-3.959c-4.209-3-10.584-7.416-13.75-8.708c-3.167-1.292-5.209-1.792-8.5-3.958
			c-3.292-2.167-4.167-4.125-4.417-5.667s-0.263-2.913-0.263-2.913s-0.381,2.584-0.44,3.333s-0.407,2.676-0.272,3.457
			c0.134,0.781,1.558,4.981,2.668,6.859s4.386,6.586,4.867,7.321s1.852,2.41,3.543,4.334s2.212,2.908,3.036,3.755
			S716.596,138.17,716.916,138.125z"/>
		<path fill="#0000FF" d="M658.25,139.5c2.959-0.375,9.545-0.708,10.585-0.25s0.14,0.074,0.14,0.074s-0.278-1.7-0.358-2.139
			s-0.39-1.559-0.886-2.614s-2.182-4.408-2.684-5.47s-1.836-3.875-2.306-6.955s-0.888-5.424-1.056-6.054
			c0,0-0.493-2.057-0.871-2.575c-0.377-0.518-0.18-0.479-0.18-0.479s0.74,1.805,0.553,3.148s-0.75,4.25-1.531,5.969
			s-3.344,9.125-4.875,11.375s-3.469,5.125-3.438,5.688S655.292,139.875,658.25,139.5z"/>
		<path fill="#0000FF" d="M642.375,137.594c0,0,2.719,1.469,4.281,1.5s3.438,0.438,4.062,0.281s0.625-0.156,0.625-0.156
			s1.215-2.357,1.672-3.052s1.723-2.351,2.337-3.612s1.826-4.102,1.991-4.517s1.852-4.765,1.852-4.765s-2.195,4.384-3.632,5.696
			c-0.751,0.594-4.657,3.344-6.001,4.125s-4.688,2.531-5.5,2.969S642.016,137.409,642.375,137.594z"/>
		<path fill="#0000FF" d="M624.219,131.342c0,0,5.75-0.279,8.406,1.314s7.969,4.031,9.156,4.469s0.529,0.25,0.529,0.25
			s3.168-2.256,4.257-2.644s3.716-2.069,4.536-2.623s4.143-2.815,4.46-3.14s1.669-2.099,2.411-3.438s1.642-3.099,1.957-4.051
			s0.952-3.444,1.089-4.263s0.292-1.97,0-2.948s-0.663-2.011-0.833-2.553s-0.324-1.052-0.324-1.052s0.721,1.419-1.217,3.544
			s-7.271,5.375-8.75,6.375c-1.48,1-7.646,4.458-11.312,5.458c-3.668,1-8.418,2.625-10.418,3.542S624.229,130.975,624.219,131.342z"
			/>
	</g>
	<path fill="none" d="M620.449,227.609"/>
	<g>
		<path fill="#009245" d="M681.135,228.333c0,0,9.365,2.167,14.531,5.667s8,6.333,8,6.333s1.166,4.834,0,7.667s-1.604,4.25-1.604,5
			s-10.062-5.5-12.5-6.062s-9.062-2.125-9.062-2.125S679.708,243.291,681.135,228.333z"/>
		<path fill="#009245" d="M676.312,229c0,0-8.062,1.188-12.938,5.125s-9,6.5-10.062,8.875s-0.562,5.625,0,7.625
			s1.312,3.938,1.5,5.438s8.25-5.625,11-7.5s8.188-3,9.625-3.625s0.875-0.875,0.875-0.875S677.25,250.812,676.312,229z"/>
		<path fill="#009245" d="M680.281,247.312c0,0,6.219,2.125,8.469,2.875s5.75,1.75,7.375,2.875s4.562,2.812,5.375,4.438
			s1.562,7.438,1.125,11s-0.75,6.75-1.875,8.062s-1.5,1.75-3.375,1.75s-5.25-1.875-7.188-2.125s-6.188-2.125-7.688-3.812
			s-1.375-2.5-1.438-2.875S680.25,248.312,680.281,247.312z"/>
		<path fill="#009245" d="M676.729,248.938c0,0-1.104-1.062-3.354,0s-5.375,3.125-7.312,4.688s-6.312,4-7.75,4.625
			s-2.75,1.188-3.562,2.875s-0.812,6.625-0.812,8.125s0.125,4.375,1.312,6.438s1.438,4.375,3.125,4.438s4.25-1.438,5.75-2.312
			s4.375-1.438,5.938-2.438s4.375-2.375,5.5-3.125s1.562-1.188,1.75-2.25S677.083,251,676.729,248.938z"/>
		<path fill="#009245" d="M682.875,276.688c0,0,4.562,0.812,6.75,2.125s4.312,1.875,6.062,1.938s3.688-0.25,4.938,1.312
			s1.125,2.688,1.375,4.062s0.758,11.375,0.754,13.188s0.184,4.312-0.566,4.812s-4.062,0.375-6.312,0s-5.062-1.5-6.688-1.25
			s-4.125,0.5-5.688-0.5s-1.875-2.375-2.562-4.062s0-20.312,0-20.312S680.875,277.125,682.875,276.688z"/>
		<path fill="#009245" d="M673.375,278c0,0-4.062,0.688-6.125,2.75s-4.25,1.688-5.375,2.188s-3.562,2.375-4.688,5
			s-1.25,7.688-0.562,11.125s2.438,6.312,3.25,6.812s2.812,0.312,4.438,0s6.75-2.812,8.375-3.625s2.438-0.75,3.125-1.312
			s0.562-2,0.562-2.75s1.218-16.688,0.984-17.5c-0.234-0.812-1.297-2.438-2.484-2.688S673.375,278,673.375,278z"/>
		<path fill="#009245" d="M685.188,307.438c0,0,5.125-1.375,7.5-0.562s6.188,2.688,7.312,2.75s1.5,1.312,1.938,2.312
			s1.125,7.375,1.75,8.938s0.75,11.75,0.5,17s-2.062,11.312-2.562,13.875s-1.062,7.688-2.562,12.812s-3.875,11.562-4.875,12.375
			s-8.5,3-9.562,2.312s-1.625-14.938-1.688-16.625s-0.875-18.812-1-21.312s-0.312-25.375,0-27.938s0.5-2.5,1.25-3.188
			S684.188,308.625,685.188,307.438z"/>
		<path fill="#009245" d="M674.438,309.125c0,0-0.312-1.625-1.688-1.875s-3.75,1.125-5.062,1.875s-5,1.5-6.188,1.688
			s-1.25,1.312-2.688,2.938s-1.688,1.5-1.625,3.188s0,8.062,0.375,10.875s1.125,10.312,1.25,14.312s3.625,16,4.688,18
			s4.25,8.25,5.438,11.25s1.188,5.062,2.062,5.938s6.496,2.812,8.342,2.688s1.346-0.5,1.408-1.812s0-15.938-0.312-20.188
			s-0.941-27.562-1.096-30.75s-0.404-13.375-0.717-14.812s-2.125-2.188-2.75-2.5S674.125,309.062,674.438,309.125z"/>
		<path fill="#009245" d="M679.791,302.958c0,0-3.25,0.417-3.041,2.542c0.208,2.125,1.125,3.083,1.958,3.375s2.534-0.167,3.059-1
			s0.608-1.125,0.566-2.375s-0.626-1.583-1.208-1.958C680.541,303.167,680.666,303.125,679.791,302.958z"/>
		<path fill="#009245" d="M738.991,185.036c0,0,0.036,8.18,0.427,10.774c0.39,2.595,0.522,3.35,0.522,3.35s-0.56,23.589,0,29.672
			s-2.522,31.166-3.606,36.833s-5.25,17.584-4.917,21.584s2.833,12.91,5.999,17.205c3.167,4.295,4.168,10.462,4.25,14.712
			c0.084,4.25,0.001,8.582-3.249,12.666s-7.917,10.333-9.833,12.5c-1.917,2.167-4.75,4.25-7.5,3.667s-4.168-2.084-6.584-7.167
			s-4.584-16.75-4.916-21.333c-0.334-4.583,0.332-21.25,0-23.417c-0.333-2.167,0.417-20.416,0.417-22.749s0.083-17.208,0.083-20.271
			s-0.083-5.812,1-7.562c1.084-1.75,2.291-3.063,3.479-3.813s5.759-4.954,7.436-5.523s3.764-1.585,4.779-2.164
			s4.21-2.548,5.523-3.813c1.312-1.265,3.043-2.755,3.681-4.035s1.972-5.339,1.961-8.652s-0.544-11.364-1.181-15.057
			s-0.285-10.846,0.008-12.051S738.991,185.036,738.991,185.036z"/>
		<path fill="#009245" d="M642.408,244.67c0,0,4.262,4.167,4.928,10.167c0.667,6,0.667,8.429,0.667,13.964s1.833,14.369,2,18.536
			s0.333,13.748,1,18.624s0.167,16.543,0,23.209s-0.667,12-2.001,15.167s-5,8.832-7.334,7.999c-2.332-0.833-7.332-6.114-9.832-8.724
			s-9.834-12.442-9.5-19.109c0.332-6.667,4.833-15,6.166-23s2.333-13.333,1.166-20c-1.166-6.667-7.02-17.5-7.344-21.667
			c-0.322-4.167-1.156-19.969-0.99-23.651c0.168-3.682,0.475-6.288,0.475-6.288s2.881,3.338,5.42,4.64
			c2.541,1.301,6.006,2.996,6.858,3.497S641.547,243.703,642.408,244.67z"/>
	</g>
	<g>
		<path fill="#FF7BAC" d="M630.625,348.099c0,0,1.375-0.349,2.375,2.901s-0.125,6,1.25,9.875s12.25,31.875,13.5,35.625
			s7.625,25.25,9.5,31.625s6.75,28.5,7.5,37.625s0.25,39.5,0,44.25c-0.158,3.007-0.566,10.32-0.94,16.425
			c-0.116,1.894,0.052,4.933-3.753,5.298s-3.104-0.743-3.463-5.818c-0.109-1.559-0.122-3.302-0.008-5.239
			c0.917-15.499,0.964-43.664,0.773-47.664c-0.189-4-3.109-24.187-5.859-33.906s-9-26.47-12.25-37.595s-7.375-28-7.875-33.75
			s-0.812-6.812-1-10.125s-1.5-5.062-1.625-6.438S628.75,348.447,630.625,348.099z"/>
		<path fill="#FF7BAC" d="M678,403.501c0,0-0.5,19.336-0.334,22.586c0.167,3.25,0.584,19.918-0.832,27.418
			c-1.418,7.5-5.834,25-6.75,28.584c-0.918,3.584-3.001,7.667-3.418,10.167c-0.416,2.5-1.649,6.919-1.649,6.919
			s0.117-10.918,0.122-12.252s-0.096-14.929-0.149-16.425s-2.131-17.381-2.55-19.514s-1.021-5.097-1.021-5.097
			s-3.283-14.689-3.905-16.835s-3.089-10.479-3.089-10.479S658.625,407,660,404.375s5.549-8.875,6.212-9.875
			s1.163-1.625,1.163-1.625l2.592-2.848c0,0,2.943,3.68,3.508,4.49s1.939,2.912,2.69,4.405s1.835,3.408,1.835,3.408V403.501z"/>
		<path fill="#FF7BAC" d="M669.967,390.027c0,0-2.488,2.689-2.835,3.165s-1.751,2.561-2.085,3.068s-1.746,2.673-2.137,3.289
			c-0.393,0.616-2.297,3.663-2.696,4.431s-1.64,3.623-2.213,5.096s-1.349,3.489-1.749,4.558s-1.828,4.939-1.828,4.939l-3.265-10.939
			c0,0-2.188-7.247-2.563-8.457s-3.299-9.311-3.913-10.925s-4.419-11.558-5.738-15.004s-4.257-10.823-4.694-12.373
			s-0.742-3.559-0.765-5.125s0.077-2.437,0.765-3.062s1.34,0.125,2.076,0.625s2.424,2.188,3.736,3.625s7.25,7.688,9.062,9.625
			s4.74,6.427,5.655,7.584s5.033,5.037,6.712,6.736c1.678,1.7,4.1,4.209,5.142,5.359S669.967,390.027,669.967,390.027z"/>
		<path fill="#FF7BAC" d="M622.166,334c0,0,3.084,4.917,3.918,9c0.833,4.083,0.916,15.5,1,16.75c0.083,1.25,0.75,3.758,2.416,4.75
			s1.896,3.63,2.002,4.39s0.503,5.193,0,9.193c-0.502,4-2.918,13.583-5.001,17.917s-5.75,12.833-7.25,17.833
			s-3.833,12.084-4.5,15.667s-2.333,12.251-2.417,13.334c-0.083,1.083-0.083,1.083-0.083,1.083s-0.666-12.917-0.583-15.5
			s0.25-14.999,0.583-18.333s3.083-19.584,4-23.167s5.333-21.667,6.167-25.917c0.833-4.25,0.332-16.751,0.082-19.501
			S622.166,334,622.166,334z"/>
		<path fill="#FF7BAC" d="M628.715,538.335c0,0,2.785-4,4.785-3.833s5.5,0,6.666,1c1.168,1,0.668,0.914,0.668,0.914
			s-2.667-12.914-2.5-18.414c0.166-5.5,0.166-20.667,0.666-24.5s6.168-28.001,8-36.334c1.834-8.333,4.078-19.523,4.078-19.523
			s-6.463-19.604-6.699-20.301s-5.754-17.976-6.284-19.907s-2.546-9.457-3.487-13.464c-0.941-4.006-2.855-13.411-2.855-13.411
			s0.043,7.213-0.926,11.287s-2.642,10.502-4.325,14.151s-5.032,11.602-5.239,12.138s-0.437,1.14-0.437,1.14
			s-2.074,20.64-2.157,26.973c-0.084,6.333-0.084,21.166,0.416,27.166s1.328,23.915,2.622,30.749s4.294,13.916,5.544,20.916
			s1.833,15,1.833,18S628.715,538.335,628.715,538.335z"/>
		<path fill="#FF7BAC" d="M651.078,437.645c0,0-3.418,16.528-3.886,18.647s-3.602,15.922-3.602,15.922s-1.613,7.099-2.196,9.734
			s-1.832,8.263-2.113,9.908s-0.58,5.644-0.65,8.891c-0.069,3.247-0.134,7.254-0.166,9.629s-0.116,5.933-0.123,7.342
			s0.361,6.258,0.721,8.6s1.745,9.972,1.745,9.972s1.911,2.242,2.442,2.43s7.719-6.812,8.938-8.25s4.061-4.649,4.127-5.62
			c0.068-0.971,0.65-12.537,0.65-12.537s0.256-9.248,0.276-10.248s0.171-11.814,0.179-12.97s0.033-15.025-0.07-16.281
			c-0.104-1.256-0.84-7.242-1.031-8.563c-0.193-1.321-1.262-8.097-1.447-9.16c-0.184-1.063-1.794-9.506-2.082-10.778
			S651.72,439.82,651.078,437.645z"/>
		<path fill="#FF7BAC" d="M620.825,409.277c0,0-3.362,10.37-3.663,11.359s-1.739,5.671-2.115,7.484
			c-0.377,1.813-0.689,3.461-1.178,6.065c-0.486,2.604-0.951,5.079-1.162,6.306s-0.455,2.842-0.456,3.425
			s-1.167,13.833-1.167,18.583s0.916,18.583,2.249,27.249s2.837,16.666,5.293,21.916s5.038,10.916,6.706,14.832
			c1.666,3.916,3.383,8.583,3.383,8.583l0.274,0.674c0,0,0.097-1.379,0.092-2.316s-0.185-5.534-0.366-7.219
			c-0.181-1.685-0.661-6.154-0.984-8.189c-0.322-2.035-0.998-5.72-1.611-7.911c-0.615-2.191-2.537-8.49-2.98-10.091
			s-1.658-6.905-1.881-8.782c-0.225-1.877-0.764-7.406-0.94-9.779s-0.444-6.212-0.68-9.871s-0.677-9.128-0.771-12.001
			s-0.25-6.75-0.241-9.625s-0.022-6.031,0-9s0.038-6.024,0.21-8.589s0.589-7.975,0.778-10.128s0.456-5.132,0.634-7.002
			s0.45-4.689,0.45-4.689L620.825,409.277z"/>
		<path fill="#FF7BAC" d="M733.834,343.613c0,0-0.584,3.762-1.334,5.637s-1.75,9.375-2.5,12.125s-5.5,20.375-7.5,25
			S717,406,714.75,412s-6.75,20-8.375,24.5s-5.625,17-7,22S696,471.25,695,477.125s-2,15.875-2.375,19.625s-1.25,9.125-1.375,17.125
			s0,11,0,11s3.25-5.875,4-3.125s-0.25-2.75-0.375-6.625S696,501,696.5,496s1.625-12.875,2.75-18.125s6-16,8.25-22
			s7.625-18.262,9.375-21.631s7.5-19.619,9.25-25.494s5.625-19.25,6.375-26.5s2.625-23.25,3.125-26.625s0.75-7.5,0.75-9.375
			s0.688-4.938-1.188-4.938S733.834,343.613,733.834,343.613z"/>
		<path fill="#FF7BAC" d="M689.887,402.977c0,0-1.469,19.862-1.635,23.945c-0.167,4.083,0.303,24.582,0.817,32.749
			s1.265,16.583,1.765,23.333s1.52,16.171,1.52,16.171s1.297-12.516,1.785-16.103c0.49-3.587,1.932-11.675,2.901-15.559
			s4.135-15.145,5.126-18.261s5.855-17.548,7.504-22.471s6.137-17.927,6.137-17.927s-2.556-1.852-4.723-6.768
			s-3.417-8.249-3.584-9.916c-0.166-1.667-2.082-8.084-2.499-9.584s-0.692-2.043-0.692-2.043s-3.619,4.186-4.54,5.294
			s-2.403,2.855-3.438,4.188c-1.034,1.333-2.166,3.058-2.768,4.3s-1.469,3.133-2.058,4.597S689.957,402.021,689.887,402.977z"/>
		<path fill="#FF7BAC" d="M733.834,343.613c0,0-3.334,4.368-5.75,8.837s-4,6.72-7.084,10.553c-3.082,3.833-7.582,8.871-9.666,11.144
			s-6.48,5.983-6.666,6.398c-0.188,0.415-0.359,0-0.359,0s2.146,7.056,2.538,8.644s0.991,4.757,1.431,5.975s2.062,5.38,2.807,6.925
			s2.746,4.938,3.734,5.853s0.988,0.915,0.988,0.915s1.87-6.419,2.441-8.482s1.669-6.693,2.961-10.346
			c1.291-3.652,3.168-8.891,4.134-12.163s3.008-10.441,3.833-13.465c0.824-3.024,1.527-6.423,2.025-9.14s1.025-4.738,1.543-6.704
			C733.264,346.59,733.896,344.134,733.834,343.613z"/>
		<path fill="#FF7BAC" d="M736.35,347.499c0,0-0.127,2.757-0.274,4.247s-0.618,5.022-0.864,7c-0.245,1.978-0.584,4.736-0.889,7.333
			s-0.716,6.115-0.996,8.618c-0.281,2.503-0.599,6.183-0.912,8.304s-1.858,9.656-2.531,12.252
			c-0.674,2.596-2.643,9.975-3.758,13.498s-3.447,10.49-4.846,14.301c-1.399,3.811-4.553,11.314-6.037,14.599
			c-1.485,3.284-2.658,6.434-2.658,7.684s-0.918,10.168-0.834,14.584s-0.261,9.834-0.006,15.25
			c0.256,5.416,0.839,12.249,0.922,14.916c0.084,2.667-0.166,4.001-0.083,7.667s0,7.916-0.5,9.416s-1.5,2.834-1.917,5.084
			c-0.416,2.25-0.749,2.833-0.666,4.583s0,2.834,0.333,4.417s0.581,2.829,0.581,2.829s7.25-1.5,9.417,1.417s0.417-6.083,0.417-6.083
			s0-3.5,0.583-5.667s1.499-4.75,1.667-7c0.166-2.25,0.166-4.667,1-6.25c0.833-1.583,2.416-6.749,3.416-9.583
			s6.583-15.332,7.666-19.916c1.084-4.584,3.668-16.498,4.168-21.832s3.083-16.333,3.333-22s1.751-20.249,1.833-25.083
			c0.084-4.834,0-5.668,0-5.668s-1.377-5.166-2.23-8.833s-2.52-9.916-2.854-14.083c-0.332-4.167-1.166-7-1.25-11.25
			C737.498,357.998,736.35,347.499,736.35,347.499z"/>
		<path fill="#FF7BAC" d="M713.846,440.944c0,0-4.705,10.661-5.736,13.348s-2.906,7.302-4.107,10.273s-2.144,5.021-3.191,8.183
			c-1.047,3.162-1.705,5.346-2.323,9.066s-1.22,7.361-1.604,10.773s-0.851,7.688-1.144,10.576s-0.686,6.859-0.77,8.598
			c-0.086,1.738-0.039,4.479-0.039,4.479s2.73,3.09,3.98,4.09s4.524,3.834,5.471,5.167s1.113,1.75,2.029,2.333
			c0.917,0.583,1.167-0.673,1.917-1.753s2.085-1.999,2.085-1.999s-1.012-4.414-0.927-6.665s0.405-4.321,0.771-5.58
			s1.58-3.511,1.825-4.668s0.446-2.423,0.485-4.338s0.037-5.76,0.062-9.418s-0.167-6.842-0.405-10.416
			c-0.239-3.574-0.547-6.167-0.556-10.165s0.081-5.495,0.088-10.164s0.093-7.522,0.356-10.919c0.263-3.396,0.281-4.655,0.459-6.085
			C712.751,444.231,713.846,440.944,713.846,440.944z"/>
		<path fill="#FF7BAC" d="M743.914,396.414c0,0,3.082,7.832,3.582,11.666s1,7.001,1.416,11.834s0.417,7.5,0.834,12.75
			c0.416,5.25,0.582,6.916,0.582,9.583s-0.499,7.917-0.999,12.25s-0.583,11.334-1.083,14.25s-3.834,17.834-5.334,22.417
			s-3,7.666-4.834,10.416c-1.832,2.75-5.833,10.082-7.583,13.665s-4.333,6.583-5.583,9.083s-2.917,4.417-2.917,4.417
			s-1.106-2.646-1.333-2.667s0.283-1.088,0.241-1.75s-0.16-1.921-0.3-2.805c-0.139-0.884-0.539-3.09-0.186-5.314
			s1.053-4.352,1.469-6.183s0.561-3.935,0.773-5.733s0.234-2.709,1.308-4.854s1.493-4.214,1.966-5.626
			c0.471-1.412,2.232-6.038,3.127-8.196c0.896-2.158,2.394-5.674,3.416-8.417s1.83-4.833,2.654-8.595s1.451-6.604,1.995-9.471
			s1.298-7.297,1.604-9.802c0.308-2.505,0.941-6.396,1.363-8.745c0.424-2.349,1.268-6.377,1.611-9.604
			c0.343-3.228,0.646-8.148,0.839-10.482s0.521-6.152,0.733-8.787c0.212-2.635,0.543-5.998,0.601-8.502s0.083-4.839,0.069-5.588
			C743.935,396.874,743.914,396.414,743.914,396.414z"/>
		<path fill="#FF7BAC" d="M742.812,329.625c0,0-0.875,2.688-2.125,4.75s-2,3.5-2.938,4.688s-1.721,2.589-1.721,2.589
			s0.188,4.6,0.32,5.847s0.541,5.221,0.69,6.924s0.421,5.991,0.549,8.138s1.12,8.711,1.391,12.326s2.046,9.972,2.704,12.695
			s2.002,7.852,3.284,11.658s2.792,7.469,3.553,16.744s1.223,16.637,1.387,18.701s0.452,6.248,0.421,7.562
			c-0.03,1.314-0.869,9.854-1.131,13.55s-0.514,8.21-0.55,8.767s-0.135,1.87-0.135,1.87s2.05-9.684,2.425-11.996
			s1.312-7.625,2-11.25s1.625-9.312,2-13.188s1.75-14.5,1.812-20.875S756.438,390.5,756,385s-2.25-20.312-4.188-26.5
			s-5.5-16.125-6.375-19.875S743.188,330.375,742.812,329.625z"/>
		<path fill="#FF7BAC" d="M732.693,510.979c0,0-1.568,9.396-1.943,13.896s-1.25,8.125-2.25,12.5s-2.25,9-3.5,13.5
			s-4.125,11.125-5.875,15.25S713.75,581.75,712,587.75s-3.5,14.25-4.875,22.625s-4.25,18.375-4.75,23.125s-5.875,26.25-8,33.5
			s-5.75,19.625-6.75,23.5s-4,14.625-5.375,18s-2.066,7.75-2.908,11.75s-1.93,10.694-2.092,12.125s-0.162,1.431-0.162,1.431
			s1.975,0.944,2.787,0.757s-0.062-1.312,0-3.5s0.5-6.938,0.812-9.688s1.562-7.438,2.188-9.438s2.625-6.812,3.5-8.938
			s3.562-9.312,4.562-12.062s3.438-11.438,4.188-13.75s4.875-13.438,6.312-17.062s4.875-12.438,6.375-15.438
			S716,622.166,718.167,615s5.167-18.166,6.333-25.166c1.167-7,3-21.334,3-27.667s2.166-17.333,3.5-22.666s4.104-14.5,4.303-18
			c0.197-3.5,1.864-11.834,3.197-15.667c1.334-3.833,2.926-10.612,2.926-10.612s-1.953,4.108-3.348,6.358
			c-1.393,2.25-3.625,6.147-4.284,7.362S732.693,510.979,732.693,510.979z"/>
		<path fill="#FF7BAC" d="M729,551v1c0,0,0.414,12.421,0.497,17.337s0.583,12.5,0,18.25s-2.833,16.832-4.417,21.249
			c-1.583,4.417-4.916,15.667-7,20.917c-2.083,5.25-4.332,11.999-5.5,16.416c-1.166,4.417-4,15.082-5.75,21.082
			s-4.75,13.251-6,18.917s-2.333,9.582-2.083,14.416s2.25,9.584,3.417,12.167c1.166,2.583,2.166,5.416,3.666,8.416
			s2.938,6.334,3.428,7.334c0.488,1,1.247,2.332,1.247,2.332s-2.146,2.049-2.618,1.441s-2.307-4.773-2.307-4.773
			s-5.334-12.833-5.334-13.25s1.251,7,1.918,9.333c0.666,2.333,4,8.803,4,8.803s-2.508,1.474-3.379,0.752s-2.039-7.055-2.039-7.055
			s-1-2.751-1.5-5.667s-1.582-6.666-1.916-8.083s-0.916-3.667-0.916-3.667s-0.918-0.916-1.084,0.084s0.146,6.166,0.365,8.333
			s0.719,7.001,1.219,9.167s1.166,6,1.332,6.5c0.168,0.5,0.266,0.906,0.266,0.906s-1.746,0.978-2.816,0.316
			s-0.883-4.286-0.945-5.349s-0.625-7.188-0.812-8.75s-0.438-5.688-0.438-6.188s-0.406-3.875-0.594-4.312S692,708.5,692,709.188
			s0,5.812,0,5.812s0.438,5.375,0.438,7.062s0.25,5.562,0.312,6.938s0.365,4.275,0.438,4.75s0.072,0.475,0.072,0.475
			s-3.242,0.574-4.095,0.362s0.04-4.962,0-5.587s0.022-8.75,0.022-11.062s1.688-12.625,2.125-16.125s1.812-5.438,2.75-9.688
			s4-15.25,4.938-19.5s3.035-14.011,3.035-14.011s2.621-6.713,3.86-9.596s4.716-11.46,6.303-16.056s4.325-12.578,5.439-16.252
			s3.608-12.447,4.339-15.404c0.731-2.957,2.182-9.021,2.785-13.098s1.539-10.834,1.912-14.579c0.375-3.745,0.58-9.761,0.88-13.314
			S728.688,552,729,551z"/>
		<path fill="#FF7BAC" d="M683.125,734.793c0,0,0.25-7.752,0.562-12.127s0.906-7.778,1.531-10.384s1.328-6.194,2.328-9.319
			s1.619-7.244,2.032-8.355c0,0,1.006-2.49,1.663-4.561s1.626-5.277,2.2-7.229s3.272-10.147,4.387-13.145s4.206-11.058,4.206-11.058
			s-0.948,4.404-1.295,6.008s-1.121,5.406-1.74,8.002s-1.171,4.791-1.742,6.973c-0.57,2.182-1.504,5.683-2.123,8.139
			c-0.617,2.456-1.516,7.262-2.7,9.7s-2.407,7.188-3.64,11.626s-2.107,9.688-2.17,12.438s-0.438,5.062-0.375,6.812
			s-0.25,5.062-0.25,5.438s0,1.25,0,1.25S684.312,735.461,683.125,734.793z"/>
		<path fill="#FF7BAC" d="M731.485,538.147c0,0-0.921,7.009-0.094,10.759s1.905,7.922,3.28,15.172s1.723,10.898,1.85,17.898
			s1.611,12.262-0.012,19.762s-3.269,13.506-5.574,18.756c-2.305,5.25-6.183,14.003-8.933,20.003s-4.751,11.731-7.501,18.116
			s-5.126,13.511-6.876,18.636s-2.063,6.626-2.938,10.751S704,692.125,704,692.125V693c0,0,1.117-5.417-1.25-5.125
			s-2.776,2.119-2.783,2.146c-0.006,0.026,0.703-3.698,1.484-6.319c0.782-2.621,2.293-6.953,3.662-11.123s1.506-4.453,2.709-8.808
			c1.205-4.354,2.107-7.619,3.434-12.61c1.324-4.991,2.078-7.973,3.33-11.673s3.23-8.548,4.973-13.8
			c1.741-5.252,4.836-13.269,6.332-19.468c1.498-6.199,2.873-10.693,3.358-16.578s0.831-10.56,0.526-16.059
			c-0.303-5.499-1.149-10.332-0.941-15.333c0.207-5.001-0.233-6.927-0.061-7.927S731.485,538.147,731.485,538.147z"/>
		<path fill="#FF7BAC" d="M699.167,565.999c0,0,2.767,16.666,0.8,29.5s-1.633,23.834-2.8,30.167s-1.833,14.666-2.5,22.833
			s-5.744,24.166-5.872,26.5s-0.92,5.001-0.92,5.001s0.25-9.5,0-16s1.625-14.25,2-18.375s1-7.125,0.375-11.25
			s-1.16-15.625-1.455-17.625S689,602.375,690,595s2.75-11.25,3.5-14.75s3.5-8.125,4.125-10.75S699.167,565.999,699.167,565.999z"/>
		<path fill="#FF7BAC" d="M660.167,554.165c0,0,1.999,8.834,7.167,14.167c5.166,5.333,10,17.999,11,27.333s0.5,20.503,0,27.335
			s0.516,13.165,1.008,20.665s1.492,16.167,2.325,21.667s2.499,12.669,2.667,14.668c0.166,1.999,0,3.665,0,3.665
			s-4.484-10.5-4.992-13.333s-2.842-9.499-4.508-18.333c-1.667-8.834-4.334-20.166-6.167-27.5s-3.999-13.666-5.167-23
			c-1.166-9.334-2.5-16.834-3.333-23.834s-1.167-12-1-16S660.167,554.165,660.167,554.165z"/>
		<path fill="#FF7BAC" d="M629.081,561.33c0,0,7.919,9.334,11.087,15.167c3.166,5.833,6.154,11.5,10.91,22.333
			s6.506,19.334,8.047,23.167c1.543,3.833,4.876,12.999,6.876,19.166s4.531,14.333,5.766,19s5.401,14.666,6.901,18
			s3.333,11.667,3.333,11.667s-1.985,3.833-2.659,4s-1.508-6.412-1.758-7.829s-5.084-11.916-7.084-16.333
			s-4.666-11.833-6.583-15.083s-8.916-19.417-11.583-24.417c-2.666-5-9.082-18.75-10.749-24.25s-3.499-11.833-5.583-19.083
			s-2-9.501-4-13.834S629.081,561.33,629.081,561.33z"/>
		<path fill="#FF7BAC" d="M629.889,565.999c0,0-0.895,8.164-0.808,12.831s3.087,18.334,4.92,22.834s6.333,18.666,9.333,23.333
			s9.914,18.833,12.207,23.833s6.709,18.045,7.584,20.67s3.25,8.75,3.375,12.25s0.625,5.25,0,7.5s-3,5.395-4.5,7.635
			s-5.629,7.49-7.252,9.24s-3.373,3.75-3.873,4.75s-1.266,1.938-1.266,1.938s0.695,0.636,0.92,1.004
			c0.223,0.368,2.221-1.565,2.471-2.065s0.998-2.333,2.541-3.833c0.452-0.439,0.771-0.75,0.998-0.97
			c0.545-0.53,0.545-0.53,0.545-0.53s0,0.249-0.75,1.583s-0.422,0.833-1.586,2.5s-1.582,2.225-2.164,3.362
			c-0.584,1.138-1.201,2.187-1.201,2.187s0.453,2.614,1.16,2.491s2.036-1.956,2.205-2.623s3.168-5.916,3.836-7.083
			c0.543-0.951,3.525-5.671,4.924-8.104c0.316-0.551,0.552-0.984,0.659-1.23c0.097-0.222,0.211-0.443,0.333-0.657
			c0.607-1.068,1.417-1.959,1.417-1.959s0.667-0.218,0.333,0.366c-0.333,0.584-2.334,3.916-3.416,5.75
			c-1.084,1.834-2.084,4.001-3.709,6.584s-2.541,4.499-3.208,5.916s-1.042,2.194-1.169,3.044s0.828,1.47,1.332,0.963
			s1.42-2.59,2.17-4.09s1.834-3.583,2.834-6s3.25-7.001,3.833-7.667s2-3.334,2.75-4.5s1.417-3.586,2.083-4.251
			c0.667-0.665,0.584-2.081,1.167-1.665s0.866,0.914,0.85,1.665s-0.433,3.352-0.433,3.885s-0.5,1.2-1.584,2.7
			c-1.083,1.5-4.166,6.166-4.833,7.583s-1.583,2.999-2.333,4.583s-1.834,3.75-2.334,5.25s-1.844,1.77-1.125,2.084
			c0.721,0.314,1.715,0.879,2.295,0.272s1.164-2.439,1.747-3.689s1.667-3.583,2.75-5.25s2.5-4.499,3.5-6.083
			s1.366-3.334,2.351-3.917c0.982-0.583,2.027-2.417,2.027-2.417s0.455-6.166,0.539-9.333c0.083-3.167-0.207-7.033-0.539-9.75
			c-0.331-2.717-1.229-4.704-1.229-4.704s-3.251-7.339-4.741-10.942s-6.379-13.609-8.324-17.854
			c-1.943-4.244-6.538-13.816-8.491-17.836s-6.67-13.536-8.351-18.608s-3.621-11.602-5.139-16.87s-2.715-10.93-3.807-14.298
			s-2.025-5.193-2.584-7.068C630.568,568.862,629.889,565.999,629.889,565.999z"/>
		<path fill="#FF7BAC" d="M665.945,719.69c0,0,2.275,0.678,2.59,0.837s0.882-1.107,1.382-2.274s2.25-4.083,2.917-6.75
			c0.666-2.667,2.666-8.75,3.666-10.167s1.167-4.666,1.334-6.583c0.166-1.917,0.035-7.85-0.25-8.752s-2.796-6.849-3.408-8.215
			c-0.613-1.366-1.029-1.944-1.029-1.944s1.268,5.4,1.201,7.161s0.205,6.098,0,7.916s-0.291,4.85-0.422,5.966
			s-0.009,3.284-1.092,6.784c-1.084,3.5-1.834,6.789-2.584,8.562s-2.167,4.522-2.75,5.272S665.391,719.045,665.945,719.69z"/>
	</g>
	<g>
		<path fill="#00FFFF" d="M615.666,186.834c0,0,7,3.666,13,2.833s17.167-2.333,25,2s14.838,7.834,15.169,17.167
			s1.664,11-5.503,16.167c-7.166,5.167-11.833,10-19.833,12s-9.499,0.917-14.833-1.708s-7.334-5.292-9.167-9.792
			s-1.666-10.5-0.333-14.833s1.5-4.833,1.166-10.667c-0.333-5.833-1.666-9.167-3.166-11.167S615.666,186.834,615.666,186.834z"/>
		<path fill="#00FFFF" d="M743.913,184.841c0,0-6.989,3.685-12.991,2.869c-6.003-0.816-17.174-2.286-24.995,2.069
			c-7.82,4.355-14.815,7.875-15.121,17.209c-0.305,9.334-1.633,11.004,5.548,16.151c7.181,5.146,11.861,9.967,19.866,11.945
			c8.006,1.978,9.502,0.891,14.828-1.75c5.327-2.64,7.319-5.312,9.14-9.817c1.821-4.505,1.638-10.505,0.292-14.834
			c-1.345-4.329-1.513-4.829-1.195-10.663c0.316-5.834,1.641-9.171,3.135-11.175C743.913,184.841,743.913,184.841,743.913,184.841z"
			/>
	</g>
	<g>
		<path fill="#FF00FF" d="M597.166,202.5c0,0-6.332-5.832-5.832-15.666s3.999-15.834,5.832-28
			c1.834-12.167,5.834-13.876,9.668-16.105c3.832-2.229,11.332-6.395,11.332-6.395s-1.333,0.5,1.5,0
			c2.834-0.5,10-1.082,13.334,1.792s4,4.164,6.334,4.603c2.332,0.438,0.964,0,0.964,0s-11.464,13.438-17.464,17.771
			s-18.001,17.667-20.668,22.833C599.5,188.5,597.166,202.5,597.166,202.5z"/>
		<path fill="#FF00FF" d="M607.584,182.083c0,0,15.582-14.167,28.416-17.5c12.833-3.333,31.333-16.677,31.333-16.677
			s-4.251-3.323-12.417-3.24s-14.618-1.939-14.618-1.939s-11.878,13.184-14.671,15.478s-12.467,11.06-15.701,14.886
			s-6.649,8.398-6.649,8.398S606.334,181.418,607.584,182.083z"/>
		<path fill="#FF00FF" d="M635.582,238.914c0,0,8.5,1.667,11.834,0c3.333-1.667,18.666-10.917,22.583-16.333
			s3.999-4.333,4.166-8.833s0.001-19,0-21.583s-0.752-23.75-0.669-25.167c0.084-1.417,2.166-10.333-1.75-15.333
			s-4.413-3.758-4.413-3.758s-15.847,10.202-19.942,12.13s-15.012,5.56-17.553,6.813c-2.54,1.254-11.561,6.584-15.313,9.548
			s-6.94,5.685-6.94,5.685s5.625,2.708,6.854,3.729s1.229,1.021,1.229,1.021s5.432,2.433,8.132,2.692s7.087-0.046,12.582-0.692
			s8.917,0.115,10.769,0.547c1.854,0.432,4.663,1.159,8.504,3.383c3.84,2.225,8.248,4.799,10.642,8.143s2.585,7.897,2.719,11.528
			s0.106,5.429-0.179,6.276s-1.547,3.136-2.999,4.324s-13.056,9.79-13.056,9.79s-5.139,2.969-7.209,3.573
			c-2.071,0.604-7.563,2.005-9.508,1.638s-3.504-0.899-3.504-0.899L635.582,238.914z"/>
		<path fill="#FF00FF" d="M762.457,200.455c0,0,6.315-5.85,5.788-15.682s-4.043-15.823-5.909-27.984
			c-1.868-12.162-5.873-13.86-9.713-16.078c-3.838-2.218-11.35-6.364-11.35-6.364s1.334,0.497-1.5,0.004
			c-2.836-0.492-10.003-1.054-13.329,1.83s-3.988,4.175-6.321,4.62c-2.331,0.445-0.964,0.002-0.964,0.002
			s11.501,13.406,17.513,17.723c6.013,4.316,18.051,17.617,20.731,22.776S762.457,200.455,762.457,200.455z"/>
		<path fill="#FF00FF" d="M751.982,180.068c0,0-15.621-14.124-28.465-17.42c-12.842-3.297-31.379-16.59-31.379-16.59
			s4.241-3.334,12.408-3.274c8.166,0.061,14.612-1.979,14.612-1.979s11.914,13.15,14.714,15.437
			c2.799,2.286,12.497,11.024,15.742,14.842s6.673,8.379,6.673,8.379S753.23,179.398,751.982,180.068z"/>
		<path fill="#FF00FF" d="M724.143,236.976c0,0-8.496,1.69-11.834,0.033s-18.696-10.865-22.629-16.271
			c-3.932-5.406-4.011-4.322-4.19-8.821s-0.054-19-0.06-21.583s0.686-23.752,0.599-25.168c-0.088-1.417-2.194-10.327,1.708-15.338
			c3.901-5.011,4.402-3.77,4.402-3.77s15.875,10.158,19.976,12.075c4.102,1.917,15.027,5.518,17.572,6.765
			c2.543,1.247,11.578,6.553,15.34,9.505c3.761,2.953,6.956,5.666,6.956,5.666s-5.617,2.723-6.844,3.748
			c-1.226,1.025-1.226,1.025-1.226,1.025s-5.425,2.447-8.124,2.714c-2.699,0.267-7.087-0.027-12.584-0.658
			c-5.497-0.63-8.916,0.14-10.767,0.577c-1.853,0.437-4.66,1.171-8.495,3.407c-3.833,2.235-8.234,4.822-10.618,8.172
			c-2.385,3.35-2.563,7.904-2.687,11.535c-0.124,3.631-0.092,5.43,0.195,6.275c0.288,0.846,1.556,3.132,3.012,4.315
			c1.455,1.184,13.082,9.753,13.082,9.753s5.147,2.955,7.22,3.553c2.072,0.599,7.568,1.984,9.512,1.611s3.502-0.909,3.502-0.909
			L724.143,236.976z"/>
	</g>
	<g>
		<path fill="#662D91" d="M620.449,228.667c0,0-1.949,7.333-1.783,12.333c0.168,5,0.834,8.167-1.5,14.667
			c-2.332,6.5-6.999,10.167-9.582,12.5c-2.584,2.333-10.25-2.333-11.75-4.833s-3-7-3-10.667s0.5-18.5,1.666-26.167
			s1.6-18.381,2.666-24s1.283-6.8,1.758-8.787s0.711-3.891,1.852-6.879s2.501-5.344,2.501-5.344s3.593,0.17,6.212,1.534
			c2.617,1.364,4.722,2.64,5.824,3.517c1.104,0.876,2.904,3.873,3.257,4.764s1.455,4.341,1.642,7.108
			c0.186,2.768,0.57,6.572,0.238,7.754s-1.272,4.198-1.56,5.494s-0.899,5.415-0.714,7.422c0.187,2.008,1.278,6.515,1.933,7.822
			S620.449,228.667,620.449,228.667z"/>
		<path fill="#662D91" d="M593.949,198.148c0,0,1.98,3.061,2.599,3.706s0.618,0.646,0.618,0.646s-0.992,7.84-1.225,10.449
			c-0.234,2.609-1.031,12.305-1.674,15.24s-1.38,20.932-1.404,22.37c-0.025,1.438-0.571,9.69-0.029,13.753
			c0.541,4.062,1.416,18.188,1.416,24s-2.125,17.562-3.125,21.938s-2.625,10.75-5,16.375s-4.375,14-4.625,20.75
			s-1.125,22.125-1.125,22.125s-1-2.875-2.125-7.875s-3-20.375-3.125-25S574.5,321,574.25,314.25s-4.375-16.75,3.5-38.75
			s8.25-9.75,10.375-27.75s1.75-20.5,2-27.25s3.375-20,3.375-20S594.391,198.987,593.949,198.148z"/>
		<path fill="#662D91" d="M618.878,245.998c0,0,1.878,13.877,0,19.252s-4.378,13.648-4.378,18.574s-2.25,19.176-10,33.301
			s-14.125,24.5-16.375,29.125s-7.68,22.004-7.715,22.627s0.905-20.782,1.224-23.637s1.278-8.673,2.025-11.264
			s3.885-10.657,4.864-13.969c0.979-3.312,3.391-12.762,4.203-18.115c0.814-5.354,1.751-10.293,1.462-16.902
			s-0.107-2.868-0.107-2.868s6.169-9.936,12.169-13.32s7.003-6.205,7.509-6.897s3.476-5.3,4.188-8.668
			S618.978,248.571,618.878,245.998z"/>
		<path fill="#662D91" d="M573.271,293.991c0,0-5.602,23.674-5.602,31.507s0.499,8-0.834,21.5s-4.333,20.5-4.833,26.333
			s-4.918,26.696-5.625,27.848c-0.709,1.152,2.23,0.939,2.23,0.939s4.58-18.558,4.705-19.683s-2.891,20.088-3.072,20.055
			s1.873,0.25,1.873,0.25S566.375,384.25,566.5,383s-1.6,19.558-1.731,19.742s2.731,0.283,2.731,0.283s2.625-26.775,2.375-27.9
			s2.062,5.938,2.062,8.812s0.262,18.611,0.262,18.611l2.402-0.919c0,0-0.664-22.505-1.102-23.567s5.506,6.188,6.909,9.688
			s3.29,8.847,3.29,8.847l2.002-0.144c0,0-0.051-0.262-0.141-0.689c-0.287-1.357-0.973-4.383-1.686-5.951
			c-0.938-2.062-5-9.25-6.25-10.875s-3.478-6.062-4.676-7.312c-1.199-1.25-2.106-12.125-1.965-13.938
			c0.141-1.812,3.016,11,4.641,12.688s5.25,7.75,6,9.75s2.062,4.125,2.625,6.438s1.699,9.872,1.699,9.872s1.931-0.411,2.053-1.392
			c0.123-0.98-1.189-11.855-2.002-14.543s-5.625-11-5.625-11s-3.183-11.33-3.498-16.196c-0.314-4.866-1.717-15.744-1.777-17.555
			c-0.062-1.811-0.628-15.875-0.628-15.875s-0.514-8.531-0.818-10.923S572.791,302.545,573.271,293.991z"/>
		<path fill="#662D91" d="M739.246,226.687c0,0,1.97,7.328,1.818,12.328c-0.154,5-0.812,8.169,1.54,14.663
			c2.351,6.493,7.027,10.147,9.617,12.473c2.591,2.326,10.243-2.362,11.736-4.866c1.493-2.504,2.98-7.008,2.971-10.675
			c-0.011-3.667-0.552-18.498-1.739-26.162c-1.188-7.664-1.65-18.377-2.732-23.993s-1.302-6.796-1.782-8.782
			c-0.48-1.986-0.722-3.889-1.871-6.874c-1.148-2.985-2.516-5.337-2.516-5.337s-3.592,0.181-6.207,1.551
			c-2.614,1.371-4.715,2.653-5.814,3.533c-1.102,0.879-2.894,3.88-3.244,4.772c-0.35,0.892-1.442,4.345-1.622,7.113
			c-0.178,2.768-0.552,6.574-0.217,7.755c0.336,1.182,1.284,4.194,1.575,5.489c0.291,1.295,0.915,5.412,0.734,7.42
			s-1.26,6.518-1.911,7.828C738.932,226.233,739.246,226.687,739.246,226.687z"/>
		<path fill="#662D91" d="M765.662,196.095c0,0-1.973,3.066-2.589,3.713c-0.616,0.647-0.616,0.647-0.616,0.647
			s1.014,7.837,1.254,10.446c0.241,2.609,1.065,12.302,1.716,15.235c0.65,2.934,1.438,20.928,1.467,22.366
			c0.029,1.438,0.598,9.689,0.067,13.753c-0.529,4.064-1.365,18.191-1.35,24.004c0.017,5.812,2.174,17.557,3.186,21.929
			c1.013,4.372,2.655,10.743,5.046,16.361c2.391,5.619,4.414,13.988,4.683,20.737c0.27,6.749,1.187,22.122,1.187,22.122
			s0.992-2.877,2.104-7.881c1.11-5.003,2.943-20.383,3.056-25.008c0.111-4.625,0.581-15.627,0.812-22.377
			c0.231-6.751,4.328-16.762-3.607-38.74c-7.937-21.978-8.277-9.727-10.452-27.721c-2.175-17.994-1.808-20.495-2.076-27.244
			c-0.269-6.75-3.431-19.991-3.431-19.991S765.223,196.934,765.662,196.095z"/>
		<path fill="#662D91" d="M740.866,244.013c0,0-1.84,13.883,0.054,19.252c1.893,5.37,4.416,13.636,4.43,18.562
			s2.303,19.169,10.092,33.273s14.193,24.46,16.456,29.08c2.263,4.619,7.741,21.982,7.778,22.605
			c0.036,0.623-0.964-20.779-1.29-23.633c-0.326-2.854-1.302-8.669-2.057-11.259c-0.754-2.589-3.914-10.646-4.903-13.955
			c-0.987-3.309-3.426-12.752-4.253-18.104c-0.829-5.351-1.78-10.288-1.509-16.898c0.271-6.61,0.1-2.869,0.1-2.869
			s-6.197-9.919-12.206-13.287c-6.01-3.367-7.021-6.185-7.528-6.876s-3.49-5.29-4.212-8.657
			C741.097,247.881,740.773,246.586,740.866,244.013z"/>
		<path fill="#662D91" d="M786.606,291.879c0,0,5.668,23.659,5.689,31.492s-0.477,8.002,0.894,21.498
			c1.371,13.497,4.391,20.488,4.906,26.32c0.516,5.832,4.992,26.682,5.702,27.832c0.712,1.15-2.228,0.946-2.228,0.946
			s-4.632-18.545-4.76-19.67s2.946,20.08,3.128,20.046c0.182-0.033-1.872,0.256-1.872,0.256s-4.313-18.481-4.441-19.73
			c-0.129-1.25,1.653,19.553,1.786,19.737c0.132,0.185-2.73,0.291-2.73,0.291s-2.7-26.768-2.453-27.894
			c0.247-1.125-2.046,5.943-2.038,8.818c0.008,2.875-0.21,18.612-0.21,18.612l-2.404-0.912c0,0,0.602-22.507,1.036-23.57
			c0.434-1.063-5.489,6.203-6.883,9.707c-1.394,3.504-3.266,8.855-3.266,8.855l-2.002-0.138c0,0,0.05-0.262,0.139-0.69
			c0.283-1.358,0.961-4.385,1.669-5.956c0.932-2.064,4.975-9.263,6.22-10.892c1.246-1.629,3.461-6.072,4.655-7.326
			c1.196-1.253,2.073-12.131,1.927-13.943s-2.985,11.008-4.605,12.7c-1.621,1.692-5.229,7.765-5.973,9.767
			c-0.745,2.002-2.052,4.131-2.607,6.445c-0.557,2.313-1.672,9.876-1.672,9.876s-1.932-0.405-2.057-1.386
			c-0.126-0.979,1.156-11.858,1.961-14.548c0.806-2.689,5.595-11.016,5.595-11.016s3.151-11.339,3.453-16.206
			c0.301-4.867,1.673-15.749,1.729-17.56c0.057-1.811,0.584-15.877,0.584-15.877s0.49-8.532,0.788-10.925
			C786.563,304.447,787.11,300.432,786.606,291.879z"/>
	</g>
	<g>
		<path fill="#00FF00" d="M679.342,13.332c0,0,8.66,0.5,11.826,1.833c3.167,1.333,6.167,3,9.5,5.833
			c3.334,2.833,3.668,3.334,4.834,5.167s3.166,5.167,4.166,8s1.334,6.5,1.167,10.167s0.333,6.333-0.667,10s-0.332,2.833-0.166,4
			s3-0.667,3.833,1.167s0.667,2,0.667,4.5s-1,5-1.834,6.833c-0.833,1.833-2.332,3.333-2.166,4.833s0.5,3.333-0.167,4.667
			s-3.166,2.333-3.833,2.667s-0.833,6.334-2,9.167s-1.5,5-3.834,8.5c-2.333,3.5-5,5.667-7,7.167s-3.5,2.667-4.5,3.167
			s-10.333,0.667-12.5,0c-2.166-0.667-7-2.167-7.833-2.667s-7.167-5.167-9.167-8.167s-5.5-6.333-5.333-7s-2.333-9.167-2.167-9.667
			c0.167-0.5-3.999-0.167-4.666-0.667s-0.334-4.167-2.334-6s-4.5-9.167-4.5-10s-0.833-5,0-6.833
			c0.834-1.833,3.667-2.333,4.667-1.667s0.414-0.082,0.414-0.082s-1.167-13.5-0.083-19.25c1.083-5.75,0.833-6.166,2.333-8.999
			s5.917-8.5,11.333-11.25c5.417-2.75,12.25-5.005,16.167-5.419S679.342,13.332,679.342,13.332z"/>
		<path fill="#00FF00" d="M590.812,391.312c0,0,0.688,4.5,0.5,6.5S590.314,402,591.345,405s1.343,1.75,1.468,2.625
			s0,5.438,0.312,7.062s0.812,2.5,0.562,4.062s-0.938,2.312-2.062,2.562s-3.188-0.875-3.938-1.625s-3.375-4.125-3.625-6.375
			s1.125-5.562,0.625-7.375s-1.875-5.188-2.438-5.312s-0.375,0.25-0.375,0.25s1,2.062-1.188,4S578,406.75,578,406.75
			s-0.125,3.188-0.75,4.438s-0.062,1.75,0,3.812s1.188,6.625,1,7.875s2.688,3.312,3.188,4.812s4.312,3.938,4.625,5.75
			s0.562,3.062,0.25,4.25s-0.412,1.062-0.956,1.375s-3.606-1.75-4.481-2.938s-6.188-4.938-6.812-6.25
			c-0.099-0.208-0.249-0.44-0.434-0.691c-0.982-1.335-2.928-3.19-3.191-4.559c-0.312-1.625,0.25-3.375,0-4.812
			s-1.5-6.812-2.812-9.188s-2-2.25-1.938-3s1.562,2.812,2.188,5.062s1.75,4.312,1.75,6.5s0.062,3.5,0.375,5.125
			s1.062,2.188,1.938,3.375s-2.438-0.438-4-1.375s-3.938-2.5-4.125-4c-0.18-1.434-1.1-5.605-1.563-8.319
			c-0.021-0.126-0.042-0.249-0.062-0.368c-0.438-2.688-0.562-2.75-1.625-4.375s-1.312-1.875-1.688-2.438s1.062,1.875,1.812,3.375
			s0.875,2.375,0.938,3s0.375,0.812,0.5,2.5s0.562,2.25,0.625,2.875s-2.312-2.031-2.562-3.359s-2.75-4.891-3.688-6.641
			s-1.25-1.75-2.125-3.125S552.688,403,552.75,401s-0.319-2.875-0.004-3.438c0.316-0.562,0.504-1.188,0.879-0.375s0.312,2.25,2,3.5
			s3.875,1.875,7.312,2.125s6.875,0.438,9.688-0.375s4.625-2.75,7.562-4.25s2.5-1.562,4.688-1.688s2.25,0,3.625-2.25
			S590,391.5,590.812,391.312z"/>
		<path fill="#00FF00" d="M648.626,712.25c0,0,1.854,0.584,2.521,2.916c0.667,2.334,0.636,3.959,3.969,4.292
			c3.334,0.333,9.568-1.021,13.734,1.229c4.168,2.25,5.076,0.406,5.076,4.323s-0.421,5.744-1.588,7.244
			c-1.166,1.5-3.668,1.748-4.502,2.165c-0.832,0.417-0.834,0.581-0.834,0.581H667c0,0,0.168-1.668-0.248,1.249
			c-0.418,2.917,0.166,3.334-2.084,5.084s-4.833,2.417-6.916,2c-2.084-0.417-5-1.334-6-3.084c-0.242-0.423-0.411-0.842-0.513-1.247
			c-0.138-0.551-0.151-1.078-0.056-1.56c0.124-0.629,0.436-1.181,0.9-1.609c0.211-0.194,0.399-0.345,0.57-0.461
			c0.711-0.48,1.127-0.373,1.598-0.373c0.582,0,1.832-3.082,3.832-3.916s1-4.25,1.75-4.917s-0.115-0.979-0.396-0.791
			s-0.344,0.344-0.312,0.75s0.062,0.375,0.094,1.281s0.125,1.156-0.094,1.844s-0.562,1.188-1,1.5s-3.34,2.914-3.438,3.469
			s-0.672,0.178-1,0.5s-1.906,0.688-2.312,1.719s0.125,3.219,0.031,3.781s-0.562,0.875-1.781,1.031s-4.125,0.188-4.812-0.5
			s-1.75-2.344-1.656-3.375s0.438-1.969,0.844-2.406s1.531-1.156,3.188-2.281s2.875-2.844,3.5-3.594s1.688-2.094,2.438-2.406
			s1.75-1.625,1.938-2.031s-0.188-1.75-0.719-1.031s-0.219,0.594-0.438,1.312s-0.25,0.969-0.562,1.281s-1.689,1.396-1.75,1.633
			s-2.344,2.836-3.125,3.523s-2.594,1.906-2.969,2.188s-2.123,1.527-2.062,1.906s0.02,0.406-0.287,0.688s-2.994,0.156-3.15-1.5
			s-0.469-1.969-0.156-2.625s1.25-1.875,1.875-2.156s1.906-1.594,2.25-1.875s1.531-0.938,2.125-1.688s1.375-1.625,2.094-2.312
			s1.25-0.969,1.5-1.406s0.781-1.375,0.094-1.406s-0.594,0.438-0.688,0.75s-0.562,0.375-1.156,1.219s-1.375,1.906-1.781,2.344
			s-1.25,1.25-1.781,1.719s-1.594,1.625-2.062,1.969s-1.375,0.906-1.688,1.25s-0.719,1.594-1.156,1.875s-2.281-1.25-1.875-4.094
			s0.938-2.75,1.062-2.875c0.029-0.029,0.125-0.111,0.261-0.225c0.442-0.37,1.304-1.067,1.614-1.307
			c0.218-0.167,0.588-0.576,0.975-1.002c0.337-0.37,0.688-0.752,0.963-0.998c0.185-0.165,0.414-0.393,0.65-0.629
			c0.527-0.527,1.093-1.1,1.287-1.121c0.281-0.031,1.125-0.406,1.188-0.75s-0.188-0.75-0.406-0.469s-0.678,0.431-0.906,0.938
			s-0.844,0.719-1,0.875s-2.438,2.625-2.781,2.906s-2.469,1.812-2.5,2.031s-0.375,1-0.719,1.031s-2.406-1.562-1.469-4.938
			c0,0,1.375-1.625,1.594-1.625s1.156-1.406,1.562-1.75s1.312-1.25,2.406-1.75s2.281-0.688,2.562-1.344s1.25-2.688,2.031-2.812
			S647.877,712.188,648.626,712.25z"/>
		<path fill="#00FF00" d="M675.188,730.625c0,0-1.898,3.312-1.262,7.688s2.012,5.75,2.449,6.562s0.312,5.688,0.438,6.75
			s2.625,4.562,4.25,5.25s7.438,0.812,8.375,0s0.812-2.625,0.875-4.438c0.047-1.359-0.328-2.543-0.809-3.472
			c-0.16-0.31-0.332-0.591-0.504-0.841c-0.688-1-2-1.938-2.188-2.812s-0.062-3.188,0.688-3.75s2.188-1.562,2.438-0.562
			s0.57,1.438,0.379,2.688s-0.566,2.062-0.566,2.875s-0.062,1.25,0.062,1.875s0.812,3.438,0.812,4.812s0,2.438,0.812,3.312
			s3.375,1.5,5.062,1.375s2.875-0.875,3.312-1.562c0.354-0.558,0.422-1.319,0.435-2.188c0.003-0.203,0.003-0.412,0.003-0.625
			c0-1.125-0.938-2.188-1.25-3.125s-1.312-1.875-1.438-3.125c-0.019-0.184-0.039-0.369-0.062-0.555
			c-0.132-1.083-0.321-2.171-0.375-2.758c-0.062-0.688-1.5-1.625-1.438-3.062s-0.062-2.5,0.438-2.375s0.875,1.188,0.875,2
			s0.25,1.29,0,2s0.813,3.985,1,5.188s2.062,4.875,2.625,6.188s1.312,1.062,2,1s1.75-0.812,2.188-1.562s0.938-1.688,1-2.75
			s0.188-1.875,0-2.688s-0.562-1.438-1.188-2.75c-0.291-0.609-0.621-0.936-0.905-1.199c-0.326-0.303-0.59-0.52-0.657-0.988
			c-0.125-0.875-0.562-1.875-0.5-2.688s-0.062-2.062,0.375-1.938s0.938,0.625,0.938,1.188s0.062,1-0.125,1.875
			s0.062,0.938,0.188,1.625s1.625,5.75,2.375,7.125s3.375,0.812,3.625,0.375s1.312-1.5,1.312-2.812s0.562-3.938,0-5.188
			s-1.75-2.812-1.875-3.938s0-2.438,0.375-2.812s1.125,0.25,1.25,0.938s-0.375,2.312-0.312,2.938s0.688,3.125,1.125,4.188
			s0.875,2.125,1.938,2.25s2.188-0.922,2.5-1.836s1.562-5.539,1.312-8.602s-1.5-2.688-1.875-3.438s-0.375-2.188-0.625-3.625
			s-0.75-3-1.188-3.562s-1.562-0.5-2,0.625s-0.312,3.312-1,4.625s-2.75,2.125-5.562,2.5S696,734,691.625,734.375
			s-10.379,0.938-12.283,0.625s-3.529-2.375-3.842-3.375S675.188,730.625,675.188,730.625z"/>
		<path fill="#00FF00" d="M654.914,374.589c0,0,16.834,15.167,21.25,24.333c4.417,9.167,6.666,7.334,7.584,6.917
			c0.916-0.417,0.916-0.417,0.916-0.417s0.336,0.614,1.211,0.846s2.438-0.394,3.312-1.769s3.562-10,6.562-13.75
			s9.125-11.125,11-12.75s2.938-2.634,3.625-3.411s-16.562,8.536-25.625,8.411s-26.125-7.538-28.375-8.457
			S654.914,374.589,654.914,374.589z"/>
		<path fill="#00FF00" d="M769.335,389.249c0,0-0.675,4.502-0.481,6.502c0.193,1.999,1.01,4.185-0.013,7.188
			c-1.021,3.003-1.338,1.753-1.46,2.629c-0.123,0.875,0.015,5.438-0.293,7.063c-0.309,1.626-0.806,2.502-0.551,4.063
			c0.254,1.562,0.943,2.311,2.069,2.557c1.126,0.247,3.185-0.884,3.933-1.636s3.363-4.134,3.607-6.385s-1.141-5.56-0.646-7.373
			c0.495-1.814,1.86-5.193,2.423-5.319c0.562-0.127,0.375,0.249,0.375,0.249s-0.994,2.065,1.199,3.996
			c2.193,1.932,2.692,1.868,2.692,1.868s0.134,3.187,0.763,4.436c0.629,1.248,0.067,1.749,0.011,3.812
			c-0.058,2.062-1.169,6.628-0.979,7.877c0.191,1.25-2.679,3.32-3.174,4.821c-0.496,1.502-4.302,3.95-4.609,5.764
			c-0.308,1.812-0.554,3.063-0.238,4.25c0.316,1.187,0.415,1.062,0.96,1.373c0.545,0.311,3.602-1.761,4.474-2.95
			c0.872-1.19,6.174-4.955,6.795-6.27c0.099-0.208,0.248-0.44,0.432-0.692c0.979-1.338,2.919-3.198,3.179-4.567
			c0.309-1.626-0.26-3.374-0.014-4.812s1.481-6.816,2.787-9.195c1.307-2.379,1.994-2.256,1.93-3.005
			c-0.064-0.75-1.555,2.816-2.174,5.068s-1.738,4.317-1.731,6.505c0.006,2.188-0.053,3.5-0.361,5.126
			c-0.308,1.626-1.056,2.19-1.928,3.38c-0.872,1.19,2.437-0.444,3.996-1.386s3.931-2.511,4.114-4.012
			c0.175-1.434,1.084-5.608,1.54-8.323c0.021-0.126,0.041-0.249,0.061-0.368c0.43-2.689,0.555-2.752,1.612-4.38
			c1.059-1.628,1.308-1.879,1.681-2.442c0.374-0.563-1.057,1.878-1.803,3.38c-0.746,1.503-0.868,2.378-0.929,3.003
			c-0.062,0.625-0.373,0.813-0.494,2.501c-0.119,1.688-0.556,2.252-0.616,2.877c-0.062,0.625,2.307-2.037,2.553-3.366
			c0.247-1.329,2.736-4.898,3.669-6.65c0.933-1.753,1.245-1.754,2.117-3.132c0.871-1.377,1.68-2.441,1.612-4.441
			c-0.068-2,0.312-2.876-0.006-3.438s-0.507-1.187-0.88-0.373s-0.307,2.251-1.99,3.506s-3.87,1.886-7.307,2.146
			s-6.874,0.456-9.688-0.349s-4.633-2.736-7.574-4.229c-2.942-1.492-2.505-1.556-4.692-1.675c-2.188-0.118-2.25,0.007-3.631-2.239
			C770.274,389.935,770.148,389.435,769.335,389.249z"/>
	</g>
</g>
<!-- arm bent -->
<g>
	<path fill="#000" d="M1034,134.333c0,0-1,8.167,0,13.833s2,18.5-1.5,22.667s-9.167,9.333-17,8.333
		c-7.834-1-16.5-3.667-22.5-8.833s-6.667-3.666-8-6.833c-1.334-3.167-1.5-9.167,0-16s5.5-11,10.666-13.167s15.166-3,19.5-2
		s6.5,1.5,10.666,2.167C1030,135.167,1032.5,134.833,1034,134.333z"/>
	<path fill="#FF00FF" d="M1013.084,86.583c0,0,3.666,3.542,6.499,8.792c2.834,5.25,12.459,14.396,17.876,17.729
		c5.416,3.333,12.104,6.698,17.354,10.198s7.188,7.114,7.188,7.114V111c0,0-1.713-8.962-3.648-11.189s-6.185-15.558-20.518-17.685
		c-14.334-2.126-7.084,0.457-15.667,3.29S1014.417,86.333,1013.084,86.583z"/>
	<path fill="#FF00FF" d="M1042.084,117.25c0,0-15.25-7-18.5-9.833s-14.418-8.25-17.584-9.333s-13.834-4.333-16.584-4.667
		s-5.5-0.413-5.5-0.413s1.277-3.17,3.139-3.837s2.695-1.75,5.029-1.75c2.332,0,5.333-0.167,9,0c3.666,0.167,12-0.834,12-0.834
		s3.131,3.543,3.89,4.639s4.017,6.412,4.755,7.333c0.736,0.92,5.118,5.762,6.5,7.056c1.381,1.293,6.895,6.142,10.021,7.974
		s5.897,3.374,8.674,4.966s4.029,2.332,4.029,2.332L1042.084,117.25z"/>
	<path fill="#FF00FF" d="M1034,134.333c0,0,5.059-14.443,7.416-15.417c2.356-0.974,1.627-1.273,1.627-1.273
		s-8.227-3.859-9.359-4.431c-1.131-0.571-6.186-3.216-7.364-3.942s-3.903-2.837-5.372-3.722c-1.467-0.885-7.424-4.092-8.533-4.628
		c-1.11-0.536-7.275-3.158-9.902-3.96s-8.426-2.477-9.445-2.736c-1.018-0.259-5.465-1.026-6.97-1.11s-2.181-0.11-2.181-0.11
		s-3.084,2.912-3.5,5.245c-0.417,2.333-1.584,5.333-1.584,9s-0.497,5.067-0.54,9.575s-0.04,6.925,0,9.758s-0.02,9.499-0.031,11.999
		s0.179,8.25,0,10.833s-0.155,7.917-0.001,9.167c0.156,1.25,2.53,5.167,5.676,7.5c3.146,2.333,8.312,6.166,11.896,7.666
		c3.582,1.5,6.833,3.75,10.25,4.75c3.416,1,11.332,1.833,12.916,1.667s6.847-3.363,6.847-3.363s-4.079,2.208-6.338,2.347
		s-6.11,0.02-10.067-1.078s-9.343-2.937-11.815-4.502s-5.925-4.423-7.306-5.387s-3.495-1.861-4.217-2.871
		c-0.723-1.01-2.52-4.019-2.166-8.896s0.896-10.035,2.227-12.632s3.801-6.481,6.652-7.965s6.32-3.154,11.585-3.526
		s8.569-0.449,11.787,0.277s7.331,1.645,9.646,1.932c2.316,0.287,4.981,0.45,6.076,0.275
		C1033.002,134.601,1034,134.333,1034,134.333z"/>
	<path fill="#662D91" d="M1064.669,190c0,0-9.666-5.501-17.499-19.334c-7.834-13.833-7.795-14.416-8.92-20.666
		s-2.375-10.423-2.25-18.086s2.294-8.417,3.045-9.765s1.787-2.771,2.898-3.463c1.113-0.692,1.1-1.043,1.1-1.043
		s4.65,1.905,5.402,2.213s4.902,2.185,7.227,4.042s5.516,4.935,6.328,6.519s3.938,10.521,4.438,15.896s0.375,7.509,0.375,7.509
		s-3.75,5.054-4.312,11.741s0,11.147,0.5,13.73S1064.65,188.875,1064.669,190z"/>
	<path fill="#662D91" d="M1062,123.75c0,0,5.312,9.564,5.938,12.845s1.562,11.343,1.312,12.843s-2.438,4.384-2.438,4.384
		s-0.133-7.458-0.829-10.48s-2.192-8.21-2.672-9.552s-1.374-3.664-1.374-3.664L1062,123.75z"/>
	<path fill="#662D91" d="M1081.834,117.643c0,0-3.666,18.191-7.166,25.191s-10.334,16-11,29c-0.667,13,1.946,22.667,1.946,22.667
		s4.72-1.917,6.302-1.333c1.584,0.583,3.834,1.833,3.834,1.833s3.5-4.334,4.833-9.667s2.917-19.25,3.167-23.917
		s1.416-19.166,1.416-23s-0.25-20.383-0.333-20.775S1081.834,117.643,1081.834,117.643z"/>
	<path fill="#662D91" d="M1092.875,199.875c0,0,3.75-2.375,5.5-7.75s2.5-16.75,2.125-20.75s-2.467-31.554-2.875-34.78
		c-0.25,1.405-2.125-13.329-3.25-15.712s-3.5-7.383-6-8.883s0.5,3.148,1.25,4.824s1.125,3.926,0.75,6.926s-1.375,3.125-1.75,3.625
		s-0.625,6.625-0.5,7.125s0,17.75,0.125,20s1,12.25,1,14.375s0,10.5-0.5,13.75S1087.875,196.5,1092.875,199.875z"/>
	<path fill="#662D91" d="M1086.875,115.312c0,0-0.625,1.5-4.5,0s-5.316-3.983-6.553-5.063s-3.738-3.313-4.752-4.369
		c-1.015-1.056-2.262-2.348-2.48-3.139s-0.38-2.554-0.38-2.554s8.54,4.375,10.915,6.188s5.562,4.125,5.562,4.625
		S1086,114.625,1086.875,115.312z"/>
	<path fill="#662D91" d="M1099.178,154.986c0,0-0.072-37.986,0-42.236s0.738-6-0.032-8s-16.592-23.828-17.181-24.539
		c-0.59-0.711-3.049,1.497-3.049,1.497s13.326,16.792,15.08,19.917s2.379,7.25,2.629,9.5s-2.125-4.5-5-8
		s-15.712-17.718-15.712-17.718l-2.02,2.9c0,0,16.981,16.693,18.106,18.818s3.375,5.75,3.5,7.125s-1.504-0.75-1.504-0.75
		s-8.251-9.375-9.936-11.25c-1.686-1.875-9.629-8.628-11.186-9.246s-1.411-0.85-1.411-0.85l-1.359,2.164
		c0,0,12.599,9.941,13.956,11.562c1.356,1.62-8.972-6.253-12.311-7.13s-3.339-0.876-3.339-0.876l-0.201,2.313
		c0,0,10.234,5.662,12.183,7.149c1.949,1.487,2.52,2.48,4.188,3.447s1.841,0.629,2.817,0.923s6.099,5.859,6.977,9.177
		s2.152,10.475,2.348,11.622s1.286,8.079,1.492,10.575S1099.178,154.986,1099.178,154.986z"/>
	<path fill="#00FF00" d="M1083.25,79.999c0,0-3.416,0.333-4.334,1.708c-0.916,1.375-2.957,3.5-3.875,4.833
		c-0.916,1.333-5.166,8.166-6,9.458c-0.833,1.292-1.25,5.333-0.25,7.208s7,7.042,7.625,7.542s4.791,3.542,4.791,3.542
		s1.959,1.625,0.668,2.292c-1.293,0.667-2.5-0.125-4.375-1.375s-9.459-7.666-10.418-9.208c0,0-2.166-1.333-2.582-2
		c-0.418-0.667-1.459-1.708-1.75-2.125c-0.293-0.417-3.168-0.583-3.668-1.333s-2.166-1.674-2.416-2.129s-7.125-2.163-9.125-3.58
		s-3.208-1.583-4.416-2.583c-1.209-1-2.792-2.583-2.75-3.333c0.041-0.75,0.832-1.167,1.457-1.042s3.293,0.667,4.293,1.167
		s2.791,0.875,3.707,1.125c0.918,0.25,2.792,0.25,3.625,0.833c0.834,0.583,1.834,0.625,2.709,0.875s2.916,1.209,3.458,1.417
		s1.458,0.458,2.188,0.958s0.771,0.667,1.354,0.667s0.625,0.208,0.5-0.375s-0.25-1-1.042-1.125s-3.833-1-4.667-1.5
		c-0.833-0.5-1.916-0.833-2.666-1s-3.084-0.542-4.167-0.792s-4.208-0.958-4.833-1.292s-3.25-1.083-4.084-1.208
		c-0.833-0.125-1.5,0.042-2.5-0.25s-2.041-1-2.5-2.75c-0.458-1.75,0.209-1.625,0.5-1.667c0.292-0.042,1.293-0.25,1.959-0.208
		s1.209,0.125,2.5,0.583s2.041,0.417,3.666,0.708s3.209,0.375,4.667,0.542s2.459,0.458,3.417,0.708s1.958,0.333,3.958,0.792
		s2.25,0.125,4.208,1.042c1.959,0.917,2.917,1.417,3.542,1.583s1.626,0.625,1.917,0.333s-0.375-0.459-0.75-0.792
		s-2.709-0.916-3.584-1.208s-4.832-1.292-5.666-1.625s-2.541-0.667-3.5-0.708s-4.417-0.542-6.209-0.833
		c-1.791-0.292-3.666-0.417-5-0.792c-1.333-0.375-3.582-0.917-4.041-1.167s-1.541-1.292-1.5-2.25s0.25-1.75,1.458-1.708
		s3.208,0.167,5.625,0.417s5.751,0.333,7.042,0.375s2.917-0.083,4.5,0.375c1.488,0.431,3.271-0.133,4.589,0.25
		c0.083,0.024,0.165,0.052,0.244,0.084c1.333,0.542,3.959,1.337,6.792,2.668s3.208,1.498,3.583,1.582s1.958,0.292,2.083-0.208
		s-0.041-0.583-0.708-0.917s-2.417-1.083-3.292-1.083s-3.208-0.666-4.375-1.083c-1.166-0.417-3.25-1.042-3.25-1.042
		s-0.999-0.333-2.041-0.333s-3.959-0.542-4.917-0.542s-5.083-0.167-6.5-0.292s-2.583-0.25-3.583-0.708s-1.042-1.75-0.792-2.458
		s2.667-0.917,5.25-1.417s7.417-2.001,9.501-1.792c2.083,0.208,4.916,0,7.291,0.5s2.208,0,3.125,0.375s2.209,1.958,4.667,3
		s3.124,1.584,4.333,1.792s2.542-0.958,3.917-0.208s1.5,0.958,1.792,1.583c0.291,0.625,0.666,0.958,0.25,1.042
		C1083.458,79.999,1083.25,79.999,1083.25,79.999z"/>
</g>
</svg>
