<?xml version="1.0" encoding="utf-8"?>
<!-- Generator: Adobe Illustrator 16.0.0, SVG Export Plug-In . SVG Version: 6.00 Build 0)  -->
<!DOCTYPE svg PUBLIC "-//W3C//DTD SVG 1.1//EN" "http://www.w3.org/Graphics/SVG/1.1/DTD/svg11.dtd">
<svg version="1.1" id="Layer_1" xmlns="http://www.w3.org/2000/svg" xmlns:xlink="http://www.w3.org/1999/xlink" x="0px" y="0px"
	 width="1280px" height="800px" viewBox="0 0 1280 800" enable-background="new 0 0 1280 800" xml:space="preserve">
<g>
	<path fill="#FF00FF" d="M179.433,261.357c0,0,5.694-13.354,12.061-21.334c6.366-7.98,11.545-15.723,21.207-18.806
		s11.482-1.148,17.163,1.959c5.68,3.107,8.378,8.964,8.378,8.964s-9.486,2.608-16.757,7.483
		c-7.271,4.875-15.755,16.727-18.853,24.097c-3.098,7.37-7.304,18.07-8.714,27.537c-1.411,9.467-2.642,19.557-2.419,23.865
		c0.223,4.308,1.346,9.233,2.915,10.851c1.569,1.617,8.873,7.592,10.588,8.791c1.716,1.198,10.008,6.687,13.055,8.525
		s5.264,3.141,5.264,3.141s0.79,4.284-1.285,5.594s-7.55,2.403-13.198,1.763c-5.648-0.639-10.921-2.077-16.514-5.592
		c-5.592-3.515-10.647-5.856-11.984-8.148c-1.337-2.292-6.708-13.908-7.921-20.913c-1.213-7.004-2.461-15.217-1.969-22.548
		C170.942,289.255,169.259,283.968,179.433,261.357z"/>
	<path fill="#FF00FF" d="M268.616,249.905c0,0,8.513,2.181,12.831,1.84s10.066-1.411,14.493-1.223
		s11.047,0.685,16.023,2.143c4.976,1.458,10.106,3.217,13.04,4.331c2.933,1.114,8.855,3.359,12.969,5.422
		c4.115,2.062,9.148,5.002,14.439,8.403s13.893,7.964,19.478,9.935s15.986,4.745,21.979,6.062s23.888,4.567,29.817,5.615
		c5.93,1.048,8.594,1.583,14.303,3.008s7.334,3.004,11.555,6.829c4.221,3.824,5.364,7.502,5.515,10.333
		c0.152,2.832,0.005,5.47-0.265,6.73s-1.649,5.4-1.649,5.4s0.034-3.416-0.64-4.92c-0.674-1.503-2.534-4.127-3.095-4.848
		c-0.561-0.722-7.763-5.975-12.145-6.873s-3.993-0.479-3.993-0.479s-6.554-2.152-9.988-1.875
		c-3.434,0.277-11.677,1.445-15.476,2.096c-3.799,0.651-9.026,1.773-11.637,2.785c-2.611,1.012-6.886,3.118-10.808,3.625
		s-11.805,1.084-15.686,1.405c-3.882,0.321-4.148,0.213-6.986,1.001c-2.837,0.787-9.104,0.583-12.904,0.149
		c-3.799-0.434-9.986-0.634-13.821-1.835c-3.834-1.201-10.665-7.313-14.14-9.949c-3.476-2.637-14.499-8.151-18.395-10.187
		c-3.895-2.036-7.609-3.363-14.2-9.77c-6.591-6.407-8.655-17.541-12.776-22.639S268.616,249.905,268.616,249.905z"/>
	<path fill="#FF00FF" d="M303.43,294.828c0,0,10.69,9.874,12.91,11.955c2.22,2.081,7.839,6.891,11.034,9.813
		c3.195,2.922,8.069,8.023,10.028,10.827c1.958,2.804,8.789,11,12.485,13.887c3.696,2.886,8.729,5.434,9.986,6.919
		s0.907,2.412,1.603,3.939c0.695,1.527,1.416,3.195,3.896,5.606c2.48,2.412,5.421,5.278,8.539,6.518
		c3.117,1.24,13.262,1.958,16.698,1.958c3.436,0,7.829,0.48,9.507,0c1.678-0.479,2.157-2.797,2.397-3.436
		c0.24-0.639,0.736-4.09,0.736-4.09s-2.101,0.414-3.25,0.003c-1.149-0.41-2.627-1.451-2.784-2.638
		c-0.158-1.187-0.201-3.007,0.246-4.507c0.446-1.5,1.61-3.259,2.498-4.024c0.888-0.765,3.109-2.433,4.609-3.01
		c1.5-0.577,6.445-2.379,7.754-2.991c1.309-0.612,4.387-2.186,5.512-2.898c1.125-0.712,5.015-3.728,6.909-5.219
		c1.894-1.491,4.275-3.337,6.451-4.896c2.176-1.559,4.313-3.096,6.894-4.799c2.58-1.703,4.24-2.948,5.609-4.13
		c1.37-1.183,5.711-4.651,5.711-4.651s-1.555-1.33-2.738-2.121c-1.184-0.792-2.779-1.905-4.516-2.774
		c-1.738-0.87-3.255-1.664-4.89-1.979c-1.634-0.314-3.993-0.479-3.993-0.479s-1.55,1.487-3.052,2.562s-4.265,2.933-6.201,4.589
		s-4.066,3.478-5.266,4.329c-1.199,0.851-3.264,2.126-4.495,2.58c-1.23,0.454-3.624,1.508-5.382,3.061s-4.282,3.828-5.888,5.408
		c-1.605,1.58-4.01,4.119-5.252,5.362c-1.243,1.243-3.299,3.244-5.797,4.783c-2.498,1.539-5.118,3.552-6.103,3.611
		c-0.985,0.059-5.943-0.103-7.597-0.285c-1.654-0.183-4.996-0.607-6.723-0.924c-1.727-0.317-4.715-0.758-6.64-1.579
		c-1.925-0.821-5.259-2.475-7.463-4.16c-2.204-1.685-8.495-7.339-10.364-9.577c-1.869-2.237-4.12-5.008-5.355-6.578
		c-1.235-1.571-4.529-5.504-4.529-5.504s-2.904-0.917-4.545-2.022c-1.641-1.104-5.849-4.332-8.321-6.292
		c-2.472-1.96-4.623-3.476-7.01-4.807C314.899,300.837,305.329,295.146,303.43,294.828z"/>
	<path fill="#FF00FF" d="M134.642,556.548c0,0-0.602,5.691,2.702,8.518s7.713,4.94,13.85,7.479
		c6.137,2.538,17.67,2.617,21.372,1.993c3.701-0.625,9.652-1.689,18.959-6.324c9.307-4.636,20.261-9.293,23.646-10.505
		c3.386-1.213,32.739-12.177,40.584-12.505c7.846-0.329,22.848-0.783,26.682-0.782c3.834,0.001,17.888,0.423,17.888,0.423
		s3.161-2.529,3.878-3.77s1.726-3.779,2.243-6.615c0.518-2.837-4.903-2.002-5.967-2.072s-19.742,0.251-25.863,0.45
		c-6.121,0.2-12.023,0.175-14.582-0.513s-4.836-1.773-12.986,0.739c-8.15,2.513-9.035,2.912-19.64,4.874
		c-10.605,1.963-22.186,3.58-29.134,6.483c-6.948,2.903-21.206,8.592-27.56,9.161s-15.503-2.079-19.077-2.553
		c-3.574-0.474-8.047-6.608-8.047-6.608s-6.878,5.655-8.992,11.647"/>
</g>
<g>
	<path fill="#FBB03B" d="M235.715,519.769c0,0,18.122-4.919,24.993-9.073c6.871-4.155,12.942-6.872,18.055-10.387
		s23.375-19.188,23.375-19.188l3.477,11.037c0,0-31.966,27.964-43.15,32.118c-11.185,4.155-23.807,11.9-23.807,11.9
		S235.648,525.168,235.715,519.769z"/>
	<path fill="#FBB03B" d="M228.913,634.679c0,0,8.308-13.421,11.504-38.347s15.339-51.129,15.339-51.129
		s35.151-1.759,48.093,0c12.942,1.758,26.843,2.237,41.703,5.593s19.174,7.189,29.24,5.752c10.066-1.438,14.859,3.835,20.132,8.628
		c5.272,4.793,19.173,10.066,20.611,19.652c1.438,9.587-5.272,7.19-7.669,11.984c-2.396,4.793-11.504,16.297-26.363,22.528
		c-14.86,6.231-46.934,16.775-59.178,15.338c-12.244-1.437-21.352,5.059-31.897,0.133c-10.545-4.925-0.958-10.198-24.925-6.843
		C241.535,631.324,235.463,635.637,228.913,634.679z"/>
	<path fill="#FBB03B" d="M234.244,496.479c0,0,22.948-19.98,29.659-26.052c6.71-6.071,29.809-32.794,29.809-32.794
		s-2.259-19.174-2.213-23.469c0.046-4.294-14.555-36.936-14.555-36.936s-0.579,15.705-5.532,24.333s-17.895,28.92-22.369,33.713
		c-4.474,4.794-7.229,5.365-7.229,5.365s-2.95,15.248-4.253,24.283S234.309,490.608,234.244,496.479z"/>
	<path fill="#FBB03B" d="M241.813,440.641c0,0,8.222-4.714,18.497-21.186c10.275-16.473,10.574-17.292,12.916-21.828
		c2.341-4.535,4.137-15.809,3.718-20.398c-0.419-4.589-14.984-28.762-19.701-35.783c-4.718-7.021-14.876-23.124-19.766-24.325
		c-4.891-1.202-5.301-2.158-5.301-2.158s2.288,9.105,2.068,14.377c-0.22,5.273,2.497,8.629,1.218,15.659
		c-1.278,7.03-3.287,13.472-3.287,13.472s8.693,15.113,10.281,24.402s3.104,21.09,2.752,28.516
		C244.857,418.814,243.018,434.248,241.813,440.641z"/>
	<path fill="#FBB03B" d="M232.176,358.472c0,0-8.08-10.056-10.505-14.4c-2.425-4.345-6.979-14.372-6.26-18.087
		c0.719-3.715,2.517-9.221,4.314-11.021c1.797-1.801,8.868-2.16,10.785-1.441c1.917,0.719,2.121,1.851,2.121,1.851
		s1.551,10.249,1.624,13.248c0.072,2.998,2.225,10.144,1.887,11.425C235.805,341.328,235.159,353.93,232.176,358.472z"/>
	<path fill="#FBB03B" d="M273.491,532.899c0,0,26.802-1.561,29.879,0c3.077,1.56,3.077,1.56,3.077,1.56
		s1.523-16.862,1.587-22.157c0.064-5.296,0.328-8.776-0.571-12.862c-0.898-4.085-1.847-7.282-1.847-7.282
		s-7.773,6.691-11.904,10.056c-4.13,3.363-12.364,9.853-14.028,11.095s-3.185,2.356-3.185,2.356S269.976,522.99,273.491,532.899z"/>
	<path fill="#FBB03B" d="M238.659,536.176c0,0,13.981-6.23,19.334-4.393c5.353,1.838,15.498,1.116,15.498,1.116
		s-1.27-3.579-1.038-6.149c0.232-2.571,1.016-6.19,1.978-7.879c0.962-1.689,2.067-3.207,2.067-3.207s-10.802,7.343-13.33,8.33
		c-2.528,0.986-8.985,3.762-11.566,5.074C249.021,530.38,238.659,536.176,238.659,536.176z"/>
	<path fill="#FBB03B" d="M302.139,481.12c0,0-4.126-12.932-5.093-17.18c-0.967-4.247-2.659-15.183-2.602-18.767
		c0.058-3.585-0.732-7.54-0.732-7.54s-1.607,18.894-3.285,26.963s-4.952,19.895-6.071,22.45c-1.118,2.557-1.018,9.771-1.018,9.771
		S300.507,482.703,302.139,481.12z"/>
	<path fill="#FBB03B" d="M244.154,517.265c0,0,11.309-3.729,14.226-5.326c2.918-1.598,9.363-5.226,11.778-6.548
		c2.415-1.323,7.387-4.203,8.605-5.082c1.218-0.879,4.575-3.49,4.575-3.49s0.139-7.295,1.018-9.771
		c0.879-2.476,2.584-8.185,3.245-10.715c0.661-2.529,2.28-10.802,3.232-13.904s1.275-8.943,1.581-11.741
		c0.306-2.797,1.298-13.053,1.298-13.053s-6.913,7.93-8.674,9.924S271.7,462.409,271.7,462.409s-8.914,18.483-10.751,23.517
		c-1.837,5.033-7.35,15.737-9.188,18.854C249.925,507.895,245.333,515.13,244.154,517.265z"/>
	<path fill="#FBB03B" d="M234.244,496.479c0,0-0.283,10.124,0,11.535s1.471,11.754,1.471,11.754l8.438-2.504
		c0,0,4.266-6.97,5.937-9.728s6.826-12.306,8.548-16.204s5.226-12.293,6.951-15.993s6.111-12.931,6.111-12.931
		s-11.366,11.214-13.403,13.011c-2.038,1.796-11.935,10.1-13.063,11.277C244.104,487.875,234.244,496.479,234.244,496.479z"/>
	<path fill="#FBB03B" d="M428.637,582.112c0,0,9.267-0.478,14.539-11.184c5.273-10.706,6.231-12.463,6.871-12.623
		c0.639-0.16-1.318-4.634-2.397-5.473c-1.078-0.839-4.793-4.554-5.872-6.711c-1.079-2.157-4.194-8.029-4.194-8.029
		s-13.542-1.917-16.417,3.355s-1.304,4.675-1.304,4.675s-0.604,4.073-0.429,5.871c0.175,1.797,2.17,6.249,3.849,10.515
		c1.679,4.265,4.02,10.245,4.805,13.393C428.873,579.048,429.567,581.781,428.637,582.112z"/>
	<path fill="#FBB03B" d="M419.854,544.137c0,0,1.916-4.759,5.15-5.456c3.235-0.696,8.194-1.131,9.783-0.928
		s2.797,0.34,2.797,0.34s-2.131-4.115-3.402-7.39c-1.271-3.275-1.791-5.652-4.668-8.15s-7.608-4.907-9.242-6.418
		c-1.634-1.51-6.023-6.227-6.339-7.912c-0.315-1.687,0.622,5.854,1.072,7.806s1.699,6.835,2.533,10.979
		c0.833,4.144,1.601,7.906,1.88,10.746C419.696,540.594,419.854,544.137,419.854,544.137z"/>
	<path fill="#FBB03B" d="M375.646,496.698c0,0,13.105-47.348,16.46-62.687c3.355-15.339,8.329-68.012,8.329-68.012
		h-9.826c0,0-11.231,40.353-14.963,48.04c-3.731,7.688-15.078,25.352-15.078,25.352s2.917,12.336,4.469,19.324
		C366.59,465.705,373.869,491.468,375.646,496.698z"/>
	<path fill="#FBB03B" d="M375.646,496.698c0,0,3.382,9.111,4.855,12.229c1.474,3.116,5.233,10.749,6.773,13.816
		c1.54,3.066,3.528,8.142,6.388,13.345c2.86,5.203,5.179,9.238,7.812,12.469c2.633,3.231,3.017,3.836,3.996,4.582
		c0.979,0.746,2.715,1.769,3.993,1.81c1.278,0.042,1.347-1.243,1.35-1.646s-0.072-2.926-1.271-7.06
		c-1.198-4.135-3.321-15.765-4.188-18.964c-0.866-3.2-2.812-10.011-5.399-15.967c-2.587-5.955-5.294-12.034-6.726-16.838
		c-1.431-4.804-1.969-8.333-1.863-11.505c0.105-3.172,0.553-9.775,0.83-13.059c0.276-3.283,1.082-12.744,1.437-15.405
		c0.354-2.662,2.063-15.699,2.43-16.884s1.735-4.426,1.735-4.426s1.918-2.555,6.232-19.97c4.314-17.416-0.161-16.298-1.279-25.405
		c-1.118-9.107-2.317-21.57-2.317-21.57l-2.603,25.426c0,0-2.287,20.976-3.513,29.085c-1.226,8.11-2.219,13.885-4.003,20.95
		c-1.784,7.065-4.169,16.294-5.897,22.738c-1.728,6.443-3.896,14.481-5.031,18.631C378.254,487.231,376.5,494.53,375.646,496.698z"
		/>
	<path fill="#FBB03B" d="M390.609,366.25c0,0-3.814,13.459-5.525,19.194s-4.513,15.058-5.945,19.27
		s-4.498,11.793-7.943,17.534c-3.445,5.743-10.628,17.206-10.628,17.206s-5.991-16.233-7.033-18.689s-1.383-3.246-1.383-3.246
		s7.94-13.559,11.935-20.43s9.587-23.168,10.545-26.524s1.015-5.752,1.015-5.752S386.613,366.25,390.609,366.25z"/>
	<path fill="#FBB03B" d="M352.152,343.402c0,0,2.509,22.303,2.349,34.399c-0.16,12.097-0.386,36.363-0.386,36.363
		s3.507-5.992,5.776-9.881c2.27-3.889,4.433-6.898,6.582-11.933c2.149-5.035,4.411-10.375,6.285-16.081
		c1.874-5.706,2.43-7.609,2.623-9.045s0.266-2.413,0.266-2.413s-3.372-0.241-9.124-5.873c-5.752-5.632-5.273-7.669-5.393-9.227
		S352.152,343.402,352.152,343.402z"/>
	<path fill="#FBB03B" d="M323.341,313.202c0,0,10.706,8.468,14.061,14.221c3.355,5.752,14.75,15.98,14.75,15.98
		s1.017,9.865,1.322,13.705s1.069,12.975,1.028,18.408c-0.041,5.434-0.118,11.831-0.181,17.9c-0.062,6.069-0.095,9.108-0.124,12.143
		c-0.029,3.033-0.083,8.607-0.083,8.607l-1.963,3.354c0,0-5.378-12.398-6.526-15.385c-1.149-2.987-5.066-13.523-7.045-18.815
		c-1.979-5.292-3.665-9.947-6.979-17.958c-3.315-8.011-7.82-17.059-10.917-24.302c-3.097-7.244-10.418-14.832-13.548-22.222
		c-3.129-7.391-7.058-9.261-8.449-14.717c-1.391-5.456-2.739-6.066-4.72-9.942s-3.804-7.361-3.804-7.361s6.972,3.059,12.085,7.053
		C307.36,297.865,315.772,306.559,323.341,313.202z"/>
	<path fill="#FBB03B" d="M363.899,316.239c0,0,11.69,9.587,15.525,17.097s3.676,10.066,3.676,10.066
		s2.077,1.279,3.834,0s6.231-3.516,8.947-6.072s4.633-4.954,8.468-8.468c3.834-3.515,5.913-5.913,9.907-7.19
		c3.994-1.278,9.906-7.349,12.303-8.947c2.397-1.598,6.231-4.314,6.711-5.113c0.479-0.799-8.468-2.557-13.421-1.598
		c-4.954,0.958-9.587,1.278-16.298,2.556c-6.71,1.278-9.747,3.195-15.02,4.953C383.259,315.28,367.707,315.44,363.899,316.239z"/>
	<path fill="#FBB03B" d="M449.408,314.964c0,0,5.672,5.509,3.036,11.501s-13.661,11.624-13.661,11.624
		s-12.103,6.591-16.417,9.707c-4.314,3.116-11.863,7.909-14.38,8.868c-2.517,0.959-4.793,3.116-8.508,1.917
		s-2.157-6.351-1.797-7.909c0.359-1.558,3.595-5.133,8.388-6.701c4.793-1.568,11.384-4.324,16.537-8.758
		s13.781-10.426,17.017-12.463S446.611,316.764,449.408,314.964z"/>
	<path fill="#FBB03B" d="M337.163,314.964c0,0,9.946,13.059,12.822,15.575c2.876,2.517,23.726,4.073,26.843,3.955
		c3.117-0.118,2.854-0.648,2.854-0.648s-1.417-3.05-4.035-6.027c-2.618-2.977-3.738-4.218-5.265-5.691s-6.482-5.888-6.482-5.888
		S359.333,319.041,337.163,314.964z"/>
	<path fill="#FBB03B" d="M350.283,330.755c0,0,8.53,9.211,17.159,11.129c8.628,1.917,15.818,2.087,15.818,2.087
		s-0.698-3.75-1.703-6.039c-1.005-2.289-1.875-4.086-1.875-4.086s-2.096,0.917-7.692,0.452s-9.478-0.858-11.427-1.138
		s-5.895-0.908-7.289-1.309C351.878,331.45,350.283,330.755,350.283,330.755z"/>
</g>
<g>
	<path fill="#C1272D" d="M376.948,309.928c0,0-6.352-10.186-5.033-18.455s2.427-9.735,2.427-9.735
		s-11.62-4.588-14.547-6.293c-2.928-1.705-3.408-2.001-3.408-2.001s-3.167,4.009-5.563,10.959c-2.397,6.951-0.599,7.909-4.554,14.86
		c-3.955,6.95-7.07,10.665-7.07,10.665s9.516,1.678,15.303,1.558C360.291,311.366,373.593,309.568,376.948,309.928z"/>
	<path fill="#C1272D" d="M134.642,556.548c0,0-17.256,6.231-25.405,25.404c-8.149,19.174-5.273,30.678-3.355,35.472
		c1.917,4.793,13.421,19.174,28.76,23.008c15.339,3.835,22.05,7.19,41.223,9.587c19.174,2.396,35.951-5.752,41.223-9.107
		c5.273-3.355,11.824-6.232,11.824-6.232s8.396-18.247,10.396-31.179c2-12.931,2.2-15.526,3.967-22.189s-5.416-4.79-5.096-16.613
		c0.319-11.823,0.958-14.38,0.958-14.38s-25.884,6.071-47.614,17.896s-39.944,5.433-49.212,0.64
		C133.045,564.059,134.642,556.548,134.642,556.548z"/>
	<path fill="#C1272D" d="M143.591,544.421c0,0,15.02-19.987,25.565-40.119c10.545-20.133,20.451-18.216,30.358-28.122
		c9.906-9.906,21.091-16.616,27.802-38.665c6.71-22.05,6.39-29.72,4.153-50.171c-2.237-20.452-5.512-23.97-7.909-26.606
		c-2.396-2.637-7.669-7.19-7.669-7.19s6.951,1.199,6.951-4.074c0-5.272,1.438-2.636,3.115,0
		c1.678,2.636,13.182,16.777,16.058,31.157c2.876,14.38,5.512,30.198,0,58.958s-9.107,53.446-7.43,70.463s4.074,26.124,4.074,26.124
		s-31.451,4.314-44.246,9.826c-12.795,5.513-22.142,9.348-32.448,6.95C151.659,550.556,149.424,552.666,143.591,544.421z"/>
	<path fill="#C1272D" d="M223.32,346.429c0,0-7.909-9.898-6.71-19.485c1.198-9.587,5.752-13.661,8.388-13.182
		c2.636,0.479,12.911,0.239,20.236,10.306c7.326,10.066,18.111,26.124,22.904,35.231s16.297,32.834,20.372,46.256
		c4.074,13.422,18.934,49.133,40.024,74.537c21.091,25.405,41.223,46.496,45.777,53.446c4.554,6.951,7.747,14.638,8.628,19.175
		c0.881,4.537,1.571,4.79,1.571,4.79s8.251,4.117,14.524,10.688s14.85,8.504,16.394,16.086c1.543,7.581-0.368,6.276-0.368,6.276
		s12.138-8.442,13.576-8.442s-0.48-7.03-3.676-15.339c-3.195-8.308-5.112-11.823-5.112-17.575s0.319-9.268-1.917-20.292
		c-2.237-11.025-3.835-14.54-4.314-22.37c-0.479-7.829-7.19-17.415-10.227-41.702s-5.592-31.639-5.592-31.639
		s-2.078,3.676-2.557,8.788c-0.479,5.113-2.238,15.659-2.557,21.57c-0.319,5.911-1.597,15.819-1.278,23.169
		c0.319,7.349,7.19,20.932,10.226,28.601c3.036,7.67,6.072,21.25,7.031,26.843c0.958,5.594,3.834,13.102,0.798,12.782
		s-4.792-2.237-7.989-6.392c-3.196-4.153-6.872-9.904-9.427-15.977c-2.556-6.072-12.143-23.33-15.978-34.194
		c-3.834-10.865-10.386-33.715-11.983-45.059c-1.597-11.345-9.587-30.837-14.061-40.583c-4.474-9.747-10.866-28.281-14.7-38.028
		c-3.835-9.747-10.544-26.684-15.658-35.472c-5.113-8.788-18.535-29.24-21.891-37.069c-3.355-7.829-14.486-28.633-21.731-40.425
		c-7.246-11.792-20.133-37.074-44.739-27.485c-24.606,9.589-31.956,38.031-34.353,43.942c-2.397,5.912-7.989,38.187-4.155,45.537
		C196.634,331.095,223.32,346.429,223.32,346.429z"/>
	<path fill="#C1272D" d="M300.325,544.844c0,0,21.558,1.979,30.507,3.378c8.949,1.399,15.862,2.539,22.897,4.716
		s16.587,7.129,26.015,6.171c9.428-0.959,4.767-1.604,4.767-1.604s-1.507-7.294-6.253-17.146s-10.335-14.95-15.673-21
		c-5.338-6.05-24.146-27.126-31.236-35.894c-7.09-8.769-19.662-26.797-24.461-36.018c-4.798-9.221-15.389-33.282-15.389-33.282
		s3.241,35.014,4.2,43.162s7.99,27.961,10.866,38.027c2.876,10.065,0.958,22.528,0.479,31.795
		C306.564,536.416,306.069,540.968,300.325,544.844z"/>
	<path fill="#C1272D" d="M450.173,557.866c0,0,11.139-15.339,12.577-18.694s2.996-10.785,1.318-16.418
		c-1.678-5.632-11.145-27.921-23.368-34.632s-21.93-12.583-26.604-12.343c-4.673,0.239-8.935-0.008-8.935-0.008
		s1.77,8.08,3.025,12.05s3.213,9.448,3.964,12.016s1.376,5.859,1.528,7.565c0.152,1.706,5.212,8.761,9.406,10.559
		s8.748,6.352,9.827,9.467c1.078,3.115,3.497,8.439,4.673,10.665s4.825,9.693,7.446,12.217
		C447.65,552.833,449.339,554.511,450.173,557.866z"/>
</g>
<path fill="#0000FF" d="M172.67,278.05c0,0,12.302-37.387,31.956-52.246c19.653-14.859,30.677,2.876,30.677,2.876
	s8.628,11.504,20.132,16.298c11.504,4.793,20.132,8.148,31.637,6.231c11.504-1.917,23.008,0.479,31.157,3.355
	s22.05,7.669,33.554,15.818c11.504,8.149,22.05,11.983,39.306,15.818c17.256,3.834,15.339,3.355,32.595,6.231
	c17.256,2.876,22.529,4.793,28.76,13.422c6.231,8.628,0,20.611,0,20.611s8.148-4.313,5.911-23.167
	c-2.236-18.854-10.544-18.854-16.617-24.287c-6.072-5.432-12.143-13.741-18.215-23.328c-6.072-9.586-19.813-29.719-44.738-46.017
	c-24.926-16.298-29.72-19.174-36.75-28.761c-7.03-9.586-29.558-24.127-48.732-28.441c-19.173-4.314-54.165-23.487-88.677-23.967
	c-34.513-0.479-66.149,12.463-77.174,26.843c-11.025,14.38-28.281,41.21-23.488,72.134c4.793,30.924,7.35,40.351,16.298,54.411
	c8.948,14.061,60.077,58.16,60.077,58.16S164.683,316.875,172.67,278.05z"/>
</svg>
