<?xml version="1.0" encoding="utf-8"?>
<!-- Generator: Adobe Illustrator 16.0.0, SVG Export Plug-In . SVG Version: 6.00 Build 0)  -->
<!DOCTYPE svg PUBLIC "-//W3C//DTD SVG 1.1//EN" "http://www.w3.org/Graphics/SVG/1.1/DTD/svg11.dtd">
<svg version="1.1" id="Layer_1" xmlns="http://www.w3.org/2000/svg" xmlns:xlink="http://www.w3.org/1999/xlink" x="0px" y="0px"
	 width="1280px" height="800px" viewBox="0 0 1280 800" enable-background="new 0 0 1280 800" xml:space="preserve">
<g>
	<path fill="#FFFFFF" d="M298.19,54c0,0-10.856-9.664-14.19,5.334s7.095,28.332,7.095,28.332s21.236,41.997,13.238,76.832
		s-19,60.502-40.667,79.168s0.333,9,2,8.333s7.021-9.276,30.667,7s29.65,27.146,39.999,44.666s7,48,7.667,57
		s20.915,210.667,24.457,223S376,606,376,606s4-18.667,5-23.333S384,491,381,462s-5.5-96.5-5-124.5s0-91.5,26.5-111.5
		s20.08-17.935,35-24s5.191-11-5.404-10.5s-32.596,10-53.596-2s-31.928-12.772-52-50.5s-20-62.5-21-70.5S302.046,56.366,298.19,54z"
		/>
	<path fill="#FFFFFF" d="M-15.5,928c0,0-30.5-90.5-28.5-132s6.906-61.832,14.203-79.666S-14.5,691-9,671s20.5-62.5,20-83.5
		s0.747-54.007,10.478-74.499S76,457,90.5,454s30-11.939,46.5,25.03s15.5,44.81,18,52.64S156,561,143,590s-15.022,43-17.011,61
		S103.5,716.5,96.5,735S88,752,89,764.5s6,23-0.5,46.5s-25,71.5-26,91s-0.086,19.5-6.543,32S5.5,952-5,945.5S-9.5,938-15.5,928z"/>
	<path fill="#FFFFFF" d="M219.506,200.5c0,0-12.506-14-22.006-27.5s-24.003-33-31.501-40.5S149.5,119,145.5,112S138,97.5,137,86.5
		S131.978,66,125.989,63s-2.992-2.627-9.99-12.063S97,22.5,96.5,9.5S89-18,100-40s17-45,36.5-56.5s39-21,65.5-22.5s42.5-5.5,60,0
		s26.881,11,36.19,24S338.998-23.886,345,27s5.248,50.153,9.957,59.91S352,96,352,96s-42-64-75-13s-16.5,62-18,71
		S241.513,192.5,219.506,200.5z"/>
	<path fill="#FFFFFF" d="M546.5,84c0,0,11-59.5,33-78.5s29-45,51-64S703-98,719.5-74s10,35.5,6,52.5s-7.5,41.373-20,72.437
		S669.693,141.55,655.5,162s-16,31.5-25,33.5s2-87-0.5-106s-7-31-25.5-25.5S583,85.5,546.5,84z"/>
</g>
<g>
	<path fill="#00FF00" d="M503,297c0,0,17.5-33.5,86.5-41s47.5-56.5,52.5-78.5s2-75,0-91s2-46.5-7-52.5s-10.5,3-17.5,7
		s-15.764,16.5-43.632,26.5s-40.368,5-58.868,28s-27.5,30-26,43s31.497,7.481,52,23.5s25,11,25,11l-17.296,18.392
		c0,0-11.951,10.08-22.272,24.943s-22.841,32.038-23.47,41.518S495.334,275,503,297z"/>
	<path fill="#00FF00" d="M230.5,357c0,0-14-7-40,24S163,438,117,454s-37,8-55.5,20s-26,25.5-26,25.5s-12.5-18-13.5-33s-1-47,4-65
		S40.5,383,44,371s0.5-23.5,11.5-36.5s25-10,37.5-22s24.585-15.65,32.989-17s8.844,0,8.844,0s11.333,11.334,23,16
		s30,10.102,40.333,16.968S224.334,348.166,230.5,357z"/>
	<path fill="#00FF00" d="M292.334,716.334c0,0-7.667-19.001-4-40.334S298,625.667,313,609.667s34.656-40.333,36.661-48
		S305.334,528,301.334,522.666s-6.834-6.834-6.834-6.834s-5.167,7.501-25.833,9.834s-45.833,7.999-60.667,2.666
		S139.333,496.333,130,482s13,27.333,20,37.333s19.667,18.666,25,41s3.333,51.334,27,78.667s16.479,23.334,36.74,32.667
		S276.668,679.334,292.334,716.334z"/>
	<path fill="#00FF00" d="M165.999,405.667c0,0,49.333-15.666,84.667,33.667s18,21,18,21S241.124,368.473,230.5,357
		s-28.835,2.333-33.835,7.667S185.999,386,165.999,405.667z"/>
	<path fill="#00FF00" d="M115.999,448.334c0,0,8.684,23.98,11.756,30.696s48.244,47.304,78.244,51.304s63-2.001,74-4.667
		s16.708-8.176,16.411-8.425s-20.575-28.049-23.493-48.812s-31.585-44.767-47.251-57.932s-48.086-11.6-55.543-9.05
		C162.665,404,154.332,440.334,115.999,448.334z"/>
	<path fill="#00FF00" d="M453.663,747.334c0,0,15.001-14.999,15.667-39.666s-4.334-55.334-11.667-72.667s-37.666-54.333-46.333-61
		s-19.334-7.667-19.334-17.667s35-42.002,42.667-56.834s25.333-44.5,27.333-51.5s11.333,1.333,19.333,0s32.666-0.564,59.333-21.949
		c26.667-21.383,41.667-28.383,53.667-45.383s23.666-63,23.333-90s4.667,0,4.667,0s7.001,66.333-2.333,93.333
		s4.999,70.335-5.667,130.668s-16,98.333-37,126.333S476.663,736.664,453.663,747.334z"/>
	<path fill="#00FF00" d="M619.997,230.669c0,0-1.667,39.334,0,63.667s-12.999,69.667-20.333,84.667s-37.334,32.431-53.334,47.048
		c-16,14.619-51.899,25.505-66.333,24.285c-14.434-1.219-15.353-5.08-15.353-5.08s25.02-53.92,29.353-88.586s4.999-49,3.333-58.333
		s11.667-17.337,15.667-19.668s24.667-15.665,40.667-18.665s37.334-2.333,47-9S619.997,230.669,619.997,230.669z"/>
</g>
<g>
	<path fill="#0000FF" d="M130,295.5L270,247c0,0,17.5-9,51.5,30s24.5,57.5,25,59s-1.5,18.5,5.5,67s11,56.5,11,86.5s3,39.5,3,39.5
		l10,77c0,0-22-38-45-55s-39.5-28-51.5-53S262,442.5,253,422s-11-34-22-52s-31-38-41.5-41.5S148,313.5,130,295.5z"/>
	<path fill="#0000FF" d="M566,173c0,0-88.5,0.5-122.5,19.5s-44,25.205-58,53.603S368,299.5,368.5,325s6,51,5,87s-2.5,60,2.5,80
		s2.5,43.5,2.5,53.5S376,606,376,606s13-41.5,29.5-63.5s39.5-49.5,51-74.5s31-60,36.5-87.5s12-49,8-79s-4-32.5,10-61
		S550,191.5,566,173z"/>
	<path fill="#0000FF" d="M298.19,54c0,0,5.809,54.334,19.475,79.667s21,48.333,52.667,58.333s51.668,6,75.334,4.667
		s59.667-18.333,81-19S566,176.334,566,176.334s-72.667-51.667-124.334-46s-71.333-17-82-33.667S357.382,62.666,298.19,54z"/>
	<path fill="#0000FF" d="M284,59.334c0,0,25.667,60,25,81.333s-7,49.333-18.333,71s-11.715,25.824-19.333,31.667
		s-30,16-51.666,23.666S130,295.5,130,295.5s29.333-22.166,42.667-38.5s28.333-44,50.667-62.333S252,164,255,144.333
		S240.667,88.668,284,59.334z"/>
</g>
</svg>
